%TF.GenerationSoftware,KiCad,Pcbnew,7.0.1*%
%TF.CreationDate,2023-06-08T12:37:54+02:00*%
%TF.ProjectId,_autosave-microboard,5f617574-6f73-4617-9665-2d6d6963726f,V1*%
%TF.SameCoordinates,Original*%
%TF.FileFunction,Soldermask,Top*%
%TF.FilePolarity,Negative*%
%FSLAX46Y46*%
G04 Gerber Fmt 4.6, Leading zero omitted, Abs format (unit mm)*
G04 Created by KiCad (PCBNEW 7.0.1) date 2023-06-08 12:37:54*
%MOMM*%
%LPD*%
G01*
G04 APERTURE LIST*
G04 Aperture macros list*
%AMRoundRect*
0 Rectangle with rounded corners*
0 $1 Rounding radius*
0 $2 $3 $4 $5 $6 $7 $8 $9 X,Y pos of 4 corners*
0 Add a 4 corners polygon primitive as box body*
4,1,4,$2,$3,$4,$5,$6,$7,$8,$9,$2,$3,0*
0 Add four circle primitives for the rounded corners*
1,1,$1+$1,$2,$3*
1,1,$1+$1,$4,$5*
1,1,$1+$1,$6,$7*
1,1,$1+$1,$8,$9*
0 Add four rect primitives between the rounded corners*
20,1,$1+$1,$2,$3,$4,$5,0*
20,1,$1+$1,$4,$5,$6,$7,0*
20,1,$1+$1,$6,$7,$8,$9,0*
20,1,$1+$1,$8,$9,$2,$3,0*%
%AMFreePoly0*
4,1,19,0.500000,-0.750000,0.000000,-0.750000,0.000000,-0.744911,-0.071157,-0.744911,-0.207708,-0.704816,-0.327430,-0.627875,-0.420627,-0.520320,-0.479746,-0.390866,-0.500000,-0.250000,-0.500000,0.250000,-0.479746,0.390866,-0.420627,0.520320,-0.327430,0.627875,-0.207708,0.704816,-0.071157,0.744911,0.000000,0.744911,0.000000,0.750000,0.500000,0.750000,0.500000,-0.750000,0.500000,-0.750000,
$1*%
%AMFreePoly1*
4,1,19,0.000000,0.744911,0.071157,0.744911,0.207708,0.704816,0.327430,0.627875,0.420627,0.520320,0.479746,0.390866,0.500000,0.250000,0.500000,-0.250000,0.479746,-0.390866,0.420627,-0.520320,0.327430,-0.627875,0.207708,-0.704816,0.071157,-0.744911,0.000000,-0.744911,0.000000,-0.750000,-0.500000,-0.750000,-0.500000,0.750000,0.000000,0.750000,0.000000,0.744911,0.000000,0.744911,
$1*%
G04 Aperture macros list end*
%ADD10C,0.100000*%
%ADD11C,0.150000*%
%ADD12C,0.300000*%
%ADD13C,0.400000*%
%ADD14R,1.700000X1.700000*%
%ADD15O,1.700000X1.700000*%
%ADD16RoundRect,0.250000X-0.350000X0.275000X-0.350000X-0.275000X0.350000X-0.275000X0.350000X0.275000X0*%
%ADD17R,2.000000X0.250000*%
%ADD18R,0.250000X2.000000*%
%ADD19C,3.200000*%
%ADD20RoundRect,0.250000X-0.450000X0.350000X-0.450000X-0.350000X0.450000X-0.350000X0.450000X0.350000X0*%
%ADD21RoundRect,0.250000X-0.337500X-0.475000X0.337500X-0.475000X0.337500X0.475000X-0.337500X0.475000X0*%
%ADD22RoundRect,0.250000X-0.350000X-0.450000X0.350000X-0.450000X0.350000X0.450000X-0.350000X0.450000X0*%
%ADD23C,2.000000*%
%ADD24RoundRect,0.250000X-0.250000X0.250000X-0.250000X-0.250000X0.250000X-0.250000X0.250000X0.250000X0*%
%ADD25RoundRect,0.250000X0.350000X0.450000X-0.350000X0.450000X-0.350000X-0.450000X0.350000X-0.450000X0*%
%ADD26RoundRect,0.250000X-0.475000X0.337500X-0.475000X-0.337500X0.475000X-0.337500X0.475000X0.337500X0*%
%ADD27C,0.650000*%
%ADD28O,1.700000X0.900000*%
%ADD29O,2.400000X0.900000*%
%ADD30R,2.032000X2.032000*%
%ADD31C,2.032000*%
%ADD32R,1.905000X2.000000*%
%ADD33O,1.905000X2.000000*%
%ADD34R,2.000000X2.000000*%
%ADD35R,3.200000X2.000000*%
%ADD36RoundRect,0.250000X0.325000X0.450000X-0.325000X0.450000X-0.325000X-0.450000X0.325000X-0.450000X0*%
%ADD37RoundRect,0.150000X0.150000X-0.512500X0.150000X0.512500X-0.150000X0.512500X-0.150000X-0.512500X0*%
%ADD38RoundRect,0.250000X0.337500X0.475000X-0.337500X0.475000X-0.337500X-0.475000X0.337500X-0.475000X0*%
%ADD39RoundRect,0.250000X0.350000X-0.275000X0.350000X0.275000X-0.350000X0.275000X-0.350000X-0.275000X0*%
%ADD40R,1.560000X1.560000*%
%ADD41C,1.560000*%
%ADD42RoundRect,0.250000X0.250000X-0.250000X0.250000X0.250000X-0.250000X0.250000X-0.250000X-0.250000X0*%
%ADD43R,1.000000X1.000000*%
%ADD44O,1.000000X1.000000*%
%ADD45RoundRect,0.250000X0.450000X-0.325000X0.450000X0.325000X-0.450000X0.325000X-0.450000X-0.325000X0*%
%ADD46RoundRect,0.250000X0.250000X0.250000X-0.250000X0.250000X-0.250000X-0.250000X0.250000X-0.250000X0*%
%ADD47R,1.800000X1.750000*%
%ADD48RoundRect,0.250000X0.450000X-0.350000X0.450000X0.350000X-0.450000X0.350000X-0.450000X-0.350000X0*%
%ADD49RoundRect,0.250000X-0.450000X0.325000X-0.450000X-0.325000X0.450000X-0.325000X0.450000X0.325000X0*%
%ADD50RoundRect,0.250000X0.475000X-0.337500X0.475000X0.337500X-0.475000X0.337500X-0.475000X-0.337500X0*%
%ADD51RoundRect,0.250000X-0.325000X-0.450000X0.325000X-0.450000X0.325000X0.450000X-0.325000X0.450000X0*%
%ADD52FreePoly0,180.000000*%
%ADD53FreePoly1,180.000000*%
G04 APERTURE END LIST*
D10*
D11*
X177002200Y-166007200D02*
X285002200Y-166007200D01*
X285002200Y-198007200D01*
X177002200Y-198007200D01*
X177002200Y-166007200D01*
D10*
D11*
X10000000Y-10000000D02*
X287002200Y-10000000D01*
X287002200Y-200007200D01*
X10000000Y-200007200D01*
X10000000Y-10000000D01*
D10*
D11*
X12000000Y-12000000D02*
X285002200Y-12000000D01*
X285002200Y-198007200D01*
X12000000Y-198007200D01*
X12000000Y-12000000D01*
D10*
D11*
X60000000Y-12000000D02*
X60000000Y-10000000D01*
D10*
D11*
X110000000Y-12000000D02*
X110000000Y-10000000D01*
D10*
D11*
X160000000Y-12000000D02*
X160000000Y-10000000D01*
D10*
D11*
X210000000Y-12000000D02*
X210000000Y-10000000D01*
D10*
D11*
X260000000Y-12000000D02*
X260000000Y-10000000D01*
D10*
D11*
X35990476Y-11601404D02*
X35247619Y-11601404D01*
X35619047Y-11601404D02*
X35619047Y-10301404D01*
X35619047Y-10301404D02*
X35495238Y-10487119D01*
X35495238Y-10487119D02*
X35371428Y-10610928D01*
X35371428Y-10610928D02*
X35247619Y-10672833D01*
D10*
D11*
X85247619Y-10425214D02*
X85309523Y-10363309D01*
X85309523Y-10363309D02*
X85433333Y-10301404D01*
X85433333Y-10301404D02*
X85742857Y-10301404D01*
X85742857Y-10301404D02*
X85866666Y-10363309D01*
X85866666Y-10363309D02*
X85928571Y-10425214D01*
X85928571Y-10425214D02*
X85990476Y-10549023D01*
X85990476Y-10549023D02*
X85990476Y-10672833D01*
X85990476Y-10672833D02*
X85928571Y-10858547D01*
X85928571Y-10858547D02*
X85185714Y-11601404D01*
X85185714Y-11601404D02*
X85990476Y-11601404D01*
D10*
D11*
X135185714Y-10301404D02*
X135990476Y-10301404D01*
X135990476Y-10301404D02*
X135557142Y-10796642D01*
X135557142Y-10796642D02*
X135742857Y-10796642D01*
X135742857Y-10796642D02*
X135866666Y-10858547D01*
X135866666Y-10858547D02*
X135928571Y-10920452D01*
X135928571Y-10920452D02*
X135990476Y-11044261D01*
X135990476Y-11044261D02*
X135990476Y-11353785D01*
X135990476Y-11353785D02*
X135928571Y-11477595D01*
X135928571Y-11477595D02*
X135866666Y-11539500D01*
X135866666Y-11539500D02*
X135742857Y-11601404D01*
X135742857Y-11601404D02*
X135371428Y-11601404D01*
X135371428Y-11601404D02*
X135247619Y-11539500D01*
X135247619Y-11539500D02*
X135185714Y-11477595D01*
D10*
D11*
X185866666Y-10734738D02*
X185866666Y-11601404D01*
X185557142Y-10239500D02*
X185247619Y-11168071D01*
X185247619Y-11168071D02*
X186052380Y-11168071D01*
D10*
D11*
X235928571Y-10301404D02*
X235309523Y-10301404D01*
X235309523Y-10301404D02*
X235247619Y-10920452D01*
X235247619Y-10920452D02*
X235309523Y-10858547D01*
X235309523Y-10858547D02*
X235433333Y-10796642D01*
X235433333Y-10796642D02*
X235742857Y-10796642D01*
X235742857Y-10796642D02*
X235866666Y-10858547D01*
X235866666Y-10858547D02*
X235928571Y-10920452D01*
X235928571Y-10920452D02*
X235990476Y-11044261D01*
X235990476Y-11044261D02*
X235990476Y-11353785D01*
X235990476Y-11353785D02*
X235928571Y-11477595D01*
X235928571Y-11477595D02*
X235866666Y-11539500D01*
X235866666Y-11539500D02*
X235742857Y-11601404D01*
X235742857Y-11601404D02*
X235433333Y-11601404D01*
X235433333Y-11601404D02*
X235309523Y-11539500D01*
X235309523Y-11539500D02*
X235247619Y-11477595D01*
D10*
D11*
X285866666Y-10301404D02*
X285619047Y-10301404D01*
X285619047Y-10301404D02*
X285495238Y-10363309D01*
X285495238Y-10363309D02*
X285433333Y-10425214D01*
X285433333Y-10425214D02*
X285309523Y-10610928D01*
X285309523Y-10610928D02*
X285247619Y-10858547D01*
X285247619Y-10858547D02*
X285247619Y-11353785D01*
X285247619Y-11353785D02*
X285309523Y-11477595D01*
X285309523Y-11477595D02*
X285371428Y-11539500D01*
X285371428Y-11539500D02*
X285495238Y-11601404D01*
X285495238Y-11601404D02*
X285742857Y-11601404D01*
X285742857Y-11601404D02*
X285866666Y-11539500D01*
X285866666Y-11539500D02*
X285928571Y-11477595D01*
X285928571Y-11477595D02*
X285990476Y-11353785D01*
X285990476Y-11353785D02*
X285990476Y-11044261D01*
X285990476Y-11044261D02*
X285928571Y-10920452D01*
X285928571Y-10920452D02*
X285866666Y-10858547D01*
X285866666Y-10858547D02*
X285742857Y-10796642D01*
X285742857Y-10796642D02*
X285495238Y-10796642D01*
X285495238Y-10796642D02*
X285371428Y-10858547D01*
X285371428Y-10858547D02*
X285309523Y-10920452D01*
X285309523Y-10920452D02*
X285247619Y-11044261D01*
D10*
D11*
X60000000Y-198007200D02*
X60000000Y-200007200D01*
D10*
D11*
X110000000Y-198007200D02*
X110000000Y-200007200D01*
D10*
D11*
X160000000Y-198007200D02*
X160000000Y-200007200D01*
D10*
D11*
X210000000Y-198007200D02*
X210000000Y-200007200D01*
D10*
D11*
X260000000Y-198007200D02*
X260000000Y-200007200D01*
D10*
D11*
X35990476Y-199608604D02*
X35247619Y-199608604D01*
X35619047Y-199608604D02*
X35619047Y-198308604D01*
X35619047Y-198308604D02*
X35495238Y-198494319D01*
X35495238Y-198494319D02*
X35371428Y-198618128D01*
X35371428Y-198618128D02*
X35247619Y-198680033D01*
D10*
D11*
X85247619Y-198432414D02*
X85309523Y-198370509D01*
X85309523Y-198370509D02*
X85433333Y-198308604D01*
X85433333Y-198308604D02*
X85742857Y-198308604D01*
X85742857Y-198308604D02*
X85866666Y-198370509D01*
X85866666Y-198370509D02*
X85928571Y-198432414D01*
X85928571Y-198432414D02*
X85990476Y-198556223D01*
X85990476Y-198556223D02*
X85990476Y-198680033D01*
X85990476Y-198680033D02*
X85928571Y-198865747D01*
X85928571Y-198865747D02*
X85185714Y-199608604D01*
X85185714Y-199608604D02*
X85990476Y-199608604D01*
D10*
D11*
X135185714Y-198308604D02*
X135990476Y-198308604D01*
X135990476Y-198308604D02*
X135557142Y-198803842D01*
X135557142Y-198803842D02*
X135742857Y-198803842D01*
X135742857Y-198803842D02*
X135866666Y-198865747D01*
X135866666Y-198865747D02*
X135928571Y-198927652D01*
X135928571Y-198927652D02*
X135990476Y-199051461D01*
X135990476Y-199051461D02*
X135990476Y-199360985D01*
X135990476Y-199360985D02*
X135928571Y-199484795D01*
X135928571Y-199484795D02*
X135866666Y-199546700D01*
X135866666Y-199546700D02*
X135742857Y-199608604D01*
X135742857Y-199608604D02*
X135371428Y-199608604D01*
X135371428Y-199608604D02*
X135247619Y-199546700D01*
X135247619Y-199546700D02*
X135185714Y-199484795D01*
D10*
D11*
X185866666Y-198741938D02*
X185866666Y-199608604D01*
X185557142Y-198246700D02*
X185247619Y-199175271D01*
X185247619Y-199175271D02*
X186052380Y-199175271D01*
D10*
D11*
X235928571Y-198308604D02*
X235309523Y-198308604D01*
X235309523Y-198308604D02*
X235247619Y-198927652D01*
X235247619Y-198927652D02*
X235309523Y-198865747D01*
X235309523Y-198865747D02*
X235433333Y-198803842D01*
X235433333Y-198803842D02*
X235742857Y-198803842D01*
X235742857Y-198803842D02*
X235866666Y-198865747D01*
X235866666Y-198865747D02*
X235928571Y-198927652D01*
X235928571Y-198927652D02*
X235990476Y-199051461D01*
X235990476Y-199051461D02*
X235990476Y-199360985D01*
X235990476Y-199360985D02*
X235928571Y-199484795D01*
X235928571Y-199484795D02*
X235866666Y-199546700D01*
X235866666Y-199546700D02*
X235742857Y-199608604D01*
X235742857Y-199608604D02*
X235433333Y-199608604D01*
X235433333Y-199608604D02*
X235309523Y-199546700D01*
X235309523Y-199546700D02*
X235247619Y-199484795D01*
D10*
D11*
X285866666Y-198308604D02*
X285619047Y-198308604D01*
X285619047Y-198308604D02*
X285495238Y-198370509D01*
X285495238Y-198370509D02*
X285433333Y-198432414D01*
X285433333Y-198432414D02*
X285309523Y-198618128D01*
X285309523Y-198618128D02*
X285247619Y-198865747D01*
X285247619Y-198865747D02*
X285247619Y-199360985D01*
X285247619Y-199360985D02*
X285309523Y-199484795D01*
X285309523Y-199484795D02*
X285371428Y-199546700D01*
X285371428Y-199546700D02*
X285495238Y-199608604D01*
X285495238Y-199608604D02*
X285742857Y-199608604D01*
X285742857Y-199608604D02*
X285866666Y-199546700D01*
X285866666Y-199546700D02*
X285928571Y-199484795D01*
X285928571Y-199484795D02*
X285990476Y-199360985D01*
X285990476Y-199360985D02*
X285990476Y-199051461D01*
X285990476Y-199051461D02*
X285928571Y-198927652D01*
X285928571Y-198927652D02*
X285866666Y-198865747D01*
X285866666Y-198865747D02*
X285742857Y-198803842D01*
X285742857Y-198803842D02*
X285495238Y-198803842D01*
X285495238Y-198803842D02*
X285371428Y-198865747D01*
X285371428Y-198865747D02*
X285309523Y-198927652D01*
X285309523Y-198927652D02*
X285247619Y-199051461D01*
D10*
D11*
X10000000Y-60000000D02*
X12000000Y-60000000D01*
D10*
D11*
X10000000Y-110000000D02*
X12000000Y-110000000D01*
D10*
D11*
X10000000Y-160000000D02*
X12000000Y-160000000D01*
D10*
D11*
X10690476Y-35229976D02*
X11309523Y-35229976D01*
X10566666Y-35601404D02*
X10999999Y-34301404D01*
X10999999Y-34301404D02*
X11433333Y-35601404D01*
D10*
D11*
X11092857Y-84920452D02*
X11278571Y-84982357D01*
X11278571Y-84982357D02*
X11340476Y-85044261D01*
X11340476Y-85044261D02*
X11402380Y-85168071D01*
X11402380Y-85168071D02*
X11402380Y-85353785D01*
X11402380Y-85353785D02*
X11340476Y-85477595D01*
X11340476Y-85477595D02*
X11278571Y-85539500D01*
X11278571Y-85539500D02*
X11154761Y-85601404D01*
X11154761Y-85601404D02*
X10659523Y-85601404D01*
X10659523Y-85601404D02*
X10659523Y-84301404D01*
X10659523Y-84301404D02*
X11092857Y-84301404D01*
X11092857Y-84301404D02*
X11216666Y-84363309D01*
X11216666Y-84363309D02*
X11278571Y-84425214D01*
X11278571Y-84425214D02*
X11340476Y-84549023D01*
X11340476Y-84549023D02*
X11340476Y-84672833D01*
X11340476Y-84672833D02*
X11278571Y-84796642D01*
X11278571Y-84796642D02*
X11216666Y-84858547D01*
X11216666Y-84858547D02*
X11092857Y-84920452D01*
X11092857Y-84920452D02*
X10659523Y-84920452D01*
D10*
D11*
X11402380Y-135477595D02*
X11340476Y-135539500D01*
X11340476Y-135539500D02*
X11154761Y-135601404D01*
X11154761Y-135601404D02*
X11030952Y-135601404D01*
X11030952Y-135601404D02*
X10845238Y-135539500D01*
X10845238Y-135539500D02*
X10721428Y-135415690D01*
X10721428Y-135415690D02*
X10659523Y-135291880D01*
X10659523Y-135291880D02*
X10597619Y-135044261D01*
X10597619Y-135044261D02*
X10597619Y-134858547D01*
X10597619Y-134858547D02*
X10659523Y-134610928D01*
X10659523Y-134610928D02*
X10721428Y-134487119D01*
X10721428Y-134487119D02*
X10845238Y-134363309D01*
X10845238Y-134363309D02*
X11030952Y-134301404D01*
X11030952Y-134301404D02*
X11154761Y-134301404D01*
X11154761Y-134301404D02*
X11340476Y-134363309D01*
X11340476Y-134363309D02*
X11402380Y-134425214D01*
D10*
D11*
X10659523Y-185601404D02*
X10659523Y-184301404D01*
X10659523Y-184301404D02*
X10969047Y-184301404D01*
X10969047Y-184301404D02*
X11154761Y-184363309D01*
X11154761Y-184363309D02*
X11278571Y-184487119D01*
X11278571Y-184487119D02*
X11340476Y-184610928D01*
X11340476Y-184610928D02*
X11402380Y-184858547D01*
X11402380Y-184858547D02*
X11402380Y-185044261D01*
X11402380Y-185044261D02*
X11340476Y-185291880D01*
X11340476Y-185291880D02*
X11278571Y-185415690D01*
X11278571Y-185415690D02*
X11154761Y-185539500D01*
X11154761Y-185539500D02*
X10969047Y-185601404D01*
X10969047Y-185601404D02*
X10659523Y-185601404D01*
D10*
D11*
X287002200Y-60000000D02*
X285002200Y-60000000D01*
D10*
D11*
X287002200Y-110000000D02*
X285002200Y-110000000D01*
D10*
D11*
X287002200Y-160000000D02*
X285002200Y-160000000D01*
D10*
D11*
X285692676Y-35229976D02*
X286311723Y-35229976D01*
X285568866Y-35601404D02*
X286002199Y-34301404D01*
X286002199Y-34301404D02*
X286435533Y-35601404D01*
D10*
D11*
X286095057Y-84920452D02*
X286280771Y-84982357D01*
X286280771Y-84982357D02*
X286342676Y-85044261D01*
X286342676Y-85044261D02*
X286404580Y-85168071D01*
X286404580Y-85168071D02*
X286404580Y-85353785D01*
X286404580Y-85353785D02*
X286342676Y-85477595D01*
X286342676Y-85477595D02*
X286280771Y-85539500D01*
X286280771Y-85539500D02*
X286156961Y-85601404D01*
X286156961Y-85601404D02*
X285661723Y-85601404D01*
X285661723Y-85601404D02*
X285661723Y-84301404D01*
X285661723Y-84301404D02*
X286095057Y-84301404D01*
X286095057Y-84301404D02*
X286218866Y-84363309D01*
X286218866Y-84363309D02*
X286280771Y-84425214D01*
X286280771Y-84425214D02*
X286342676Y-84549023D01*
X286342676Y-84549023D02*
X286342676Y-84672833D01*
X286342676Y-84672833D02*
X286280771Y-84796642D01*
X286280771Y-84796642D02*
X286218866Y-84858547D01*
X286218866Y-84858547D02*
X286095057Y-84920452D01*
X286095057Y-84920452D02*
X285661723Y-84920452D01*
D10*
D11*
X286404580Y-135477595D02*
X286342676Y-135539500D01*
X286342676Y-135539500D02*
X286156961Y-135601404D01*
X286156961Y-135601404D02*
X286033152Y-135601404D01*
X286033152Y-135601404D02*
X285847438Y-135539500D01*
X285847438Y-135539500D02*
X285723628Y-135415690D01*
X285723628Y-135415690D02*
X285661723Y-135291880D01*
X285661723Y-135291880D02*
X285599819Y-135044261D01*
X285599819Y-135044261D02*
X285599819Y-134858547D01*
X285599819Y-134858547D02*
X285661723Y-134610928D01*
X285661723Y-134610928D02*
X285723628Y-134487119D01*
X285723628Y-134487119D02*
X285847438Y-134363309D01*
X285847438Y-134363309D02*
X286033152Y-134301404D01*
X286033152Y-134301404D02*
X286156961Y-134301404D01*
X286156961Y-134301404D02*
X286342676Y-134363309D01*
X286342676Y-134363309D02*
X286404580Y-134425214D01*
D10*
D11*
X285661723Y-185601404D02*
X285661723Y-184301404D01*
X285661723Y-184301404D02*
X285971247Y-184301404D01*
X285971247Y-184301404D02*
X286156961Y-184363309D01*
X286156961Y-184363309D02*
X286280771Y-184487119D01*
X286280771Y-184487119D02*
X286342676Y-184610928D01*
X286342676Y-184610928D02*
X286404580Y-184858547D01*
X286404580Y-184858547D02*
X286404580Y-185044261D01*
X286404580Y-185044261D02*
X286342676Y-185291880D01*
X286342676Y-185291880D02*
X286280771Y-185415690D01*
X286280771Y-185415690D02*
X286156961Y-185539500D01*
X286156961Y-185539500D02*
X285971247Y-185601404D01*
X285971247Y-185601404D02*
X285661723Y-185601404D01*
D10*
D11*
X200359342Y-193801128D02*
X200359342Y-192301128D01*
X200359342Y-192301128D02*
X200716485Y-192301128D01*
X200716485Y-192301128D02*
X200930771Y-192372557D01*
X200930771Y-192372557D02*
X201073628Y-192515414D01*
X201073628Y-192515414D02*
X201145057Y-192658271D01*
X201145057Y-192658271D02*
X201216485Y-192943985D01*
X201216485Y-192943985D02*
X201216485Y-193158271D01*
X201216485Y-193158271D02*
X201145057Y-193443985D01*
X201145057Y-193443985D02*
X201073628Y-193586842D01*
X201073628Y-193586842D02*
X200930771Y-193729700D01*
X200930771Y-193729700D02*
X200716485Y-193801128D01*
X200716485Y-193801128D02*
X200359342Y-193801128D01*
X202502200Y-193801128D02*
X202502200Y-193015414D01*
X202502200Y-193015414D02*
X202430771Y-192872557D01*
X202430771Y-192872557D02*
X202287914Y-192801128D01*
X202287914Y-192801128D02*
X202002200Y-192801128D01*
X202002200Y-192801128D02*
X201859342Y-192872557D01*
X202502200Y-193729700D02*
X202359342Y-193801128D01*
X202359342Y-193801128D02*
X202002200Y-193801128D01*
X202002200Y-193801128D02*
X201859342Y-193729700D01*
X201859342Y-193729700D02*
X201787914Y-193586842D01*
X201787914Y-193586842D02*
X201787914Y-193443985D01*
X201787914Y-193443985D02*
X201859342Y-193301128D01*
X201859342Y-193301128D02*
X202002200Y-193229700D01*
X202002200Y-193229700D02*
X202359342Y-193229700D01*
X202359342Y-193229700D02*
X202502200Y-193158271D01*
X203002200Y-192801128D02*
X203573628Y-192801128D01*
X203216485Y-192301128D02*
X203216485Y-193586842D01*
X203216485Y-193586842D02*
X203287914Y-193729700D01*
X203287914Y-193729700D02*
X203430771Y-193801128D01*
X203430771Y-193801128D02*
X203573628Y-193801128D01*
X204645057Y-193729700D02*
X204502200Y-193801128D01*
X204502200Y-193801128D02*
X204216486Y-193801128D01*
X204216486Y-193801128D02*
X204073628Y-193729700D01*
X204073628Y-193729700D02*
X204002200Y-193586842D01*
X204002200Y-193586842D02*
X204002200Y-193015414D01*
X204002200Y-193015414D02*
X204073628Y-192872557D01*
X204073628Y-192872557D02*
X204216486Y-192801128D01*
X204216486Y-192801128D02*
X204502200Y-192801128D01*
X204502200Y-192801128D02*
X204645057Y-192872557D01*
X204645057Y-192872557D02*
X204716486Y-193015414D01*
X204716486Y-193015414D02*
X204716486Y-193158271D01*
X204716486Y-193158271D02*
X204002200Y-193301128D01*
X205359342Y-193658271D02*
X205430771Y-193729700D01*
X205430771Y-193729700D02*
X205359342Y-193801128D01*
X205359342Y-193801128D02*
X205287914Y-193729700D01*
X205287914Y-193729700D02*
X205359342Y-193658271D01*
X205359342Y-193658271D02*
X205359342Y-193801128D01*
X205359342Y-192872557D02*
X205430771Y-192943985D01*
X205430771Y-192943985D02*
X205359342Y-193015414D01*
X205359342Y-193015414D02*
X205287914Y-192943985D01*
X205287914Y-192943985D02*
X205359342Y-192872557D01*
X205359342Y-192872557D02*
X205359342Y-193015414D01*
X207145057Y-192443985D02*
X207216485Y-192372557D01*
X207216485Y-192372557D02*
X207359343Y-192301128D01*
X207359343Y-192301128D02*
X207716485Y-192301128D01*
X207716485Y-192301128D02*
X207859343Y-192372557D01*
X207859343Y-192372557D02*
X207930771Y-192443985D01*
X207930771Y-192443985D02*
X208002200Y-192586842D01*
X208002200Y-192586842D02*
X208002200Y-192729700D01*
X208002200Y-192729700D02*
X207930771Y-192943985D01*
X207930771Y-192943985D02*
X207073628Y-193801128D01*
X207073628Y-193801128D02*
X208002200Y-193801128D01*
X208930771Y-192301128D02*
X209073628Y-192301128D01*
X209073628Y-192301128D02*
X209216485Y-192372557D01*
X209216485Y-192372557D02*
X209287914Y-192443985D01*
X209287914Y-192443985D02*
X209359342Y-192586842D01*
X209359342Y-192586842D02*
X209430771Y-192872557D01*
X209430771Y-192872557D02*
X209430771Y-193229700D01*
X209430771Y-193229700D02*
X209359342Y-193515414D01*
X209359342Y-193515414D02*
X209287914Y-193658271D01*
X209287914Y-193658271D02*
X209216485Y-193729700D01*
X209216485Y-193729700D02*
X209073628Y-193801128D01*
X209073628Y-193801128D02*
X208930771Y-193801128D01*
X208930771Y-193801128D02*
X208787914Y-193729700D01*
X208787914Y-193729700D02*
X208716485Y-193658271D01*
X208716485Y-193658271D02*
X208645056Y-193515414D01*
X208645056Y-193515414D02*
X208573628Y-193229700D01*
X208573628Y-193229700D02*
X208573628Y-192872557D01*
X208573628Y-192872557D02*
X208645056Y-192586842D01*
X208645056Y-192586842D02*
X208716485Y-192443985D01*
X208716485Y-192443985D02*
X208787914Y-192372557D01*
X208787914Y-192372557D02*
X208930771Y-192301128D01*
X210002199Y-192443985D02*
X210073627Y-192372557D01*
X210073627Y-192372557D02*
X210216485Y-192301128D01*
X210216485Y-192301128D02*
X210573627Y-192301128D01*
X210573627Y-192301128D02*
X210716485Y-192372557D01*
X210716485Y-192372557D02*
X210787913Y-192443985D01*
X210787913Y-192443985D02*
X210859342Y-192586842D01*
X210859342Y-192586842D02*
X210859342Y-192729700D01*
X210859342Y-192729700D02*
X210787913Y-192943985D01*
X210787913Y-192943985D02*
X209930770Y-193801128D01*
X209930770Y-193801128D02*
X210859342Y-193801128D01*
X211359341Y-192301128D02*
X212287913Y-192301128D01*
X212287913Y-192301128D02*
X211787913Y-192872557D01*
X211787913Y-192872557D02*
X212002198Y-192872557D01*
X212002198Y-192872557D02*
X212145056Y-192943985D01*
X212145056Y-192943985D02*
X212216484Y-193015414D01*
X212216484Y-193015414D02*
X212287913Y-193158271D01*
X212287913Y-193158271D02*
X212287913Y-193515414D01*
X212287913Y-193515414D02*
X212216484Y-193658271D01*
X212216484Y-193658271D02*
X212145056Y-193729700D01*
X212145056Y-193729700D02*
X212002198Y-193801128D01*
X212002198Y-193801128D02*
X211573627Y-193801128D01*
X211573627Y-193801128D02*
X211430770Y-193729700D01*
X211430770Y-193729700D02*
X211359341Y-193658271D01*
X212930769Y-193229700D02*
X214073627Y-193229700D01*
X215073627Y-192301128D02*
X215216484Y-192301128D01*
X215216484Y-192301128D02*
X215359341Y-192372557D01*
X215359341Y-192372557D02*
X215430770Y-192443985D01*
X215430770Y-192443985D02*
X215502198Y-192586842D01*
X215502198Y-192586842D02*
X215573627Y-192872557D01*
X215573627Y-192872557D02*
X215573627Y-193229700D01*
X215573627Y-193229700D02*
X215502198Y-193515414D01*
X215502198Y-193515414D02*
X215430770Y-193658271D01*
X215430770Y-193658271D02*
X215359341Y-193729700D01*
X215359341Y-193729700D02*
X215216484Y-193801128D01*
X215216484Y-193801128D02*
X215073627Y-193801128D01*
X215073627Y-193801128D02*
X214930770Y-193729700D01*
X214930770Y-193729700D02*
X214859341Y-193658271D01*
X214859341Y-193658271D02*
X214787912Y-193515414D01*
X214787912Y-193515414D02*
X214716484Y-193229700D01*
X214716484Y-193229700D02*
X214716484Y-192872557D01*
X214716484Y-192872557D02*
X214787912Y-192586842D01*
X214787912Y-192586842D02*
X214859341Y-192443985D01*
X214859341Y-192443985D02*
X214930770Y-192372557D01*
X214930770Y-192372557D02*
X215073627Y-192301128D01*
X216859341Y-192301128D02*
X216573626Y-192301128D01*
X216573626Y-192301128D02*
X216430769Y-192372557D01*
X216430769Y-192372557D02*
X216359341Y-192443985D01*
X216359341Y-192443985D02*
X216216483Y-192658271D01*
X216216483Y-192658271D02*
X216145055Y-192943985D01*
X216145055Y-192943985D02*
X216145055Y-193515414D01*
X216145055Y-193515414D02*
X216216483Y-193658271D01*
X216216483Y-193658271D02*
X216287912Y-193729700D01*
X216287912Y-193729700D02*
X216430769Y-193801128D01*
X216430769Y-193801128D02*
X216716483Y-193801128D01*
X216716483Y-193801128D02*
X216859341Y-193729700D01*
X216859341Y-193729700D02*
X216930769Y-193658271D01*
X216930769Y-193658271D02*
X217002198Y-193515414D01*
X217002198Y-193515414D02*
X217002198Y-193158271D01*
X217002198Y-193158271D02*
X216930769Y-193015414D01*
X216930769Y-193015414D02*
X216859341Y-192943985D01*
X216859341Y-192943985D02*
X216716483Y-192872557D01*
X216716483Y-192872557D02*
X216430769Y-192872557D01*
X216430769Y-192872557D02*
X216287912Y-192943985D01*
X216287912Y-192943985D02*
X216216483Y-193015414D01*
X216216483Y-193015414D02*
X216145055Y-193158271D01*
X217645054Y-193229700D02*
X218787912Y-193229700D01*
X219787912Y-192301128D02*
X219930769Y-192301128D01*
X219930769Y-192301128D02*
X220073626Y-192372557D01*
X220073626Y-192372557D02*
X220145055Y-192443985D01*
X220145055Y-192443985D02*
X220216483Y-192586842D01*
X220216483Y-192586842D02*
X220287912Y-192872557D01*
X220287912Y-192872557D02*
X220287912Y-193229700D01*
X220287912Y-193229700D02*
X220216483Y-193515414D01*
X220216483Y-193515414D02*
X220145055Y-193658271D01*
X220145055Y-193658271D02*
X220073626Y-193729700D01*
X220073626Y-193729700D02*
X219930769Y-193801128D01*
X219930769Y-193801128D02*
X219787912Y-193801128D01*
X219787912Y-193801128D02*
X219645055Y-193729700D01*
X219645055Y-193729700D02*
X219573626Y-193658271D01*
X219573626Y-193658271D02*
X219502197Y-193515414D01*
X219502197Y-193515414D02*
X219430769Y-193229700D01*
X219430769Y-193229700D02*
X219430769Y-192872557D01*
X219430769Y-192872557D02*
X219502197Y-192586842D01*
X219502197Y-192586842D02*
X219573626Y-192443985D01*
X219573626Y-192443985D02*
X219645055Y-192372557D01*
X219645055Y-192372557D02*
X219787912Y-192301128D01*
X221145054Y-192943985D02*
X221002197Y-192872557D01*
X221002197Y-192872557D02*
X220930768Y-192801128D01*
X220930768Y-192801128D02*
X220859340Y-192658271D01*
X220859340Y-192658271D02*
X220859340Y-192586842D01*
X220859340Y-192586842D02*
X220930768Y-192443985D01*
X220930768Y-192443985D02*
X221002197Y-192372557D01*
X221002197Y-192372557D02*
X221145054Y-192301128D01*
X221145054Y-192301128D02*
X221430768Y-192301128D01*
X221430768Y-192301128D02*
X221573626Y-192372557D01*
X221573626Y-192372557D02*
X221645054Y-192443985D01*
X221645054Y-192443985D02*
X221716483Y-192586842D01*
X221716483Y-192586842D02*
X221716483Y-192658271D01*
X221716483Y-192658271D02*
X221645054Y-192801128D01*
X221645054Y-192801128D02*
X221573626Y-192872557D01*
X221573626Y-192872557D02*
X221430768Y-192943985D01*
X221430768Y-192943985D02*
X221145054Y-192943985D01*
X221145054Y-192943985D02*
X221002197Y-193015414D01*
X221002197Y-193015414D02*
X220930768Y-193086842D01*
X220930768Y-193086842D02*
X220859340Y-193229700D01*
X220859340Y-193229700D02*
X220859340Y-193515414D01*
X220859340Y-193515414D02*
X220930768Y-193658271D01*
X220930768Y-193658271D02*
X221002197Y-193729700D01*
X221002197Y-193729700D02*
X221145054Y-193801128D01*
X221145054Y-193801128D02*
X221430768Y-193801128D01*
X221430768Y-193801128D02*
X221573626Y-193729700D01*
X221573626Y-193729700D02*
X221645054Y-193658271D01*
X221645054Y-193658271D02*
X221716483Y-193515414D01*
X221716483Y-193515414D02*
X221716483Y-193229700D01*
X221716483Y-193229700D02*
X221645054Y-193086842D01*
X221645054Y-193086842D02*
X221573626Y-193015414D01*
X221573626Y-193015414D02*
X221430768Y-192943985D01*
D10*
D11*
X177002200Y-194507200D02*
X285002200Y-194507200D01*
D10*
D11*
X178359342Y-196601128D02*
X178359342Y-195101128D01*
X179216485Y-196601128D02*
X178573628Y-195743985D01*
X179216485Y-195101128D02*
X178359342Y-195958271D01*
X179859342Y-196601128D02*
X179859342Y-195601128D01*
X179859342Y-195101128D02*
X179787914Y-195172557D01*
X179787914Y-195172557D02*
X179859342Y-195243985D01*
X179859342Y-195243985D02*
X179930771Y-195172557D01*
X179930771Y-195172557D02*
X179859342Y-195101128D01*
X179859342Y-195101128D02*
X179859342Y-195243985D01*
X181430771Y-196458271D02*
X181359343Y-196529700D01*
X181359343Y-196529700D02*
X181145057Y-196601128D01*
X181145057Y-196601128D02*
X181002200Y-196601128D01*
X181002200Y-196601128D02*
X180787914Y-196529700D01*
X180787914Y-196529700D02*
X180645057Y-196386842D01*
X180645057Y-196386842D02*
X180573628Y-196243985D01*
X180573628Y-196243985D02*
X180502200Y-195958271D01*
X180502200Y-195958271D02*
X180502200Y-195743985D01*
X180502200Y-195743985D02*
X180573628Y-195458271D01*
X180573628Y-195458271D02*
X180645057Y-195315414D01*
X180645057Y-195315414D02*
X180787914Y-195172557D01*
X180787914Y-195172557D02*
X181002200Y-195101128D01*
X181002200Y-195101128D02*
X181145057Y-195101128D01*
X181145057Y-195101128D02*
X181359343Y-195172557D01*
X181359343Y-195172557D02*
X181430771Y-195243985D01*
X182716486Y-196601128D02*
X182716486Y-195815414D01*
X182716486Y-195815414D02*
X182645057Y-195672557D01*
X182645057Y-195672557D02*
X182502200Y-195601128D01*
X182502200Y-195601128D02*
X182216486Y-195601128D01*
X182216486Y-195601128D02*
X182073628Y-195672557D01*
X182716486Y-196529700D02*
X182573628Y-196601128D01*
X182573628Y-196601128D02*
X182216486Y-196601128D01*
X182216486Y-196601128D02*
X182073628Y-196529700D01*
X182073628Y-196529700D02*
X182002200Y-196386842D01*
X182002200Y-196386842D02*
X182002200Y-196243985D01*
X182002200Y-196243985D02*
X182073628Y-196101128D01*
X182073628Y-196101128D02*
X182216486Y-196029700D01*
X182216486Y-196029700D02*
X182573628Y-196029700D01*
X182573628Y-196029700D02*
X182716486Y-195958271D01*
X184073629Y-196601128D02*
X184073629Y-195101128D01*
X184073629Y-196529700D02*
X183930771Y-196601128D01*
X183930771Y-196601128D02*
X183645057Y-196601128D01*
X183645057Y-196601128D02*
X183502200Y-196529700D01*
X183502200Y-196529700D02*
X183430771Y-196458271D01*
X183430771Y-196458271D02*
X183359343Y-196315414D01*
X183359343Y-196315414D02*
X183359343Y-195886842D01*
X183359343Y-195886842D02*
X183430771Y-195743985D01*
X183430771Y-195743985D02*
X183502200Y-195672557D01*
X183502200Y-195672557D02*
X183645057Y-195601128D01*
X183645057Y-195601128D02*
X183930771Y-195601128D01*
X183930771Y-195601128D02*
X184073629Y-195672557D01*
X185930771Y-195815414D02*
X186430771Y-195815414D01*
X186645057Y-196601128D02*
X185930771Y-196601128D01*
X185930771Y-196601128D02*
X185930771Y-195101128D01*
X185930771Y-195101128D02*
X186645057Y-195101128D01*
X187287914Y-196458271D02*
X187359343Y-196529700D01*
X187359343Y-196529700D02*
X187287914Y-196601128D01*
X187287914Y-196601128D02*
X187216486Y-196529700D01*
X187216486Y-196529700D02*
X187287914Y-196458271D01*
X187287914Y-196458271D02*
X187287914Y-196601128D01*
X188002200Y-196601128D02*
X188002200Y-195101128D01*
X188002200Y-195101128D02*
X188359343Y-195101128D01*
X188359343Y-195101128D02*
X188573629Y-195172557D01*
X188573629Y-195172557D02*
X188716486Y-195315414D01*
X188716486Y-195315414D02*
X188787915Y-195458271D01*
X188787915Y-195458271D02*
X188859343Y-195743985D01*
X188859343Y-195743985D02*
X188859343Y-195958271D01*
X188859343Y-195958271D02*
X188787915Y-196243985D01*
X188787915Y-196243985D02*
X188716486Y-196386842D01*
X188716486Y-196386842D02*
X188573629Y-196529700D01*
X188573629Y-196529700D02*
X188359343Y-196601128D01*
X188359343Y-196601128D02*
X188002200Y-196601128D01*
X189502200Y-196458271D02*
X189573629Y-196529700D01*
X189573629Y-196529700D02*
X189502200Y-196601128D01*
X189502200Y-196601128D02*
X189430772Y-196529700D01*
X189430772Y-196529700D02*
X189502200Y-196458271D01*
X189502200Y-196458271D02*
X189502200Y-196601128D01*
X190145058Y-196172557D02*
X190859344Y-196172557D01*
X190002201Y-196601128D02*
X190502201Y-195101128D01*
X190502201Y-195101128D02*
X191002201Y-196601128D01*
X191502200Y-196458271D02*
X191573629Y-196529700D01*
X191573629Y-196529700D02*
X191502200Y-196601128D01*
X191502200Y-196601128D02*
X191430772Y-196529700D01*
X191430772Y-196529700D02*
X191502200Y-196458271D01*
X191502200Y-196458271D02*
X191502200Y-196601128D01*
X194502200Y-195601128D02*
X194502200Y-197101128D01*
X194502200Y-195672557D02*
X194645058Y-195601128D01*
X194645058Y-195601128D02*
X194930772Y-195601128D01*
X194930772Y-195601128D02*
X195073629Y-195672557D01*
X195073629Y-195672557D02*
X195145058Y-195743985D01*
X195145058Y-195743985D02*
X195216486Y-195886842D01*
X195216486Y-195886842D02*
X195216486Y-196315414D01*
X195216486Y-196315414D02*
X195145058Y-196458271D01*
X195145058Y-196458271D02*
X195073629Y-196529700D01*
X195073629Y-196529700D02*
X194930772Y-196601128D01*
X194930772Y-196601128D02*
X194645058Y-196601128D01*
X194645058Y-196601128D02*
X194502200Y-196529700D01*
X196502201Y-196529700D02*
X196359343Y-196601128D01*
X196359343Y-196601128D02*
X196073629Y-196601128D01*
X196073629Y-196601128D02*
X195930772Y-196529700D01*
X195930772Y-196529700D02*
X195859343Y-196458271D01*
X195859343Y-196458271D02*
X195787915Y-196315414D01*
X195787915Y-196315414D02*
X195787915Y-195886842D01*
X195787915Y-195886842D02*
X195859343Y-195743985D01*
X195859343Y-195743985D02*
X195930772Y-195672557D01*
X195930772Y-195672557D02*
X196073629Y-195601128D01*
X196073629Y-195601128D02*
X196359343Y-195601128D01*
X196359343Y-195601128D02*
X196502201Y-195672557D01*
X197145057Y-196601128D02*
X197145057Y-195101128D01*
X197145057Y-195672557D02*
X197287915Y-195601128D01*
X197287915Y-195601128D02*
X197573629Y-195601128D01*
X197573629Y-195601128D02*
X197716486Y-195672557D01*
X197716486Y-195672557D02*
X197787915Y-195743985D01*
X197787915Y-195743985D02*
X197859343Y-195886842D01*
X197859343Y-195886842D02*
X197859343Y-196315414D01*
X197859343Y-196315414D02*
X197787915Y-196458271D01*
X197787915Y-196458271D02*
X197716486Y-196529700D01*
X197716486Y-196529700D02*
X197573629Y-196601128D01*
X197573629Y-196601128D02*
X197287915Y-196601128D01*
X197287915Y-196601128D02*
X197145057Y-196529700D01*
X198502200Y-195601128D02*
X198502200Y-196601128D01*
X198502200Y-195743985D02*
X198573629Y-195672557D01*
X198573629Y-195672557D02*
X198716486Y-195601128D01*
X198716486Y-195601128D02*
X198930772Y-195601128D01*
X198930772Y-195601128D02*
X199073629Y-195672557D01*
X199073629Y-195672557D02*
X199145058Y-195815414D01*
X199145058Y-195815414D02*
X199145058Y-196601128D01*
X200430772Y-196529700D02*
X200287915Y-196601128D01*
X200287915Y-196601128D02*
X200002201Y-196601128D01*
X200002201Y-196601128D02*
X199859343Y-196529700D01*
X199859343Y-196529700D02*
X199787915Y-196386842D01*
X199787915Y-196386842D02*
X199787915Y-195815414D01*
X199787915Y-195815414D02*
X199859343Y-195672557D01*
X199859343Y-195672557D02*
X200002201Y-195601128D01*
X200002201Y-195601128D02*
X200287915Y-195601128D01*
X200287915Y-195601128D02*
X200430772Y-195672557D01*
X200430772Y-195672557D02*
X200502201Y-195815414D01*
X200502201Y-195815414D02*
X200502201Y-195958271D01*
X200502201Y-195958271D02*
X199787915Y-196101128D01*
X201002200Y-195601128D02*
X201287915Y-196601128D01*
X201287915Y-196601128D02*
X201573629Y-195886842D01*
X201573629Y-195886842D02*
X201859343Y-196601128D01*
X201859343Y-196601128D02*
X202145057Y-195601128D01*
X203716486Y-195101128D02*
X204716486Y-195101128D01*
X204716486Y-195101128D02*
X204073629Y-196601128D01*
X205287914Y-196458271D02*
X205359343Y-196529700D01*
X205359343Y-196529700D02*
X205287914Y-196601128D01*
X205287914Y-196601128D02*
X205216486Y-196529700D01*
X205216486Y-196529700D02*
X205287914Y-196458271D01*
X205287914Y-196458271D02*
X205287914Y-196601128D01*
X206287915Y-195101128D02*
X206430772Y-195101128D01*
X206430772Y-195101128D02*
X206573629Y-195172557D01*
X206573629Y-195172557D02*
X206645058Y-195243985D01*
X206645058Y-195243985D02*
X206716486Y-195386842D01*
X206716486Y-195386842D02*
X206787915Y-195672557D01*
X206787915Y-195672557D02*
X206787915Y-196029700D01*
X206787915Y-196029700D02*
X206716486Y-196315414D01*
X206716486Y-196315414D02*
X206645058Y-196458271D01*
X206645058Y-196458271D02*
X206573629Y-196529700D01*
X206573629Y-196529700D02*
X206430772Y-196601128D01*
X206430772Y-196601128D02*
X206287915Y-196601128D01*
X206287915Y-196601128D02*
X206145058Y-196529700D01*
X206145058Y-196529700D02*
X206073629Y-196458271D01*
X206073629Y-196458271D02*
X206002200Y-196315414D01*
X206002200Y-196315414D02*
X205930772Y-196029700D01*
X205930772Y-196029700D02*
X205930772Y-195672557D01*
X205930772Y-195672557D02*
X206002200Y-195386842D01*
X206002200Y-195386842D02*
X206073629Y-195243985D01*
X206073629Y-195243985D02*
X206145058Y-195172557D01*
X206145058Y-195172557D02*
X206287915Y-195101128D01*
X207430771Y-196458271D02*
X207502200Y-196529700D01*
X207502200Y-196529700D02*
X207430771Y-196601128D01*
X207430771Y-196601128D02*
X207359343Y-196529700D01*
X207359343Y-196529700D02*
X207430771Y-196458271D01*
X207430771Y-196458271D02*
X207430771Y-196601128D01*
X208930772Y-196601128D02*
X208073629Y-196601128D01*
X208502200Y-196601128D02*
X208502200Y-195101128D01*
X208502200Y-195101128D02*
X208359343Y-195315414D01*
X208359343Y-195315414D02*
X208216486Y-195458271D01*
X208216486Y-195458271D02*
X208073629Y-195529700D01*
D10*
D11*
X177002200Y-191507200D02*
X285002200Y-191507200D01*
D10*
D12*
X264216485Y-193801128D02*
X263716485Y-193086842D01*
X263359342Y-193801128D02*
X263359342Y-192301128D01*
X263359342Y-192301128D02*
X263930771Y-192301128D01*
X263930771Y-192301128D02*
X264073628Y-192372557D01*
X264073628Y-192372557D02*
X264145057Y-192443985D01*
X264145057Y-192443985D02*
X264216485Y-192586842D01*
X264216485Y-192586842D02*
X264216485Y-192801128D01*
X264216485Y-192801128D02*
X264145057Y-192943985D01*
X264145057Y-192943985D02*
X264073628Y-193015414D01*
X264073628Y-193015414D02*
X263930771Y-193086842D01*
X263930771Y-193086842D02*
X263359342Y-193086842D01*
X265430771Y-193729700D02*
X265287914Y-193801128D01*
X265287914Y-193801128D02*
X265002200Y-193801128D01*
X265002200Y-193801128D02*
X264859342Y-193729700D01*
X264859342Y-193729700D02*
X264787914Y-193586842D01*
X264787914Y-193586842D02*
X264787914Y-193015414D01*
X264787914Y-193015414D02*
X264859342Y-192872557D01*
X264859342Y-192872557D02*
X265002200Y-192801128D01*
X265002200Y-192801128D02*
X265287914Y-192801128D01*
X265287914Y-192801128D02*
X265430771Y-192872557D01*
X265430771Y-192872557D02*
X265502200Y-193015414D01*
X265502200Y-193015414D02*
X265502200Y-193158271D01*
X265502200Y-193158271D02*
X264787914Y-193301128D01*
X266002199Y-192801128D02*
X266359342Y-193801128D01*
X266359342Y-193801128D02*
X266716485Y-192801128D01*
X267287913Y-193658271D02*
X267359342Y-193729700D01*
X267359342Y-193729700D02*
X267287913Y-193801128D01*
X267287913Y-193801128D02*
X267216485Y-193729700D01*
X267216485Y-193729700D02*
X267287913Y-193658271D01*
X267287913Y-193658271D02*
X267287913Y-193801128D01*
X267287913Y-192872557D02*
X267359342Y-192943985D01*
X267359342Y-192943985D02*
X267287913Y-193015414D01*
X267287913Y-193015414D02*
X267216485Y-192943985D01*
X267216485Y-192943985D02*
X267287913Y-192872557D01*
X267287913Y-192872557D02*
X267287913Y-193015414D01*
X268930771Y-192301128D02*
X269430771Y-193801128D01*
X269430771Y-193801128D02*
X269930771Y-192301128D01*
X271216485Y-193801128D02*
X270359342Y-193801128D01*
X270787913Y-193801128D02*
X270787913Y-192301128D01*
X270787913Y-192301128D02*
X270645056Y-192515414D01*
X270645056Y-192515414D02*
X270502199Y-192658271D01*
X270502199Y-192658271D02*
X270359342Y-192729700D01*
D10*
D11*
X178287914Y-193729700D02*
X178502200Y-193801128D01*
X178502200Y-193801128D02*
X178859342Y-193801128D01*
X178859342Y-193801128D02*
X179002200Y-193729700D01*
X179002200Y-193729700D02*
X179073628Y-193658271D01*
X179073628Y-193658271D02*
X179145057Y-193515414D01*
X179145057Y-193515414D02*
X179145057Y-193372557D01*
X179145057Y-193372557D02*
X179073628Y-193229700D01*
X179073628Y-193229700D02*
X179002200Y-193158271D01*
X179002200Y-193158271D02*
X178859342Y-193086842D01*
X178859342Y-193086842D02*
X178573628Y-193015414D01*
X178573628Y-193015414D02*
X178430771Y-192943985D01*
X178430771Y-192943985D02*
X178359342Y-192872557D01*
X178359342Y-192872557D02*
X178287914Y-192729700D01*
X178287914Y-192729700D02*
X178287914Y-192586842D01*
X178287914Y-192586842D02*
X178359342Y-192443985D01*
X178359342Y-192443985D02*
X178430771Y-192372557D01*
X178430771Y-192372557D02*
X178573628Y-192301128D01*
X178573628Y-192301128D02*
X178930771Y-192301128D01*
X178930771Y-192301128D02*
X179145057Y-192372557D01*
X179787913Y-193801128D02*
X179787913Y-192801128D01*
X179787913Y-192301128D02*
X179716485Y-192372557D01*
X179716485Y-192372557D02*
X179787913Y-192443985D01*
X179787913Y-192443985D02*
X179859342Y-192372557D01*
X179859342Y-192372557D02*
X179787913Y-192301128D01*
X179787913Y-192301128D02*
X179787913Y-192443985D01*
X180359342Y-192801128D02*
X181145057Y-192801128D01*
X181145057Y-192801128D02*
X180359342Y-193801128D01*
X180359342Y-193801128D02*
X181145057Y-193801128D01*
X182287914Y-193729700D02*
X182145057Y-193801128D01*
X182145057Y-193801128D02*
X181859343Y-193801128D01*
X181859343Y-193801128D02*
X181716485Y-193729700D01*
X181716485Y-193729700D02*
X181645057Y-193586842D01*
X181645057Y-193586842D02*
X181645057Y-193015414D01*
X181645057Y-193015414D02*
X181716485Y-192872557D01*
X181716485Y-192872557D02*
X181859343Y-192801128D01*
X181859343Y-192801128D02*
X182145057Y-192801128D01*
X182145057Y-192801128D02*
X182287914Y-192872557D01*
X182287914Y-192872557D02*
X182359343Y-193015414D01*
X182359343Y-193015414D02*
X182359343Y-193158271D01*
X182359343Y-193158271D02*
X181645057Y-193301128D01*
X183002199Y-193658271D02*
X183073628Y-193729700D01*
X183073628Y-193729700D02*
X183002199Y-193801128D01*
X183002199Y-193801128D02*
X182930771Y-193729700D01*
X182930771Y-193729700D02*
X183002199Y-193658271D01*
X183002199Y-193658271D02*
X183002199Y-193801128D01*
X183002199Y-192872557D02*
X183073628Y-192943985D01*
X183073628Y-192943985D02*
X183002199Y-193015414D01*
X183002199Y-193015414D02*
X182930771Y-192943985D01*
X182930771Y-192943985D02*
X183002199Y-192872557D01*
X183002199Y-192872557D02*
X183002199Y-193015414D01*
X184787914Y-193372557D02*
X185502200Y-193372557D01*
X184645057Y-193801128D02*
X185145057Y-192301128D01*
X185145057Y-192301128D02*
X185645057Y-193801128D01*
X186787914Y-192801128D02*
X186787914Y-193801128D01*
X186430771Y-192229700D02*
X186073628Y-193301128D01*
X186073628Y-193301128D02*
X187002199Y-193301128D01*
D10*
D11*
X263359342Y-196601128D02*
X263359342Y-195101128D01*
X264716486Y-196601128D02*
X264716486Y-195101128D01*
X264716486Y-196529700D02*
X264573628Y-196601128D01*
X264573628Y-196601128D02*
X264287914Y-196601128D01*
X264287914Y-196601128D02*
X264145057Y-196529700D01*
X264145057Y-196529700D02*
X264073628Y-196458271D01*
X264073628Y-196458271D02*
X264002200Y-196315414D01*
X264002200Y-196315414D02*
X264002200Y-195886842D01*
X264002200Y-195886842D02*
X264073628Y-195743985D01*
X264073628Y-195743985D02*
X264145057Y-195672557D01*
X264145057Y-195672557D02*
X264287914Y-195601128D01*
X264287914Y-195601128D02*
X264573628Y-195601128D01*
X264573628Y-195601128D02*
X264716486Y-195672557D01*
X265430771Y-196458271D02*
X265502200Y-196529700D01*
X265502200Y-196529700D02*
X265430771Y-196601128D01*
X265430771Y-196601128D02*
X265359343Y-196529700D01*
X265359343Y-196529700D02*
X265430771Y-196458271D01*
X265430771Y-196458271D02*
X265430771Y-196601128D01*
X265430771Y-195672557D02*
X265502200Y-195743985D01*
X265502200Y-195743985D02*
X265430771Y-195815414D01*
X265430771Y-195815414D02*
X265359343Y-195743985D01*
X265359343Y-195743985D02*
X265430771Y-195672557D01*
X265430771Y-195672557D02*
X265430771Y-195815414D01*
X268073629Y-196601128D02*
X267216486Y-196601128D01*
X267645057Y-196601128D02*
X267645057Y-195101128D01*
X267645057Y-195101128D02*
X267502200Y-195315414D01*
X267502200Y-195315414D02*
X267359343Y-195458271D01*
X267359343Y-195458271D02*
X267216486Y-195529700D01*
X269787914Y-195029700D02*
X268502200Y-196958271D01*
X271073629Y-196601128D02*
X270216486Y-196601128D01*
X270645057Y-196601128D02*
X270645057Y-195101128D01*
X270645057Y-195101128D02*
X270502200Y-195315414D01*
X270502200Y-195315414D02*
X270359343Y-195458271D01*
X270359343Y-195458271D02*
X270216486Y-195529700D01*
D10*
D11*
X177002200Y-187507200D02*
X285002200Y-187507200D01*
D10*
D13*
X178430771Y-188232438D02*
X179573628Y-188232438D01*
X178752200Y-190232438D02*
X179002200Y-188232438D01*
X179978390Y-190232438D02*
X180145057Y-188899104D01*
X180228390Y-188232438D02*
X180121247Y-188327676D01*
X180121247Y-188327676D02*
X180204581Y-188422914D01*
X180204581Y-188422914D02*
X180311724Y-188327676D01*
X180311724Y-188327676D02*
X180228390Y-188232438D01*
X180228390Y-188232438D02*
X180204581Y-188422914D01*
X180799819Y-188899104D02*
X181561723Y-188899104D01*
X181168866Y-188232438D02*
X180954581Y-189946723D01*
X180954581Y-189946723D02*
X181026009Y-190137200D01*
X181026009Y-190137200D02*
X181204581Y-190232438D01*
X181204581Y-190232438D02*
X181395057Y-190232438D01*
X182335533Y-190232438D02*
X182156961Y-190137200D01*
X182156961Y-190137200D02*
X182085533Y-189946723D01*
X182085533Y-189946723D02*
X182299818Y-188232438D01*
X183859342Y-190137200D02*
X183656961Y-190232438D01*
X183656961Y-190232438D02*
X183276008Y-190232438D01*
X183276008Y-190232438D02*
X183097437Y-190137200D01*
X183097437Y-190137200D02*
X183026008Y-189946723D01*
X183026008Y-189946723D02*
X183121247Y-189184819D01*
X183121247Y-189184819D02*
X183240294Y-188994342D01*
X183240294Y-188994342D02*
X183442675Y-188899104D01*
X183442675Y-188899104D02*
X183823627Y-188899104D01*
X183823627Y-188899104D02*
X184002199Y-188994342D01*
X184002199Y-188994342D02*
X184073627Y-189184819D01*
X184073627Y-189184819D02*
X184049818Y-189375295D01*
X184049818Y-189375295D02*
X183073627Y-189565771D01*
X184811723Y-190041961D02*
X184895056Y-190137200D01*
X184895056Y-190137200D02*
X184787913Y-190232438D01*
X184787913Y-190232438D02*
X184704580Y-190137200D01*
X184704580Y-190137200D02*
X184811723Y-190041961D01*
X184811723Y-190041961D02*
X184787913Y-190232438D01*
X184942675Y-188994342D02*
X185026008Y-189089580D01*
X185026008Y-189089580D02*
X184918866Y-189184819D01*
X184918866Y-189184819D02*
X184835532Y-189089580D01*
X184835532Y-189089580D02*
X184942675Y-188994342D01*
X184942675Y-188994342D02*
X184918866Y-189184819D01*
X187252199Y-190232438D02*
X187502199Y-188232438D01*
X187502199Y-188232438D02*
X187978390Y-188232438D01*
X187978390Y-188232438D02*
X188252199Y-188327676D01*
X188252199Y-188327676D02*
X188418866Y-188518152D01*
X188418866Y-188518152D02*
X188490294Y-188708628D01*
X188490294Y-188708628D02*
X188537914Y-189089580D01*
X188537914Y-189089580D02*
X188502199Y-189375295D01*
X188502199Y-189375295D02*
X188359342Y-189756247D01*
X188359342Y-189756247D02*
X188240294Y-189946723D01*
X188240294Y-189946723D02*
X188026009Y-190137200D01*
X188026009Y-190137200D02*
X187728390Y-190232438D01*
X187728390Y-190232438D02*
X187252199Y-190232438D01*
X190014104Y-190137200D02*
X189811723Y-190232438D01*
X189811723Y-190232438D02*
X189430770Y-190232438D01*
X189430770Y-190232438D02*
X189252199Y-190137200D01*
X189252199Y-190137200D02*
X189180770Y-189946723D01*
X189180770Y-189946723D02*
X189276009Y-189184819D01*
X189276009Y-189184819D02*
X189395056Y-188994342D01*
X189395056Y-188994342D02*
X189597437Y-188899104D01*
X189597437Y-188899104D02*
X189978389Y-188899104D01*
X189978389Y-188899104D02*
X190156961Y-188994342D01*
X190156961Y-188994342D02*
X190228389Y-189184819D01*
X190228389Y-189184819D02*
X190204580Y-189375295D01*
X190204580Y-189375295D02*
X189228389Y-189565771D01*
X190918866Y-188899104D02*
X191228390Y-190232438D01*
X191228390Y-190232438D02*
X191871247Y-188899104D01*
X191954580Y-190422914D02*
X193478390Y-190422914D01*
X193942675Y-190232438D02*
X194192675Y-188232438D01*
X194192675Y-188232438D02*
X194680770Y-189661009D01*
X194680770Y-189661009D02*
X195526009Y-188232438D01*
X195526009Y-188232438D02*
X195276009Y-190232438D01*
X197383152Y-190041961D02*
X197276009Y-190137200D01*
X197276009Y-190137200D02*
X196978390Y-190232438D01*
X196978390Y-190232438D02*
X196787914Y-190232438D01*
X196787914Y-190232438D02*
X196514104Y-190137200D01*
X196514104Y-190137200D02*
X196347438Y-189946723D01*
X196347438Y-189946723D02*
X196276009Y-189756247D01*
X196276009Y-189756247D02*
X196228390Y-189375295D01*
X196228390Y-189375295D02*
X196264104Y-189089580D01*
X196264104Y-189089580D02*
X196406961Y-188708628D01*
X196406961Y-188708628D02*
X196526009Y-188518152D01*
X196526009Y-188518152D02*
X196740295Y-188327676D01*
X196740295Y-188327676D02*
X197037914Y-188232438D01*
X197037914Y-188232438D02*
X197228390Y-188232438D01*
X197228390Y-188232438D02*
X197502200Y-188327676D01*
X197502200Y-188327676D02*
X197585533Y-188422914D01*
X198454580Y-188232438D02*
X198252199Y-189851485D01*
X198252199Y-189851485D02*
X198323628Y-190041961D01*
X198323628Y-190041961D02*
X198406961Y-190137200D01*
X198406961Y-190137200D02*
X198585533Y-190232438D01*
X198585533Y-190232438D02*
X198966485Y-190232438D01*
X198966485Y-190232438D02*
X199168866Y-190137200D01*
X199168866Y-190137200D02*
X199276009Y-190041961D01*
X199276009Y-190041961D02*
X199395056Y-189851485D01*
X199395056Y-189851485D02*
X199597437Y-188232438D01*
X199787913Y-190422914D02*
X201311723Y-190422914D01*
X202573627Y-189184819D02*
X202847437Y-189280057D01*
X202847437Y-189280057D02*
X202930770Y-189375295D01*
X202930770Y-189375295D02*
X203002199Y-189565771D01*
X203002199Y-189565771D02*
X202966484Y-189851485D01*
X202966484Y-189851485D02*
X202847437Y-190041961D01*
X202847437Y-190041961D02*
X202740294Y-190137200D01*
X202740294Y-190137200D02*
X202537913Y-190232438D01*
X202537913Y-190232438D02*
X201776008Y-190232438D01*
X201776008Y-190232438D02*
X202026008Y-188232438D01*
X202026008Y-188232438D02*
X202692675Y-188232438D01*
X202692675Y-188232438D02*
X202871246Y-188327676D01*
X202871246Y-188327676D02*
X202954580Y-188422914D01*
X202954580Y-188422914D02*
X203026008Y-188613390D01*
X203026008Y-188613390D02*
X203002199Y-188803866D01*
X203002199Y-188803866D02*
X202883151Y-188994342D01*
X202883151Y-188994342D02*
X202776008Y-189089580D01*
X202776008Y-189089580D02*
X202573627Y-189184819D01*
X202573627Y-189184819D02*
X201906961Y-189184819D01*
X204049818Y-190232438D02*
X203871246Y-190137200D01*
X203871246Y-190137200D02*
X203787913Y-190041961D01*
X203787913Y-190041961D02*
X203716484Y-189851485D01*
X203716484Y-189851485D02*
X203787913Y-189280057D01*
X203787913Y-189280057D02*
X203906960Y-189089580D01*
X203906960Y-189089580D02*
X204014103Y-188994342D01*
X204014103Y-188994342D02*
X204216484Y-188899104D01*
X204216484Y-188899104D02*
X204502198Y-188899104D01*
X204502198Y-188899104D02*
X204680770Y-188994342D01*
X204680770Y-188994342D02*
X204764103Y-189089580D01*
X204764103Y-189089580D02*
X204835532Y-189280057D01*
X204835532Y-189280057D02*
X204764103Y-189851485D01*
X204764103Y-189851485D02*
X204645056Y-190041961D01*
X204645056Y-190041961D02*
X204537913Y-190137200D01*
X204537913Y-190137200D02*
X204335532Y-190232438D01*
X204335532Y-190232438D02*
X204049818Y-190232438D01*
X206418865Y-190232438D02*
X206549817Y-189184819D01*
X206549817Y-189184819D02*
X206478389Y-188994342D01*
X206478389Y-188994342D02*
X206299817Y-188899104D01*
X206299817Y-188899104D02*
X205918865Y-188899104D01*
X205918865Y-188899104D02*
X205716484Y-188994342D01*
X206430770Y-190137200D02*
X206228389Y-190232438D01*
X206228389Y-190232438D02*
X205752198Y-190232438D01*
X205752198Y-190232438D02*
X205573627Y-190137200D01*
X205573627Y-190137200D02*
X205502198Y-189946723D01*
X205502198Y-189946723D02*
X205526008Y-189756247D01*
X205526008Y-189756247D02*
X205645056Y-189565771D01*
X205645056Y-189565771D02*
X205847437Y-189470533D01*
X205847437Y-189470533D02*
X206323627Y-189470533D01*
X206323627Y-189470533D02*
X206526008Y-189375295D01*
X207359341Y-190232438D02*
X207526008Y-188899104D01*
X207478389Y-189280057D02*
X207597436Y-189089580D01*
X207597436Y-189089580D02*
X207704579Y-188994342D01*
X207704579Y-188994342D02*
X207906960Y-188899104D01*
X207906960Y-188899104D02*
X208097436Y-188899104D01*
X209442674Y-190232438D02*
X209692674Y-188232438D01*
X209454579Y-190137200D02*
X209252198Y-190232438D01*
X209252198Y-190232438D02*
X208871246Y-190232438D01*
X208871246Y-190232438D02*
X208692674Y-190137200D01*
X208692674Y-190137200D02*
X208609341Y-190041961D01*
X208609341Y-190041961D02*
X208537912Y-189851485D01*
X208537912Y-189851485D02*
X208609341Y-189280057D01*
X208609341Y-189280057D02*
X208728388Y-189089580D01*
X208728388Y-189089580D02*
X208835531Y-188994342D01*
X208835531Y-188994342D02*
X209037912Y-188899104D01*
X209037912Y-188899104D02*
X209418865Y-188899104D01*
X209418865Y-188899104D02*
X209597436Y-188994342D01*
D10*
D11*
X178859342Y-185615414D02*
X178359342Y-185615414D01*
X178359342Y-186401128D02*
X178359342Y-184901128D01*
X178359342Y-184901128D02*
X179073628Y-184901128D01*
X179645056Y-186401128D02*
X179645056Y-185401128D01*
X179645056Y-184901128D02*
X179573628Y-184972557D01*
X179573628Y-184972557D02*
X179645056Y-185043985D01*
X179645056Y-185043985D02*
X179716485Y-184972557D01*
X179716485Y-184972557D02*
X179645056Y-184901128D01*
X179645056Y-184901128D02*
X179645056Y-185043985D01*
X180573628Y-186401128D02*
X180430771Y-186329700D01*
X180430771Y-186329700D02*
X180359342Y-186186842D01*
X180359342Y-186186842D02*
X180359342Y-184901128D01*
X181716485Y-186329700D02*
X181573628Y-186401128D01*
X181573628Y-186401128D02*
X181287914Y-186401128D01*
X181287914Y-186401128D02*
X181145056Y-186329700D01*
X181145056Y-186329700D02*
X181073628Y-186186842D01*
X181073628Y-186186842D02*
X181073628Y-185615414D01*
X181073628Y-185615414D02*
X181145056Y-185472557D01*
X181145056Y-185472557D02*
X181287914Y-185401128D01*
X181287914Y-185401128D02*
X181573628Y-185401128D01*
X181573628Y-185401128D02*
X181716485Y-185472557D01*
X181716485Y-185472557D02*
X181787914Y-185615414D01*
X181787914Y-185615414D02*
X181787914Y-185758271D01*
X181787914Y-185758271D02*
X181073628Y-185901128D01*
X182430770Y-186258271D02*
X182502199Y-186329700D01*
X182502199Y-186329700D02*
X182430770Y-186401128D01*
X182430770Y-186401128D02*
X182359342Y-186329700D01*
X182359342Y-186329700D02*
X182430770Y-186258271D01*
X182430770Y-186258271D02*
X182430770Y-186401128D01*
X182430770Y-185472557D02*
X182502199Y-185543985D01*
X182502199Y-185543985D02*
X182430770Y-185615414D01*
X182430770Y-185615414D02*
X182359342Y-185543985D01*
X182359342Y-185543985D02*
X182430770Y-185472557D01*
X182430770Y-185472557D02*
X182430770Y-185615414D01*
X183930771Y-186543985D02*
X185073628Y-186543985D01*
X186073628Y-186401128D02*
X186073628Y-185615414D01*
X186073628Y-185615414D02*
X186002199Y-185472557D01*
X186002199Y-185472557D02*
X185859342Y-185401128D01*
X185859342Y-185401128D02*
X185573628Y-185401128D01*
X185573628Y-185401128D02*
X185430770Y-185472557D01*
X186073628Y-186329700D02*
X185930770Y-186401128D01*
X185930770Y-186401128D02*
X185573628Y-186401128D01*
X185573628Y-186401128D02*
X185430770Y-186329700D01*
X185430770Y-186329700D02*
X185359342Y-186186842D01*
X185359342Y-186186842D02*
X185359342Y-186043985D01*
X185359342Y-186043985D02*
X185430770Y-185901128D01*
X185430770Y-185901128D02*
X185573628Y-185829700D01*
X185573628Y-185829700D02*
X185930770Y-185829700D01*
X185930770Y-185829700D02*
X186073628Y-185758271D01*
X187430771Y-185401128D02*
X187430771Y-186401128D01*
X186787913Y-185401128D02*
X186787913Y-186186842D01*
X186787913Y-186186842D02*
X186859342Y-186329700D01*
X186859342Y-186329700D02*
X187002199Y-186401128D01*
X187002199Y-186401128D02*
X187216485Y-186401128D01*
X187216485Y-186401128D02*
X187359342Y-186329700D01*
X187359342Y-186329700D02*
X187430771Y-186258271D01*
X187930771Y-185401128D02*
X188502199Y-185401128D01*
X188145056Y-184901128D02*
X188145056Y-186186842D01*
X188145056Y-186186842D02*
X188216485Y-186329700D01*
X188216485Y-186329700D02*
X188359342Y-186401128D01*
X188359342Y-186401128D02*
X188502199Y-186401128D01*
X189216485Y-186401128D02*
X189073628Y-186329700D01*
X189073628Y-186329700D02*
X189002199Y-186258271D01*
X189002199Y-186258271D02*
X188930771Y-186115414D01*
X188930771Y-186115414D02*
X188930771Y-185686842D01*
X188930771Y-185686842D02*
X189002199Y-185543985D01*
X189002199Y-185543985D02*
X189073628Y-185472557D01*
X189073628Y-185472557D02*
X189216485Y-185401128D01*
X189216485Y-185401128D02*
X189430771Y-185401128D01*
X189430771Y-185401128D02*
X189573628Y-185472557D01*
X189573628Y-185472557D02*
X189645057Y-185543985D01*
X189645057Y-185543985D02*
X189716485Y-185686842D01*
X189716485Y-185686842D02*
X189716485Y-186115414D01*
X189716485Y-186115414D02*
X189645057Y-186258271D01*
X189645057Y-186258271D02*
X189573628Y-186329700D01*
X189573628Y-186329700D02*
X189430771Y-186401128D01*
X189430771Y-186401128D02*
X189216485Y-186401128D01*
X190287914Y-186329700D02*
X190430771Y-186401128D01*
X190430771Y-186401128D02*
X190716485Y-186401128D01*
X190716485Y-186401128D02*
X190859342Y-186329700D01*
X190859342Y-186329700D02*
X190930771Y-186186842D01*
X190930771Y-186186842D02*
X190930771Y-186115414D01*
X190930771Y-186115414D02*
X190859342Y-185972557D01*
X190859342Y-185972557D02*
X190716485Y-185901128D01*
X190716485Y-185901128D02*
X190502200Y-185901128D01*
X190502200Y-185901128D02*
X190359342Y-185829700D01*
X190359342Y-185829700D02*
X190287914Y-185686842D01*
X190287914Y-185686842D02*
X190287914Y-185615414D01*
X190287914Y-185615414D02*
X190359342Y-185472557D01*
X190359342Y-185472557D02*
X190502200Y-185401128D01*
X190502200Y-185401128D02*
X190716485Y-185401128D01*
X190716485Y-185401128D02*
X190859342Y-185472557D01*
X192216486Y-186401128D02*
X192216486Y-185615414D01*
X192216486Y-185615414D02*
X192145057Y-185472557D01*
X192145057Y-185472557D02*
X192002200Y-185401128D01*
X192002200Y-185401128D02*
X191716486Y-185401128D01*
X191716486Y-185401128D02*
X191573628Y-185472557D01*
X192216486Y-186329700D02*
X192073628Y-186401128D01*
X192073628Y-186401128D02*
X191716486Y-186401128D01*
X191716486Y-186401128D02*
X191573628Y-186329700D01*
X191573628Y-186329700D02*
X191502200Y-186186842D01*
X191502200Y-186186842D02*
X191502200Y-186043985D01*
X191502200Y-186043985D02*
X191573628Y-185901128D01*
X191573628Y-185901128D02*
X191716486Y-185829700D01*
X191716486Y-185829700D02*
X192073628Y-185829700D01*
X192073628Y-185829700D02*
X192216486Y-185758271D01*
X192787914Y-185401128D02*
X193145057Y-186401128D01*
X193145057Y-186401128D02*
X193502200Y-185401128D01*
X194645057Y-186329700D02*
X194502200Y-186401128D01*
X194502200Y-186401128D02*
X194216486Y-186401128D01*
X194216486Y-186401128D02*
X194073628Y-186329700D01*
X194073628Y-186329700D02*
X194002200Y-186186842D01*
X194002200Y-186186842D02*
X194002200Y-185615414D01*
X194002200Y-185615414D02*
X194073628Y-185472557D01*
X194073628Y-185472557D02*
X194216486Y-185401128D01*
X194216486Y-185401128D02*
X194502200Y-185401128D01*
X194502200Y-185401128D02*
X194645057Y-185472557D01*
X194645057Y-185472557D02*
X194716486Y-185615414D01*
X194716486Y-185615414D02*
X194716486Y-185758271D01*
X194716486Y-185758271D02*
X194002200Y-185901128D01*
X195359342Y-185829700D02*
X196502200Y-185829700D01*
X197216485Y-186401128D02*
X197216485Y-185401128D01*
X197216485Y-185543985D02*
X197287914Y-185472557D01*
X197287914Y-185472557D02*
X197430771Y-185401128D01*
X197430771Y-185401128D02*
X197645057Y-185401128D01*
X197645057Y-185401128D02*
X197787914Y-185472557D01*
X197787914Y-185472557D02*
X197859343Y-185615414D01*
X197859343Y-185615414D02*
X197859343Y-186401128D01*
X197859343Y-185615414D02*
X197930771Y-185472557D01*
X197930771Y-185472557D02*
X198073628Y-185401128D01*
X198073628Y-185401128D02*
X198287914Y-185401128D01*
X198287914Y-185401128D02*
X198430771Y-185472557D01*
X198430771Y-185472557D02*
X198502200Y-185615414D01*
X198502200Y-185615414D02*
X198502200Y-186401128D01*
X199216485Y-186401128D02*
X199216485Y-185401128D01*
X199216485Y-184901128D02*
X199145057Y-184972557D01*
X199145057Y-184972557D02*
X199216485Y-185043985D01*
X199216485Y-185043985D02*
X199287914Y-184972557D01*
X199287914Y-184972557D02*
X199216485Y-184901128D01*
X199216485Y-184901128D02*
X199216485Y-185043985D01*
X200573629Y-186329700D02*
X200430771Y-186401128D01*
X200430771Y-186401128D02*
X200145057Y-186401128D01*
X200145057Y-186401128D02*
X200002200Y-186329700D01*
X200002200Y-186329700D02*
X199930771Y-186258271D01*
X199930771Y-186258271D02*
X199859343Y-186115414D01*
X199859343Y-186115414D02*
X199859343Y-185686842D01*
X199859343Y-185686842D02*
X199930771Y-185543985D01*
X199930771Y-185543985D02*
X200002200Y-185472557D01*
X200002200Y-185472557D02*
X200145057Y-185401128D01*
X200145057Y-185401128D02*
X200430771Y-185401128D01*
X200430771Y-185401128D02*
X200573629Y-185472557D01*
X201216485Y-186401128D02*
X201216485Y-185401128D01*
X201216485Y-185686842D02*
X201287914Y-185543985D01*
X201287914Y-185543985D02*
X201359343Y-185472557D01*
X201359343Y-185472557D02*
X201502200Y-185401128D01*
X201502200Y-185401128D02*
X201645057Y-185401128D01*
X202359342Y-186401128D02*
X202216485Y-186329700D01*
X202216485Y-186329700D02*
X202145056Y-186258271D01*
X202145056Y-186258271D02*
X202073628Y-186115414D01*
X202073628Y-186115414D02*
X202073628Y-185686842D01*
X202073628Y-185686842D02*
X202145056Y-185543985D01*
X202145056Y-185543985D02*
X202216485Y-185472557D01*
X202216485Y-185472557D02*
X202359342Y-185401128D01*
X202359342Y-185401128D02*
X202573628Y-185401128D01*
X202573628Y-185401128D02*
X202716485Y-185472557D01*
X202716485Y-185472557D02*
X202787914Y-185543985D01*
X202787914Y-185543985D02*
X202859342Y-185686842D01*
X202859342Y-185686842D02*
X202859342Y-186115414D01*
X202859342Y-186115414D02*
X202787914Y-186258271D01*
X202787914Y-186258271D02*
X202716485Y-186329700D01*
X202716485Y-186329700D02*
X202573628Y-186401128D01*
X202573628Y-186401128D02*
X202359342Y-186401128D01*
X203502199Y-186401128D02*
X203502199Y-184901128D01*
X203502199Y-185472557D02*
X203645057Y-185401128D01*
X203645057Y-185401128D02*
X203930771Y-185401128D01*
X203930771Y-185401128D02*
X204073628Y-185472557D01*
X204073628Y-185472557D02*
X204145057Y-185543985D01*
X204145057Y-185543985D02*
X204216485Y-185686842D01*
X204216485Y-185686842D02*
X204216485Y-186115414D01*
X204216485Y-186115414D02*
X204145057Y-186258271D01*
X204145057Y-186258271D02*
X204073628Y-186329700D01*
X204073628Y-186329700D02*
X203930771Y-186401128D01*
X203930771Y-186401128D02*
X203645057Y-186401128D01*
X203645057Y-186401128D02*
X203502199Y-186329700D01*
X205073628Y-186401128D02*
X204930771Y-186329700D01*
X204930771Y-186329700D02*
X204859342Y-186258271D01*
X204859342Y-186258271D02*
X204787914Y-186115414D01*
X204787914Y-186115414D02*
X204787914Y-185686842D01*
X204787914Y-185686842D02*
X204859342Y-185543985D01*
X204859342Y-185543985D02*
X204930771Y-185472557D01*
X204930771Y-185472557D02*
X205073628Y-185401128D01*
X205073628Y-185401128D02*
X205287914Y-185401128D01*
X205287914Y-185401128D02*
X205430771Y-185472557D01*
X205430771Y-185472557D02*
X205502200Y-185543985D01*
X205502200Y-185543985D02*
X205573628Y-185686842D01*
X205573628Y-185686842D02*
X205573628Y-186115414D01*
X205573628Y-186115414D02*
X205502200Y-186258271D01*
X205502200Y-186258271D02*
X205430771Y-186329700D01*
X205430771Y-186329700D02*
X205287914Y-186401128D01*
X205287914Y-186401128D02*
X205073628Y-186401128D01*
X206859343Y-186401128D02*
X206859343Y-185615414D01*
X206859343Y-185615414D02*
X206787914Y-185472557D01*
X206787914Y-185472557D02*
X206645057Y-185401128D01*
X206645057Y-185401128D02*
X206359343Y-185401128D01*
X206359343Y-185401128D02*
X206216485Y-185472557D01*
X206859343Y-186329700D02*
X206716485Y-186401128D01*
X206716485Y-186401128D02*
X206359343Y-186401128D01*
X206359343Y-186401128D02*
X206216485Y-186329700D01*
X206216485Y-186329700D02*
X206145057Y-186186842D01*
X206145057Y-186186842D02*
X206145057Y-186043985D01*
X206145057Y-186043985D02*
X206216485Y-185901128D01*
X206216485Y-185901128D02*
X206359343Y-185829700D01*
X206359343Y-185829700D02*
X206716485Y-185829700D01*
X206716485Y-185829700D02*
X206859343Y-185758271D01*
X207573628Y-186401128D02*
X207573628Y-185401128D01*
X207573628Y-185686842D02*
X207645057Y-185543985D01*
X207645057Y-185543985D02*
X207716486Y-185472557D01*
X207716486Y-185472557D02*
X207859343Y-185401128D01*
X207859343Y-185401128D02*
X208002200Y-185401128D01*
X209145057Y-186401128D02*
X209145057Y-184901128D01*
X209145057Y-186329700D02*
X209002199Y-186401128D01*
X209002199Y-186401128D02*
X208716485Y-186401128D01*
X208716485Y-186401128D02*
X208573628Y-186329700D01*
X208573628Y-186329700D02*
X208502199Y-186258271D01*
X208502199Y-186258271D02*
X208430771Y-186115414D01*
X208430771Y-186115414D02*
X208430771Y-185686842D01*
X208430771Y-185686842D02*
X208502199Y-185543985D01*
X208502199Y-185543985D02*
X208573628Y-185472557D01*
X208573628Y-185472557D02*
X208716485Y-185401128D01*
X208716485Y-185401128D02*
X209002199Y-185401128D01*
X209002199Y-185401128D02*
X209145057Y-185472557D01*
X209859342Y-186258271D02*
X209930771Y-186329700D01*
X209930771Y-186329700D02*
X209859342Y-186401128D01*
X209859342Y-186401128D02*
X209787914Y-186329700D01*
X209787914Y-186329700D02*
X209859342Y-186258271D01*
X209859342Y-186258271D02*
X209859342Y-186401128D01*
X210573628Y-186401128D02*
X210573628Y-184901128D01*
X210716486Y-185829700D02*
X211145057Y-186401128D01*
X211145057Y-185401128D02*
X210573628Y-185972557D01*
X211787914Y-186401128D02*
X211787914Y-185401128D01*
X211787914Y-184901128D02*
X211716486Y-184972557D01*
X211716486Y-184972557D02*
X211787914Y-185043985D01*
X211787914Y-185043985D02*
X211859343Y-184972557D01*
X211859343Y-184972557D02*
X211787914Y-184901128D01*
X211787914Y-184901128D02*
X211787914Y-185043985D01*
X213145058Y-186329700D02*
X213002200Y-186401128D01*
X213002200Y-186401128D02*
X212716486Y-186401128D01*
X212716486Y-186401128D02*
X212573629Y-186329700D01*
X212573629Y-186329700D02*
X212502200Y-186258271D01*
X212502200Y-186258271D02*
X212430772Y-186115414D01*
X212430772Y-186115414D02*
X212430772Y-185686842D01*
X212430772Y-185686842D02*
X212502200Y-185543985D01*
X212502200Y-185543985D02*
X212573629Y-185472557D01*
X212573629Y-185472557D02*
X212716486Y-185401128D01*
X212716486Y-185401128D02*
X213002200Y-185401128D01*
X213002200Y-185401128D02*
X213145058Y-185472557D01*
X214430772Y-186401128D02*
X214430772Y-185615414D01*
X214430772Y-185615414D02*
X214359343Y-185472557D01*
X214359343Y-185472557D02*
X214216486Y-185401128D01*
X214216486Y-185401128D02*
X213930772Y-185401128D01*
X213930772Y-185401128D02*
X213787914Y-185472557D01*
X214430772Y-186329700D02*
X214287914Y-186401128D01*
X214287914Y-186401128D02*
X213930772Y-186401128D01*
X213930772Y-186401128D02*
X213787914Y-186329700D01*
X213787914Y-186329700D02*
X213716486Y-186186842D01*
X213716486Y-186186842D02*
X213716486Y-186043985D01*
X213716486Y-186043985D02*
X213787914Y-185901128D01*
X213787914Y-185901128D02*
X213930772Y-185829700D01*
X213930772Y-185829700D02*
X214287914Y-185829700D01*
X214287914Y-185829700D02*
X214430772Y-185758271D01*
X215787915Y-186401128D02*
X215787915Y-184901128D01*
X215787915Y-186329700D02*
X215645057Y-186401128D01*
X215645057Y-186401128D02*
X215359343Y-186401128D01*
X215359343Y-186401128D02*
X215216486Y-186329700D01*
X215216486Y-186329700D02*
X215145057Y-186258271D01*
X215145057Y-186258271D02*
X215073629Y-186115414D01*
X215073629Y-186115414D02*
X215073629Y-185686842D01*
X215073629Y-185686842D02*
X215145057Y-185543985D01*
X215145057Y-185543985D02*
X215216486Y-185472557D01*
X215216486Y-185472557D02*
X215359343Y-185401128D01*
X215359343Y-185401128D02*
X215645057Y-185401128D01*
X215645057Y-185401128D02*
X215787915Y-185472557D01*
X216145058Y-186543985D02*
X217287915Y-186543985D01*
X217645057Y-185401128D02*
X217645057Y-186901128D01*
X217645057Y-185472557D02*
X217787915Y-185401128D01*
X217787915Y-185401128D02*
X218073629Y-185401128D01*
X218073629Y-185401128D02*
X218216486Y-185472557D01*
X218216486Y-185472557D02*
X218287915Y-185543985D01*
X218287915Y-185543985D02*
X218359343Y-185686842D01*
X218359343Y-185686842D02*
X218359343Y-186115414D01*
X218359343Y-186115414D02*
X218287915Y-186258271D01*
X218287915Y-186258271D02*
X218216486Y-186329700D01*
X218216486Y-186329700D02*
X218073629Y-186401128D01*
X218073629Y-186401128D02*
X217787915Y-186401128D01*
X217787915Y-186401128D02*
X217645057Y-186329700D01*
X219645058Y-186329700D02*
X219502200Y-186401128D01*
X219502200Y-186401128D02*
X219216486Y-186401128D01*
X219216486Y-186401128D02*
X219073629Y-186329700D01*
X219073629Y-186329700D02*
X219002200Y-186258271D01*
X219002200Y-186258271D02*
X218930772Y-186115414D01*
X218930772Y-186115414D02*
X218930772Y-185686842D01*
X218930772Y-185686842D02*
X219002200Y-185543985D01*
X219002200Y-185543985D02*
X219073629Y-185472557D01*
X219073629Y-185472557D02*
X219216486Y-185401128D01*
X219216486Y-185401128D02*
X219502200Y-185401128D01*
X219502200Y-185401128D02*
X219645058Y-185472557D01*
X220287914Y-186401128D02*
X220287914Y-184901128D01*
X220287914Y-185472557D02*
X220430772Y-185401128D01*
X220430772Y-185401128D02*
X220716486Y-185401128D01*
X220716486Y-185401128D02*
X220859343Y-185472557D01*
X220859343Y-185472557D02*
X220930772Y-185543985D01*
X220930772Y-185543985D02*
X221002200Y-185686842D01*
X221002200Y-185686842D02*
X221002200Y-186115414D01*
X221002200Y-186115414D02*
X220930772Y-186258271D01*
X220930772Y-186258271D02*
X220859343Y-186329700D01*
X220859343Y-186329700D02*
X220716486Y-186401128D01*
X220716486Y-186401128D02*
X220430772Y-186401128D01*
X220430772Y-186401128D02*
X220287914Y-186329700D01*
D10*
D11*
X177002200Y-181507200D02*
X285002200Y-181507200D01*
D10*
D11*
X178287914Y-183629700D02*
X178502200Y-183701128D01*
X178502200Y-183701128D02*
X178859342Y-183701128D01*
X178859342Y-183701128D02*
X179002200Y-183629700D01*
X179002200Y-183629700D02*
X179073628Y-183558271D01*
X179073628Y-183558271D02*
X179145057Y-183415414D01*
X179145057Y-183415414D02*
X179145057Y-183272557D01*
X179145057Y-183272557D02*
X179073628Y-183129700D01*
X179073628Y-183129700D02*
X179002200Y-183058271D01*
X179002200Y-183058271D02*
X178859342Y-182986842D01*
X178859342Y-182986842D02*
X178573628Y-182915414D01*
X178573628Y-182915414D02*
X178430771Y-182843985D01*
X178430771Y-182843985D02*
X178359342Y-182772557D01*
X178359342Y-182772557D02*
X178287914Y-182629700D01*
X178287914Y-182629700D02*
X178287914Y-182486842D01*
X178287914Y-182486842D02*
X178359342Y-182343985D01*
X178359342Y-182343985D02*
X178430771Y-182272557D01*
X178430771Y-182272557D02*
X178573628Y-182201128D01*
X178573628Y-182201128D02*
X178930771Y-182201128D01*
X178930771Y-182201128D02*
X179145057Y-182272557D01*
X179787913Y-183701128D02*
X179787913Y-182201128D01*
X180430771Y-183701128D02*
X180430771Y-182915414D01*
X180430771Y-182915414D02*
X180359342Y-182772557D01*
X180359342Y-182772557D02*
X180216485Y-182701128D01*
X180216485Y-182701128D02*
X180002199Y-182701128D01*
X180002199Y-182701128D02*
X179859342Y-182772557D01*
X179859342Y-182772557D02*
X179787913Y-182843985D01*
X181716485Y-183629700D02*
X181573628Y-183701128D01*
X181573628Y-183701128D02*
X181287914Y-183701128D01*
X181287914Y-183701128D02*
X181145056Y-183629700D01*
X181145056Y-183629700D02*
X181073628Y-183486842D01*
X181073628Y-183486842D02*
X181073628Y-182915414D01*
X181073628Y-182915414D02*
X181145056Y-182772557D01*
X181145056Y-182772557D02*
X181287914Y-182701128D01*
X181287914Y-182701128D02*
X181573628Y-182701128D01*
X181573628Y-182701128D02*
X181716485Y-182772557D01*
X181716485Y-182772557D02*
X181787914Y-182915414D01*
X181787914Y-182915414D02*
X181787914Y-183058271D01*
X181787914Y-183058271D02*
X181073628Y-183201128D01*
X183002199Y-183629700D02*
X182859342Y-183701128D01*
X182859342Y-183701128D02*
X182573628Y-183701128D01*
X182573628Y-183701128D02*
X182430770Y-183629700D01*
X182430770Y-183629700D02*
X182359342Y-183486842D01*
X182359342Y-183486842D02*
X182359342Y-182915414D01*
X182359342Y-182915414D02*
X182430770Y-182772557D01*
X182430770Y-182772557D02*
X182573628Y-182701128D01*
X182573628Y-182701128D02*
X182859342Y-182701128D01*
X182859342Y-182701128D02*
X183002199Y-182772557D01*
X183002199Y-182772557D02*
X183073628Y-182915414D01*
X183073628Y-182915414D02*
X183073628Y-183058271D01*
X183073628Y-183058271D02*
X182359342Y-183201128D01*
X183502199Y-182701128D02*
X184073627Y-182701128D01*
X183716484Y-182201128D02*
X183716484Y-183486842D01*
X183716484Y-183486842D02*
X183787913Y-183629700D01*
X183787913Y-183629700D02*
X183930770Y-183701128D01*
X183930770Y-183701128D02*
X184073627Y-183701128D01*
X184573627Y-183558271D02*
X184645056Y-183629700D01*
X184645056Y-183629700D02*
X184573627Y-183701128D01*
X184573627Y-183701128D02*
X184502199Y-183629700D01*
X184502199Y-183629700D02*
X184573627Y-183558271D01*
X184573627Y-183558271D02*
X184573627Y-183701128D01*
X184573627Y-182772557D02*
X184645056Y-182843985D01*
X184645056Y-182843985D02*
X184573627Y-182915414D01*
X184573627Y-182915414D02*
X184502199Y-182843985D01*
X184502199Y-182843985D02*
X184573627Y-182772557D01*
X184573627Y-182772557D02*
X184573627Y-182915414D01*
D10*
D12*
X178287914Y-180272557D02*
X179002200Y-180272557D01*
X178145057Y-180701128D02*
X178645057Y-179201128D01*
X178645057Y-179201128D02*
X179145057Y-180701128D01*
X179859342Y-180701128D02*
X179716485Y-180629700D01*
X179716485Y-180629700D02*
X179645056Y-180486842D01*
X179645056Y-180486842D02*
X179645056Y-179201128D01*
X180430770Y-180701128D02*
X180430770Y-179201128D01*
X180430770Y-179772557D02*
X180573628Y-179701128D01*
X180573628Y-179701128D02*
X180859342Y-179701128D01*
X180859342Y-179701128D02*
X181002199Y-179772557D01*
X181002199Y-179772557D02*
X181073628Y-179843985D01*
X181073628Y-179843985D02*
X181145056Y-179986842D01*
X181145056Y-179986842D02*
X181145056Y-180415414D01*
X181145056Y-180415414D02*
X181073628Y-180558271D01*
X181073628Y-180558271D02*
X181002199Y-180629700D01*
X181002199Y-180629700D02*
X180859342Y-180701128D01*
X180859342Y-180701128D02*
X180573628Y-180701128D01*
X180573628Y-180701128D02*
X180430770Y-180629700D01*
X182359342Y-180629700D02*
X182216485Y-180701128D01*
X182216485Y-180701128D02*
X181930771Y-180701128D01*
X181930771Y-180701128D02*
X181787913Y-180629700D01*
X181787913Y-180629700D02*
X181716485Y-180486842D01*
X181716485Y-180486842D02*
X181716485Y-179915414D01*
X181716485Y-179915414D02*
X181787913Y-179772557D01*
X181787913Y-179772557D02*
X181930771Y-179701128D01*
X181930771Y-179701128D02*
X182216485Y-179701128D01*
X182216485Y-179701128D02*
X182359342Y-179772557D01*
X182359342Y-179772557D02*
X182430771Y-179915414D01*
X182430771Y-179915414D02*
X182430771Y-180058271D01*
X182430771Y-180058271D02*
X181716485Y-180201128D01*
X183073627Y-180701128D02*
X183073627Y-179701128D01*
X183073627Y-179986842D02*
X183145056Y-179843985D01*
X183145056Y-179843985D02*
X183216485Y-179772557D01*
X183216485Y-179772557D02*
X183359342Y-179701128D01*
X183359342Y-179701128D02*
X183502199Y-179701128D01*
X183787913Y-179701128D02*
X184359341Y-179701128D01*
X184002198Y-179201128D02*
X184002198Y-180486842D01*
X184002198Y-180486842D02*
X184073627Y-180629700D01*
X184073627Y-180629700D02*
X184216484Y-180701128D01*
X184216484Y-180701128D02*
X184359341Y-180701128D01*
D10*
D11*
D10*
D11*
D10*
D11*
D10*
D11*
D10*
D11*
X197002200Y-191507200D02*
X197002200Y-194507200D01*
D10*
D11*
X261002200Y-191507200D02*
X261002200Y-198007200D01*
D14*
%TO.C,J8*%
X158554525Y-91150840D03*
D15*
X158554525Y-88610840D03*
X158554525Y-86070840D03*
X158554525Y-83530840D03*
X158554525Y-80990840D03*
X158554525Y-78450840D03*
X158554525Y-75910840D03*
X158554525Y-73370840D03*
X158554525Y-70830840D03*
X158554525Y-68290840D03*
%TD*%
D16*
%TO.C,L2*%
X102078981Y-67430000D03*
X102078981Y-69730000D03*
%TD*%
D17*
%TO.C,U2*%
X115420000Y-106470000D03*
X115420000Y-106970000D03*
X115420000Y-107470000D03*
X115420000Y-107970000D03*
X115420000Y-108470000D03*
X115420000Y-108970000D03*
X115420000Y-109470000D03*
X115420000Y-109970000D03*
X115420000Y-110470000D03*
X115420000Y-110970000D03*
X115420000Y-111470000D03*
X115420000Y-111970000D03*
D18*
X117370000Y-113920000D03*
X117870000Y-113920000D03*
X118370000Y-113920000D03*
X118870000Y-113920000D03*
X119370000Y-113920000D03*
X119870000Y-113920000D03*
X120370000Y-113920000D03*
X120870000Y-113920000D03*
X121370000Y-113920000D03*
X121870000Y-113920000D03*
X122370000Y-113920000D03*
X122870000Y-113920000D03*
D17*
X124820000Y-111970000D03*
X124820000Y-111470000D03*
X124820000Y-110970000D03*
X124820000Y-110470000D03*
X124820000Y-109970000D03*
X124820000Y-109470000D03*
X124820000Y-108970000D03*
X124820000Y-108470000D03*
X124820000Y-107970000D03*
X124820000Y-107470000D03*
X124820000Y-106970000D03*
X124820000Y-106470000D03*
D18*
X122870000Y-104520000D03*
X122370000Y-104520000D03*
X121870000Y-104520000D03*
X121370000Y-104520000D03*
X120870000Y-104520000D03*
X120370000Y-104520000D03*
X119870000Y-104520000D03*
X119370000Y-104520000D03*
X118870000Y-104520000D03*
X118370000Y-104520000D03*
X117870000Y-104520000D03*
X117370000Y-104520000D03*
%TD*%
D19*
%TO.C,H2*%
X93276301Y-68373777D03*
%TD*%
D14*
%TO.C,J39*%
X185119103Y-68393454D03*
D15*
X185119103Y-70933454D03*
X185119103Y-73473454D03*
X185119103Y-76013454D03*
X185119103Y-78553454D03*
X185119103Y-81093454D03*
X185119103Y-83633454D03*
X185119103Y-86173454D03*
X185119103Y-88713454D03*
X185119103Y-91253454D03*
%TD*%
D14*
%TO.C,J45*%
X206021604Y-96417832D03*
D15*
X208561604Y-96417832D03*
X206021604Y-98957832D03*
X208561604Y-98957832D03*
X206021604Y-101497832D03*
X208561604Y-101497832D03*
X206021604Y-104037832D03*
X208561604Y-104037832D03*
X206021604Y-106577832D03*
X208561604Y-106577832D03*
X206021604Y-109117832D03*
X208561604Y-109117832D03*
X206021604Y-111657832D03*
X208561604Y-111657832D03*
X206021604Y-114197832D03*
X208561604Y-114197832D03*
X206021604Y-116737832D03*
X208561604Y-116737832D03*
X206021604Y-119277832D03*
X208561604Y-119277832D03*
%TD*%
D20*
%TO.C,R1*%
X145520000Y-67580000D03*
X145520000Y-69580000D03*
%TD*%
D21*
%TO.C,C13*%
X100032500Y-86360000D03*
X102107500Y-86360000D03*
%TD*%
D22*
%TO.C,R9*%
X127765000Y-118110000D03*
X129765000Y-118110000D03*
%TD*%
D23*
%TO.C,SW1*%
X176454155Y-122130272D03*
X176454155Y-115630272D03*
X180954155Y-122130272D03*
X180954155Y-115630272D03*
%TD*%
D21*
%TO.C,C10*%
X122133940Y-119626921D03*
X124208940Y-119626921D03*
%TD*%
D24*
%TO.C,D6*%
X101070000Y-73680000D03*
X101070000Y-76180000D03*
%TD*%
D14*
%TO.C,J17*%
X172057452Y-118818153D03*
%TD*%
D25*
%TO.C,R6*%
X113270649Y-98145779D03*
X111270649Y-98145779D03*
%TD*%
D26*
%TO.C,C1*%
X153140000Y-78972500D03*
X153140000Y-81047500D03*
%TD*%
D20*
%TO.C,R10*%
X140752948Y-89226445D03*
X140752948Y-91226445D03*
%TD*%
D14*
%TO.C,J21*%
X196222739Y-123980998D03*
%TD*%
D27*
%TO.C,J4*%
X95753385Y-73977888D03*
X95753385Y-74827888D03*
X95753385Y-75677888D03*
X95753385Y-76527888D03*
X95753385Y-77377888D03*
X95753385Y-78227888D03*
X95753385Y-79077888D03*
X95753385Y-79927888D03*
X94403385Y-79927888D03*
X94403385Y-79077888D03*
X94403385Y-78227888D03*
X94403385Y-77377888D03*
X94403385Y-76527888D03*
X94403385Y-75677888D03*
X94403385Y-74827888D03*
X94403385Y-73977888D03*
D28*
X91393385Y-72627888D03*
X91393385Y-81277888D03*
D29*
X94773385Y-72627888D03*
X94773385Y-81277888D03*
%TD*%
D22*
%TO.C,R4*%
X154680000Y-113262500D03*
X156680000Y-113262500D03*
%TD*%
D30*
%TO.C,BAR1*%
X171460671Y-68288818D03*
D31*
X171460671Y-70828818D03*
X171460671Y-73368818D03*
X171460671Y-75908818D03*
X171460671Y-78448818D03*
X171460671Y-80988818D03*
X171460671Y-83528818D03*
X171460671Y-86068818D03*
X171460671Y-88608818D03*
X171460671Y-91148818D03*
X179080671Y-91148818D03*
X179080671Y-88608818D03*
X179080671Y-86068818D03*
X179080671Y-83528818D03*
X179080671Y-80988818D03*
X179080671Y-78448818D03*
X179080671Y-75908818D03*
X179080671Y-73368818D03*
X179080671Y-70828818D03*
X179080671Y-68288818D03*
%TD*%
D32*
%TO.C,U3*%
X117580000Y-69850000D03*
D33*
X120120000Y-69850000D03*
X122660000Y-69850000D03*
%TD*%
D21*
%TO.C,C15*%
X105112500Y-68580000D03*
X107187500Y-68580000D03*
%TD*%
D34*
%TO.C,SW7*%
X160760000Y-100410000D03*
D23*
X160760000Y-105410000D03*
X160760000Y-102910000D03*
D35*
X168260000Y-97310000D03*
X168260000Y-108510000D03*
D23*
X175260000Y-105410000D03*
X175260000Y-100410000D03*
%TD*%
D36*
%TO.C,D7*%
X134870000Y-118110000D03*
X132820000Y-118110000D03*
%TD*%
D26*
%TO.C,C6*%
X107420000Y-113262500D03*
X107420000Y-115337500D03*
%TD*%
D37*
%TO.C,U1*%
X100120000Y-81147500D03*
X101070000Y-81147500D03*
X102020000Y-81147500D03*
X102020000Y-78872500D03*
X101070000Y-78872500D03*
X100120000Y-78872500D03*
%TD*%
D25*
%TO.C,R3*%
X99800000Y-67161222D03*
X97800000Y-67161222D03*
%TD*%
D19*
%TO.C,H3*%
X93370216Y-129454984D03*
%TD*%
D21*
%TO.C,C7*%
X120443511Y-98388292D03*
X122518511Y-98388292D03*
%TD*%
D22*
%TO.C,R18*%
X166354128Y-78491299D03*
X168354128Y-78491299D03*
%TD*%
%TO.C,R15*%
X166354128Y-70871299D03*
X168354128Y-70871299D03*
%TD*%
D20*
%TO.C,R2*%
X127740000Y-67905000D03*
X127740000Y-69905000D03*
%TD*%
D21*
%TO.C,C12*%
X105112500Y-76200000D03*
X107187500Y-76200000D03*
%TD*%
D14*
%TO.C,J9*%
X153140000Y-86360000D03*
%TD*%
D21*
%TO.C,C2*%
X105596352Y-109741145D03*
X107671352Y-109741145D03*
%TD*%
D38*
%TO.C,C11*%
X119310335Y-119714538D03*
X117235335Y-119714538D03*
%TD*%
D39*
%TO.C,L1*%
X104630388Y-116715643D03*
X104630388Y-114415643D03*
%TD*%
D22*
%TO.C,R20*%
X166354128Y-83571299D03*
X168354128Y-83571299D03*
%TD*%
D40*
%TO.C,RV1*%
X168340000Y-122890000D03*
D41*
X165840000Y-117890000D03*
X163340000Y-122890000D03*
%TD*%
D42*
%TO.C,D1*%
X153140000Y-76180000D03*
X153140000Y-73680000D03*
%TD*%
D14*
%TO.C,J5*%
X111230000Y-81270000D03*
D15*
X111230000Y-78730000D03*
X111230000Y-76190000D03*
X111230000Y-73650000D03*
%TD*%
D14*
%TO.C,J10*%
X183187228Y-110490000D03*
%TD*%
D38*
%TO.C,C17*%
X119887500Y-77470000D03*
X117812500Y-77470000D03*
%TD*%
D14*
%TO.C,J15*%
X153140000Y-128270000D03*
D15*
X155680000Y-128270000D03*
X158220000Y-128270000D03*
%TD*%
D22*
%TO.C,R22*%
X166354128Y-88651299D03*
X168354128Y-88651299D03*
%TD*%
D14*
%TO.C,J40*%
X200473694Y-68344242D03*
D15*
X200473694Y-70884242D03*
X200473694Y-73424242D03*
X200473694Y-75964242D03*
X200473694Y-78504242D03*
X200473694Y-81044242D03*
X200473694Y-83584242D03*
X200473694Y-86124242D03*
X200473694Y-88664242D03*
X200473694Y-91204242D03*
%TD*%
D43*
%TO.C,J7*%
X107420000Y-102870000D03*
D44*
X107420000Y-101600000D03*
X108690000Y-102870000D03*
X108690000Y-101600000D03*
X109960000Y-102870000D03*
X109960000Y-101600000D03*
X111230000Y-102870000D03*
X111230000Y-101600000D03*
X112500000Y-102870000D03*
X112500000Y-101600000D03*
%TD*%
D38*
%TO.C,C18*%
X119887500Y-80010000D03*
X117812500Y-80010000D03*
%TD*%
D14*
%TO.C,J43*%
X131550000Y-88900000D03*
D15*
X131550000Y-91440000D03*
X129010000Y-88900000D03*
X129010000Y-91440000D03*
X126470000Y-88900000D03*
X126470000Y-91440000D03*
X123930000Y-88900000D03*
X123930000Y-91440000D03*
X121390000Y-88900000D03*
X121390000Y-91440000D03*
X118850000Y-88900000D03*
X118850000Y-91440000D03*
X116310000Y-88900000D03*
X116310000Y-91440000D03*
X113770000Y-88900000D03*
X113770000Y-91440000D03*
X111230000Y-88900000D03*
X111230000Y-91440000D03*
X108690000Y-88900000D03*
X108690000Y-91440000D03*
%TD*%
D23*
%TO.C,SW2*%
X179937228Y-101681971D03*
X186437228Y-101681971D03*
X179937228Y-106181971D03*
X186437228Y-106181971D03*
%TD*%
D22*
%TO.C,R7*%
X105150000Y-82550000D03*
X107150000Y-82550000D03*
%TD*%
D32*
%TO.C,U7*%
X135360000Y-69850000D03*
D33*
X137900000Y-69850000D03*
X140440000Y-69850000D03*
%TD*%
D14*
%TO.C,J11*%
X185326011Y-118917543D03*
%TD*%
D22*
%TO.C,R16*%
X166354128Y-73411299D03*
X168354128Y-73411299D03*
%TD*%
D14*
%TO.C,J22*%
X207652739Y-123980998D03*
%TD*%
%TO.C,J14*%
X163632069Y-128139663D03*
D15*
X166172069Y-128139663D03*
X168712069Y-128139663D03*
X171252069Y-128139663D03*
X173792069Y-128139663D03*
X176332069Y-128139663D03*
X178872069Y-128139663D03*
X181412069Y-128139663D03*
X183952069Y-128139663D03*
X186492069Y-128139663D03*
X189032069Y-128139663D03*
X191572069Y-128139663D03*
%TD*%
D14*
%TO.C,J2*%
X145520000Y-118110000D03*
D15*
X142980000Y-118110000D03*
X145520000Y-115570000D03*
X142980000Y-115570000D03*
X145520000Y-113030000D03*
X142980000Y-113030000D03*
X145520000Y-110490000D03*
X142980000Y-110490000D03*
X145520000Y-107950000D03*
X142980000Y-107950000D03*
X145520000Y-105410000D03*
X142980000Y-105410000D03*
X145520000Y-102870000D03*
X142980000Y-102870000D03*
X145520000Y-100330000D03*
X142980000Y-100330000D03*
X145520000Y-97790000D03*
X142980000Y-97790000D03*
X145520000Y-95250000D03*
X142980000Y-95250000D03*
%TD*%
D45*
%TO.C,D5*%
X140440000Y-86115000D03*
X140440000Y-84065000D03*
%TD*%
D46*
%TO.C,D8*%
X146770000Y-78740000D03*
X144270000Y-78740000D03*
%TD*%
D47*
%TO.C,Y1*%
X109960000Y-106325000D03*
X109960000Y-109575000D03*
%TD*%
D14*
%TO.C,J13*%
X153140000Y-69850000D03*
%TD*%
%TO.C,J41*%
X192703747Y-68418732D03*
D15*
X192703747Y-70958732D03*
X192703747Y-73498732D03*
X192703747Y-76038732D03*
X192703747Y-78578732D03*
X192703747Y-81118732D03*
X192703747Y-83658732D03*
X192703747Y-86198732D03*
X192703747Y-88738732D03*
X192703747Y-91278732D03*
%TD*%
D38*
%TO.C,C20*%
X141477500Y-81280000D03*
X139402500Y-81280000D03*
%TD*%
D22*
%TO.C,R23*%
X166354128Y-91191299D03*
X168354128Y-91191299D03*
%TD*%
D48*
%TO.C,R5*%
X154410000Y-118072500D03*
X154410000Y-116072500D03*
%TD*%
D26*
%TO.C,C5*%
X111230000Y-113262500D03*
X111230000Y-115337500D03*
%TD*%
D19*
%TO.C,H1*%
X207750000Y-68580000D03*
%TD*%
D38*
%TO.C,C16*%
X141477500Y-78740000D03*
X139402500Y-78740000D03*
%TD*%
D22*
%TO.C,R14*%
X166354128Y-68331299D03*
X168354128Y-68331299D03*
%TD*%
%TO.C,R17*%
X166354128Y-75951299D03*
X168354128Y-75951299D03*
%TD*%
D49*
%TO.C,D3*%
X130280000Y-67880000D03*
X130280000Y-69930000D03*
%TD*%
D45*
%TO.C,D8*%
X144250000Y-86115000D03*
X144250000Y-84065000D03*
%TD*%
D50*
%TO.C,C19*%
X156950000Y-118110000D03*
X156950000Y-116035000D03*
%TD*%
D49*
%TO.C,D2*%
X148060000Y-67555000D03*
X148060000Y-69605000D03*
%TD*%
D14*
%TO.C,J18*%
X183187228Y-97051971D03*
%TD*%
D22*
%TO.C,R8*%
X105150000Y-80010000D03*
X107150000Y-80010000D03*
%TD*%
%TO.C,R4*%
X138170000Y-127000000D03*
X140170000Y-127000000D03*
%TD*%
D38*
%TO.C,C8*%
X112500000Y-69850000D03*
X110425000Y-69850000D03*
%TD*%
D21*
%TO.C,C14*%
X105112500Y-73660000D03*
X107187500Y-73660000D03*
%TD*%
D14*
%TO.C,J44*%
X190188043Y-96520000D03*
D15*
X192728043Y-96520000D03*
X190188043Y-99060000D03*
X192728043Y-99060000D03*
X190188043Y-101600000D03*
X192728043Y-101600000D03*
X190188043Y-104140000D03*
X192728043Y-104140000D03*
X190188043Y-106680000D03*
X192728043Y-106680000D03*
X190188043Y-109220000D03*
X192728043Y-109220000D03*
X190188043Y-111760000D03*
X192728043Y-111760000D03*
X190188043Y-114300000D03*
X192728043Y-114300000D03*
X190188043Y-116840000D03*
X192728043Y-116840000D03*
X190188043Y-119380000D03*
X192728043Y-119380000D03*
%TD*%
D22*
%TO.C,R12*%
X100070000Y-83820000D03*
X102070000Y-83820000D03*
%TD*%
D14*
%TO.C,J3*%
X97260000Y-121920000D03*
D15*
X94720000Y-121920000D03*
X97260000Y-119380000D03*
X94720000Y-119380000D03*
X97260000Y-116840000D03*
X94720000Y-116840000D03*
X97260000Y-114300000D03*
X94720000Y-114300000D03*
X97260000Y-111760000D03*
X94720000Y-111760000D03*
X97260000Y-109220000D03*
X94720000Y-109220000D03*
X97260000Y-106680000D03*
X94720000Y-106680000D03*
X97260000Y-104140000D03*
X94720000Y-104140000D03*
X97260000Y-101600000D03*
X94720000Y-101600000D03*
X97260000Y-99060000D03*
X94720000Y-99060000D03*
X97260000Y-96520000D03*
X94720000Y-96520000D03*
X97260000Y-93980000D03*
X94720000Y-93980000D03*
%TD*%
D51*
%TO.C,D4*%
X97775000Y-69701222D03*
X99825000Y-69701222D03*
%TD*%
D38*
%TO.C,C3*%
X107622361Y-106133507D03*
X105547361Y-106133507D03*
%TD*%
%TO.C,C9*%
X112500000Y-67310000D03*
X110425000Y-67310000D03*
%TD*%
D51*
%TO.C,D5*%
X143225000Y-127000000D03*
X145275000Y-127000000D03*
%TD*%
D19*
%TO.C,H4*%
X207750000Y-129353619D03*
%TD*%
D38*
%TO.C,C4*%
X109265517Y-98156399D03*
X107190517Y-98156399D03*
%TD*%
D23*
%TO.C,RESET1*%
X133460882Y-81462102D03*
X126960882Y-81462102D03*
X133460882Y-76962102D03*
X126960882Y-76962102D03*
%TD*%
D52*
%TO.C,JP1*%
X156588798Y-123305946D03*
D53*
X155288798Y-123305946D03*
%TD*%
D14*
%TO.C,J12*%
X108690000Y-128270000D03*
D15*
X108690000Y-125730000D03*
X111230000Y-128270000D03*
X111230000Y-125730000D03*
X113770000Y-128270000D03*
X113770000Y-125730000D03*
X116310000Y-128270000D03*
X116310000Y-125730000D03*
X118850000Y-128270000D03*
X118850000Y-125730000D03*
X121390000Y-128270000D03*
X121390000Y-125730000D03*
X123930000Y-128270000D03*
X123930000Y-125730000D03*
X126470000Y-128270000D03*
X126470000Y-125730000D03*
X129010000Y-128270000D03*
X129010000Y-125730000D03*
X131550000Y-128270000D03*
X131550000Y-125730000D03*
%TD*%
D20*
%TO.C,R11*%
X144250000Y-89170000D03*
X144250000Y-91170000D03*
%TD*%
D22*
%TO.C,R19*%
X166354128Y-81031299D03*
X168354128Y-81031299D03*
%TD*%
%TO.C,R21*%
X166354128Y-86111299D03*
X168354128Y-86111299D03*
%TD*%
D14*
%TO.C,J6*%
X153140000Y-106670000D03*
D15*
X153140000Y-104130000D03*
X153140000Y-101590000D03*
X153140000Y-99050000D03*
%TD*%
M02*
