%TF.GenerationSoftware,KiCad,Pcbnew,7.0.1*%
%TF.CreationDate,2023-06-08T10:56:07+02:00*%
%TF.ProjectId,microboard,6d696372-6f62-46f6-9172-642e6b696361,V1*%
%TF.SameCoordinates,Original*%
%TF.FileFunction,Paste,Top*%
%TF.FilePolarity,Positive*%
%FSLAX46Y46*%
G04 Gerber Fmt 4.6, Leading zero omitted, Abs format (unit mm)*
G04 Created by KiCad (PCBNEW 7.0.1) date 2023-06-08 10:56:07*
%MOMM*%
%LPD*%
G01*
G04 APERTURE LIST*
G04 Aperture macros list*
%AMRoundRect*
0 Rectangle with rounded corners*
0 $1 Rounding radius*
0 $2 $3 $4 $5 $6 $7 $8 $9 X,Y pos of 4 corners*
0 Add a 4 corners polygon primitive as box body*
4,1,4,$2,$3,$4,$5,$6,$7,$8,$9,$2,$3,0*
0 Add four circle primitives for the rounded corners*
1,1,$1+$1,$2,$3*
1,1,$1+$1,$4,$5*
1,1,$1+$1,$6,$7*
1,1,$1+$1,$8,$9*
0 Add four rect primitives between the rounded corners*
20,1,$1+$1,$2,$3,$4,$5,0*
20,1,$1+$1,$4,$5,$6,$7,0*
20,1,$1+$1,$6,$7,$8,$9,0*
20,1,$1+$1,$8,$9,$2,$3,0*%
G04 Aperture macros list end*
%ADD10C,0.100000*%
%ADD11C,0.150000*%
%ADD12C,0.300000*%
%ADD13C,0.400000*%
%ADD14RoundRect,0.250000X-0.350000X0.275000X-0.350000X-0.275000X0.350000X-0.275000X0.350000X0.275000X0*%
%ADD15R,2.000000X0.250000*%
%ADD16R,0.250000X2.000000*%
%ADD17RoundRect,0.250000X-0.450000X0.350000X-0.450000X-0.350000X0.450000X-0.350000X0.450000X0.350000X0*%
%ADD18RoundRect,0.250000X-0.337500X-0.475000X0.337500X-0.475000X0.337500X0.475000X-0.337500X0.475000X0*%
%ADD19RoundRect,0.250000X-0.350000X-0.450000X0.350000X-0.450000X0.350000X0.450000X-0.350000X0.450000X0*%
%ADD20RoundRect,0.250000X-0.250000X0.250000X-0.250000X-0.250000X0.250000X-0.250000X0.250000X0.250000X0*%
%ADD21RoundRect,0.250000X0.350000X0.450000X-0.350000X0.450000X-0.350000X-0.450000X0.350000X-0.450000X0*%
%ADD22RoundRect,0.250000X-0.475000X0.337500X-0.475000X-0.337500X0.475000X-0.337500X0.475000X0.337500X0*%
%ADD23RoundRect,0.250000X0.325000X0.450000X-0.325000X0.450000X-0.325000X-0.450000X0.325000X-0.450000X0*%
%ADD24RoundRect,0.150000X0.150000X-0.512500X0.150000X0.512500X-0.150000X0.512500X-0.150000X-0.512500X0*%
%ADD25RoundRect,0.250000X0.337500X0.475000X-0.337500X0.475000X-0.337500X-0.475000X0.337500X-0.475000X0*%
%ADD26RoundRect,0.250000X0.350000X-0.275000X0.350000X0.275000X-0.350000X0.275000X-0.350000X-0.275000X0*%
%ADD27RoundRect,0.250000X0.250000X-0.250000X0.250000X0.250000X-0.250000X0.250000X-0.250000X-0.250000X0*%
%ADD28RoundRect,0.250000X0.450000X-0.325000X0.450000X0.325000X-0.450000X0.325000X-0.450000X-0.325000X0*%
%ADD29RoundRect,0.250000X0.250000X0.250000X-0.250000X0.250000X-0.250000X-0.250000X0.250000X-0.250000X0*%
%ADD30R,1.800000X1.750000*%
%ADD31RoundRect,0.250000X0.450000X-0.350000X0.450000X0.350000X-0.450000X0.350000X-0.450000X-0.350000X0*%
%ADD32RoundRect,0.250000X-0.450000X0.325000X-0.450000X-0.325000X0.450000X-0.325000X0.450000X0.325000X0*%
%ADD33RoundRect,0.250000X0.475000X-0.337500X0.475000X0.337500X-0.475000X0.337500X-0.475000X-0.337500X0*%
%ADD34RoundRect,0.250000X-0.325000X-0.450000X0.325000X-0.450000X0.325000X0.450000X-0.325000X0.450000X0*%
G04 APERTURE END LIST*
D10*
D11*
X177002200Y-166007200D02*
X285002200Y-166007200D01*
X285002200Y-198007200D01*
X177002200Y-198007200D01*
X177002200Y-166007200D01*
D10*
D11*
X10000000Y-10000000D02*
X287002200Y-10000000D01*
X287002200Y-200007200D01*
X10000000Y-200007200D01*
X10000000Y-10000000D01*
D10*
D11*
X12000000Y-12000000D02*
X285002200Y-12000000D01*
X285002200Y-198007200D01*
X12000000Y-198007200D01*
X12000000Y-12000000D01*
D10*
D11*
X60000000Y-12000000D02*
X60000000Y-10000000D01*
D10*
D11*
X110000000Y-12000000D02*
X110000000Y-10000000D01*
D10*
D11*
X160000000Y-12000000D02*
X160000000Y-10000000D01*
D10*
D11*
X210000000Y-12000000D02*
X210000000Y-10000000D01*
D10*
D11*
X260000000Y-12000000D02*
X260000000Y-10000000D01*
D10*
D11*
X35990476Y-11601404D02*
X35247619Y-11601404D01*
X35619047Y-11601404D02*
X35619047Y-10301404D01*
X35619047Y-10301404D02*
X35495238Y-10487119D01*
X35495238Y-10487119D02*
X35371428Y-10610928D01*
X35371428Y-10610928D02*
X35247619Y-10672833D01*
D10*
D11*
X85247619Y-10425214D02*
X85309523Y-10363309D01*
X85309523Y-10363309D02*
X85433333Y-10301404D01*
X85433333Y-10301404D02*
X85742857Y-10301404D01*
X85742857Y-10301404D02*
X85866666Y-10363309D01*
X85866666Y-10363309D02*
X85928571Y-10425214D01*
X85928571Y-10425214D02*
X85990476Y-10549023D01*
X85990476Y-10549023D02*
X85990476Y-10672833D01*
X85990476Y-10672833D02*
X85928571Y-10858547D01*
X85928571Y-10858547D02*
X85185714Y-11601404D01*
X85185714Y-11601404D02*
X85990476Y-11601404D01*
D10*
D11*
X135185714Y-10301404D02*
X135990476Y-10301404D01*
X135990476Y-10301404D02*
X135557142Y-10796642D01*
X135557142Y-10796642D02*
X135742857Y-10796642D01*
X135742857Y-10796642D02*
X135866666Y-10858547D01*
X135866666Y-10858547D02*
X135928571Y-10920452D01*
X135928571Y-10920452D02*
X135990476Y-11044261D01*
X135990476Y-11044261D02*
X135990476Y-11353785D01*
X135990476Y-11353785D02*
X135928571Y-11477595D01*
X135928571Y-11477595D02*
X135866666Y-11539500D01*
X135866666Y-11539500D02*
X135742857Y-11601404D01*
X135742857Y-11601404D02*
X135371428Y-11601404D01*
X135371428Y-11601404D02*
X135247619Y-11539500D01*
X135247619Y-11539500D02*
X135185714Y-11477595D01*
D10*
D11*
X185866666Y-10734738D02*
X185866666Y-11601404D01*
X185557142Y-10239500D02*
X185247619Y-11168071D01*
X185247619Y-11168071D02*
X186052380Y-11168071D01*
D10*
D11*
X235928571Y-10301404D02*
X235309523Y-10301404D01*
X235309523Y-10301404D02*
X235247619Y-10920452D01*
X235247619Y-10920452D02*
X235309523Y-10858547D01*
X235309523Y-10858547D02*
X235433333Y-10796642D01*
X235433333Y-10796642D02*
X235742857Y-10796642D01*
X235742857Y-10796642D02*
X235866666Y-10858547D01*
X235866666Y-10858547D02*
X235928571Y-10920452D01*
X235928571Y-10920452D02*
X235990476Y-11044261D01*
X235990476Y-11044261D02*
X235990476Y-11353785D01*
X235990476Y-11353785D02*
X235928571Y-11477595D01*
X235928571Y-11477595D02*
X235866666Y-11539500D01*
X235866666Y-11539500D02*
X235742857Y-11601404D01*
X235742857Y-11601404D02*
X235433333Y-11601404D01*
X235433333Y-11601404D02*
X235309523Y-11539500D01*
X235309523Y-11539500D02*
X235247619Y-11477595D01*
D10*
D11*
X285866666Y-10301404D02*
X285619047Y-10301404D01*
X285619047Y-10301404D02*
X285495238Y-10363309D01*
X285495238Y-10363309D02*
X285433333Y-10425214D01*
X285433333Y-10425214D02*
X285309523Y-10610928D01*
X285309523Y-10610928D02*
X285247619Y-10858547D01*
X285247619Y-10858547D02*
X285247619Y-11353785D01*
X285247619Y-11353785D02*
X285309523Y-11477595D01*
X285309523Y-11477595D02*
X285371428Y-11539500D01*
X285371428Y-11539500D02*
X285495238Y-11601404D01*
X285495238Y-11601404D02*
X285742857Y-11601404D01*
X285742857Y-11601404D02*
X285866666Y-11539500D01*
X285866666Y-11539500D02*
X285928571Y-11477595D01*
X285928571Y-11477595D02*
X285990476Y-11353785D01*
X285990476Y-11353785D02*
X285990476Y-11044261D01*
X285990476Y-11044261D02*
X285928571Y-10920452D01*
X285928571Y-10920452D02*
X285866666Y-10858547D01*
X285866666Y-10858547D02*
X285742857Y-10796642D01*
X285742857Y-10796642D02*
X285495238Y-10796642D01*
X285495238Y-10796642D02*
X285371428Y-10858547D01*
X285371428Y-10858547D02*
X285309523Y-10920452D01*
X285309523Y-10920452D02*
X285247619Y-11044261D01*
D10*
D11*
X60000000Y-198007200D02*
X60000000Y-200007200D01*
D10*
D11*
X110000000Y-198007200D02*
X110000000Y-200007200D01*
D10*
D11*
X160000000Y-198007200D02*
X160000000Y-200007200D01*
D10*
D11*
X210000000Y-198007200D02*
X210000000Y-200007200D01*
D10*
D11*
X260000000Y-198007200D02*
X260000000Y-200007200D01*
D10*
D11*
X35990476Y-199608604D02*
X35247619Y-199608604D01*
X35619047Y-199608604D02*
X35619047Y-198308604D01*
X35619047Y-198308604D02*
X35495238Y-198494319D01*
X35495238Y-198494319D02*
X35371428Y-198618128D01*
X35371428Y-198618128D02*
X35247619Y-198680033D01*
D10*
D11*
X85247619Y-198432414D02*
X85309523Y-198370509D01*
X85309523Y-198370509D02*
X85433333Y-198308604D01*
X85433333Y-198308604D02*
X85742857Y-198308604D01*
X85742857Y-198308604D02*
X85866666Y-198370509D01*
X85866666Y-198370509D02*
X85928571Y-198432414D01*
X85928571Y-198432414D02*
X85990476Y-198556223D01*
X85990476Y-198556223D02*
X85990476Y-198680033D01*
X85990476Y-198680033D02*
X85928571Y-198865747D01*
X85928571Y-198865747D02*
X85185714Y-199608604D01*
X85185714Y-199608604D02*
X85990476Y-199608604D01*
D10*
D11*
X135185714Y-198308604D02*
X135990476Y-198308604D01*
X135990476Y-198308604D02*
X135557142Y-198803842D01*
X135557142Y-198803842D02*
X135742857Y-198803842D01*
X135742857Y-198803842D02*
X135866666Y-198865747D01*
X135866666Y-198865747D02*
X135928571Y-198927652D01*
X135928571Y-198927652D02*
X135990476Y-199051461D01*
X135990476Y-199051461D02*
X135990476Y-199360985D01*
X135990476Y-199360985D02*
X135928571Y-199484795D01*
X135928571Y-199484795D02*
X135866666Y-199546700D01*
X135866666Y-199546700D02*
X135742857Y-199608604D01*
X135742857Y-199608604D02*
X135371428Y-199608604D01*
X135371428Y-199608604D02*
X135247619Y-199546700D01*
X135247619Y-199546700D02*
X135185714Y-199484795D01*
D10*
D11*
X185866666Y-198741938D02*
X185866666Y-199608604D01*
X185557142Y-198246700D02*
X185247619Y-199175271D01*
X185247619Y-199175271D02*
X186052380Y-199175271D01*
D10*
D11*
X235928571Y-198308604D02*
X235309523Y-198308604D01*
X235309523Y-198308604D02*
X235247619Y-198927652D01*
X235247619Y-198927652D02*
X235309523Y-198865747D01*
X235309523Y-198865747D02*
X235433333Y-198803842D01*
X235433333Y-198803842D02*
X235742857Y-198803842D01*
X235742857Y-198803842D02*
X235866666Y-198865747D01*
X235866666Y-198865747D02*
X235928571Y-198927652D01*
X235928571Y-198927652D02*
X235990476Y-199051461D01*
X235990476Y-199051461D02*
X235990476Y-199360985D01*
X235990476Y-199360985D02*
X235928571Y-199484795D01*
X235928571Y-199484795D02*
X235866666Y-199546700D01*
X235866666Y-199546700D02*
X235742857Y-199608604D01*
X235742857Y-199608604D02*
X235433333Y-199608604D01*
X235433333Y-199608604D02*
X235309523Y-199546700D01*
X235309523Y-199546700D02*
X235247619Y-199484795D01*
D10*
D11*
X285866666Y-198308604D02*
X285619047Y-198308604D01*
X285619047Y-198308604D02*
X285495238Y-198370509D01*
X285495238Y-198370509D02*
X285433333Y-198432414D01*
X285433333Y-198432414D02*
X285309523Y-198618128D01*
X285309523Y-198618128D02*
X285247619Y-198865747D01*
X285247619Y-198865747D02*
X285247619Y-199360985D01*
X285247619Y-199360985D02*
X285309523Y-199484795D01*
X285309523Y-199484795D02*
X285371428Y-199546700D01*
X285371428Y-199546700D02*
X285495238Y-199608604D01*
X285495238Y-199608604D02*
X285742857Y-199608604D01*
X285742857Y-199608604D02*
X285866666Y-199546700D01*
X285866666Y-199546700D02*
X285928571Y-199484795D01*
X285928571Y-199484795D02*
X285990476Y-199360985D01*
X285990476Y-199360985D02*
X285990476Y-199051461D01*
X285990476Y-199051461D02*
X285928571Y-198927652D01*
X285928571Y-198927652D02*
X285866666Y-198865747D01*
X285866666Y-198865747D02*
X285742857Y-198803842D01*
X285742857Y-198803842D02*
X285495238Y-198803842D01*
X285495238Y-198803842D02*
X285371428Y-198865747D01*
X285371428Y-198865747D02*
X285309523Y-198927652D01*
X285309523Y-198927652D02*
X285247619Y-199051461D01*
D10*
D11*
X10000000Y-60000000D02*
X12000000Y-60000000D01*
D10*
D11*
X10000000Y-110000000D02*
X12000000Y-110000000D01*
D10*
D11*
X10000000Y-160000000D02*
X12000000Y-160000000D01*
D10*
D11*
X10690476Y-35229976D02*
X11309523Y-35229976D01*
X10566666Y-35601404D02*
X10999999Y-34301404D01*
X10999999Y-34301404D02*
X11433333Y-35601404D01*
D10*
D11*
X11092857Y-84920452D02*
X11278571Y-84982357D01*
X11278571Y-84982357D02*
X11340476Y-85044261D01*
X11340476Y-85044261D02*
X11402380Y-85168071D01*
X11402380Y-85168071D02*
X11402380Y-85353785D01*
X11402380Y-85353785D02*
X11340476Y-85477595D01*
X11340476Y-85477595D02*
X11278571Y-85539500D01*
X11278571Y-85539500D02*
X11154761Y-85601404D01*
X11154761Y-85601404D02*
X10659523Y-85601404D01*
X10659523Y-85601404D02*
X10659523Y-84301404D01*
X10659523Y-84301404D02*
X11092857Y-84301404D01*
X11092857Y-84301404D02*
X11216666Y-84363309D01*
X11216666Y-84363309D02*
X11278571Y-84425214D01*
X11278571Y-84425214D02*
X11340476Y-84549023D01*
X11340476Y-84549023D02*
X11340476Y-84672833D01*
X11340476Y-84672833D02*
X11278571Y-84796642D01*
X11278571Y-84796642D02*
X11216666Y-84858547D01*
X11216666Y-84858547D02*
X11092857Y-84920452D01*
X11092857Y-84920452D02*
X10659523Y-84920452D01*
D10*
D11*
X11402380Y-135477595D02*
X11340476Y-135539500D01*
X11340476Y-135539500D02*
X11154761Y-135601404D01*
X11154761Y-135601404D02*
X11030952Y-135601404D01*
X11030952Y-135601404D02*
X10845238Y-135539500D01*
X10845238Y-135539500D02*
X10721428Y-135415690D01*
X10721428Y-135415690D02*
X10659523Y-135291880D01*
X10659523Y-135291880D02*
X10597619Y-135044261D01*
X10597619Y-135044261D02*
X10597619Y-134858547D01*
X10597619Y-134858547D02*
X10659523Y-134610928D01*
X10659523Y-134610928D02*
X10721428Y-134487119D01*
X10721428Y-134487119D02*
X10845238Y-134363309D01*
X10845238Y-134363309D02*
X11030952Y-134301404D01*
X11030952Y-134301404D02*
X11154761Y-134301404D01*
X11154761Y-134301404D02*
X11340476Y-134363309D01*
X11340476Y-134363309D02*
X11402380Y-134425214D01*
D10*
D11*
X10659523Y-185601404D02*
X10659523Y-184301404D01*
X10659523Y-184301404D02*
X10969047Y-184301404D01*
X10969047Y-184301404D02*
X11154761Y-184363309D01*
X11154761Y-184363309D02*
X11278571Y-184487119D01*
X11278571Y-184487119D02*
X11340476Y-184610928D01*
X11340476Y-184610928D02*
X11402380Y-184858547D01*
X11402380Y-184858547D02*
X11402380Y-185044261D01*
X11402380Y-185044261D02*
X11340476Y-185291880D01*
X11340476Y-185291880D02*
X11278571Y-185415690D01*
X11278571Y-185415690D02*
X11154761Y-185539500D01*
X11154761Y-185539500D02*
X10969047Y-185601404D01*
X10969047Y-185601404D02*
X10659523Y-185601404D01*
D10*
D11*
X287002200Y-60000000D02*
X285002200Y-60000000D01*
D10*
D11*
X287002200Y-110000000D02*
X285002200Y-110000000D01*
D10*
D11*
X287002200Y-160000000D02*
X285002200Y-160000000D01*
D10*
D11*
X285692676Y-35229976D02*
X286311723Y-35229976D01*
X285568866Y-35601404D02*
X286002199Y-34301404D01*
X286002199Y-34301404D02*
X286435533Y-35601404D01*
D10*
D11*
X286095057Y-84920452D02*
X286280771Y-84982357D01*
X286280771Y-84982357D02*
X286342676Y-85044261D01*
X286342676Y-85044261D02*
X286404580Y-85168071D01*
X286404580Y-85168071D02*
X286404580Y-85353785D01*
X286404580Y-85353785D02*
X286342676Y-85477595D01*
X286342676Y-85477595D02*
X286280771Y-85539500D01*
X286280771Y-85539500D02*
X286156961Y-85601404D01*
X286156961Y-85601404D02*
X285661723Y-85601404D01*
X285661723Y-85601404D02*
X285661723Y-84301404D01*
X285661723Y-84301404D02*
X286095057Y-84301404D01*
X286095057Y-84301404D02*
X286218866Y-84363309D01*
X286218866Y-84363309D02*
X286280771Y-84425214D01*
X286280771Y-84425214D02*
X286342676Y-84549023D01*
X286342676Y-84549023D02*
X286342676Y-84672833D01*
X286342676Y-84672833D02*
X286280771Y-84796642D01*
X286280771Y-84796642D02*
X286218866Y-84858547D01*
X286218866Y-84858547D02*
X286095057Y-84920452D01*
X286095057Y-84920452D02*
X285661723Y-84920452D01*
D10*
D11*
X286404580Y-135477595D02*
X286342676Y-135539500D01*
X286342676Y-135539500D02*
X286156961Y-135601404D01*
X286156961Y-135601404D02*
X286033152Y-135601404D01*
X286033152Y-135601404D02*
X285847438Y-135539500D01*
X285847438Y-135539500D02*
X285723628Y-135415690D01*
X285723628Y-135415690D02*
X285661723Y-135291880D01*
X285661723Y-135291880D02*
X285599819Y-135044261D01*
X285599819Y-135044261D02*
X285599819Y-134858547D01*
X285599819Y-134858547D02*
X285661723Y-134610928D01*
X285661723Y-134610928D02*
X285723628Y-134487119D01*
X285723628Y-134487119D02*
X285847438Y-134363309D01*
X285847438Y-134363309D02*
X286033152Y-134301404D01*
X286033152Y-134301404D02*
X286156961Y-134301404D01*
X286156961Y-134301404D02*
X286342676Y-134363309D01*
X286342676Y-134363309D02*
X286404580Y-134425214D01*
D10*
D11*
X285661723Y-185601404D02*
X285661723Y-184301404D01*
X285661723Y-184301404D02*
X285971247Y-184301404D01*
X285971247Y-184301404D02*
X286156961Y-184363309D01*
X286156961Y-184363309D02*
X286280771Y-184487119D01*
X286280771Y-184487119D02*
X286342676Y-184610928D01*
X286342676Y-184610928D02*
X286404580Y-184858547D01*
X286404580Y-184858547D02*
X286404580Y-185044261D01*
X286404580Y-185044261D02*
X286342676Y-185291880D01*
X286342676Y-185291880D02*
X286280771Y-185415690D01*
X286280771Y-185415690D02*
X286156961Y-185539500D01*
X286156961Y-185539500D02*
X285971247Y-185601404D01*
X285971247Y-185601404D02*
X285661723Y-185601404D01*
D10*
D11*
X200359342Y-193801128D02*
X200359342Y-192301128D01*
X200359342Y-192301128D02*
X200716485Y-192301128D01*
X200716485Y-192301128D02*
X200930771Y-192372557D01*
X200930771Y-192372557D02*
X201073628Y-192515414D01*
X201073628Y-192515414D02*
X201145057Y-192658271D01*
X201145057Y-192658271D02*
X201216485Y-192943985D01*
X201216485Y-192943985D02*
X201216485Y-193158271D01*
X201216485Y-193158271D02*
X201145057Y-193443985D01*
X201145057Y-193443985D02*
X201073628Y-193586842D01*
X201073628Y-193586842D02*
X200930771Y-193729700D01*
X200930771Y-193729700D02*
X200716485Y-193801128D01*
X200716485Y-193801128D02*
X200359342Y-193801128D01*
X202502200Y-193801128D02*
X202502200Y-193015414D01*
X202502200Y-193015414D02*
X202430771Y-192872557D01*
X202430771Y-192872557D02*
X202287914Y-192801128D01*
X202287914Y-192801128D02*
X202002200Y-192801128D01*
X202002200Y-192801128D02*
X201859342Y-192872557D01*
X202502200Y-193729700D02*
X202359342Y-193801128D01*
X202359342Y-193801128D02*
X202002200Y-193801128D01*
X202002200Y-193801128D02*
X201859342Y-193729700D01*
X201859342Y-193729700D02*
X201787914Y-193586842D01*
X201787914Y-193586842D02*
X201787914Y-193443985D01*
X201787914Y-193443985D02*
X201859342Y-193301128D01*
X201859342Y-193301128D02*
X202002200Y-193229700D01*
X202002200Y-193229700D02*
X202359342Y-193229700D01*
X202359342Y-193229700D02*
X202502200Y-193158271D01*
X203002200Y-192801128D02*
X203573628Y-192801128D01*
X203216485Y-192301128D02*
X203216485Y-193586842D01*
X203216485Y-193586842D02*
X203287914Y-193729700D01*
X203287914Y-193729700D02*
X203430771Y-193801128D01*
X203430771Y-193801128D02*
X203573628Y-193801128D01*
X204645057Y-193729700D02*
X204502200Y-193801128D01*
X204502200Y-193801128D02*
X204216486Y-193801128D01*
X204216486Y-193801128D02*
X204073628Y-193729700D01*
X204073628Y-193729700D02*
X204002200Y-193586842D01*
X204002200Y-193586842D02*
X204002200Y-193015414D01*
X204002200Y-193015414D02*
X204073628Y-192872557D01*
X204073628Y-192872557D02*
X204216486Y-192801128D01*
X204216486Y-192801128D02*
X204502200Y-192801128D01*
X204502200Y-192801128D02*
X204645057Y-192872557D01*
X204645057Y-192872557D02*
X204716486Y-193015414D01*
X204716486Y-193015414D02*
X204716486Y-193158271D01*
X204716486Y-193158271D02*
X204002200Y-193301128D01*
X205359342Y-193658271D02*
X205430771Y-193729700D01*
X205430771Y-193729700D02*
X205359342Y-193801128D01*
X205359342Y-193801128D02*
X205287914Y-193729700D01*
X205287914Y-193729700D02*
X205359342Y-193658271D01*
X205359342Y-193658271D02*
X205359342Y-193801128D01*
X205359342Y-192872557D02*
X205430771Y-192943985D01*
X205430771Y-192943985D02*
X205359342Y-193015414D01*
X205359342Y-193015414D02*
X205287914Y-192943985D01*
X205287914Y-192943985D02*
X205359342Y-192872557D01*
X205359342Y-192872557D02*
X205359342Y-193015414D01*
X207145057Y-192443985D02*
X207216485Y-192372557D01*
X207216485Y-192372557D02*
X207359343Y-192301128D01*
X207359343Y-192301128D02*
X207716485Y-192301128D01*
X207716485Y-192301128D02*
X207859343Y-192372557D01*
X207859343Y-192372557D02*
X207930771Y-192443985D01*
X207930771Y-192443985D02*
X208002200Y-192586842D01*
X208002200Y-192586842D02*
X208002200Y-192729700D01*
X208002200Y-192729700D02*
X207930771Y-192943985D01*
X207930771Y-192943985D02*
X207073628Y-193801128D01*
X207073628Y-193801128D02*
X208002200Y-193801128D01*
X208930771Y-192301128D02*
X209073628Y-192301128D01*
X209073628Y-192301128D02*
X209216485Y-192372557D01*
X209216485Y-192372557D02*
X209287914Y-192443985D01*
X209287914Y-192443985D02*
X209359342Y-192586842D01*
X209359342Y-192586842D02*
X209430771Y-192872557D01*
X209430771Y-192872557D02*
X209430771Y-193229700D01*
X209430771Y-193229700D02*
X209359342Y-193515414D01*
X209359342Y-193515414D02*
X209287914Y-193658271D01*
X209287914Y-193658271D02*
X209216485Y-193729700D01*
X209216485Y-193729700D02*
X209073628Y-193801128D01*
X209073628Y-193801128D02*
X208930771Y-193801128D01*
X208930771Y-193801128D02*
X208787914Y-193729700D01*
X208787914Y-193729700D02*
X208716485Y-193658271D01*
X208716485Y-193658271D02*
X208645056Y-193515414D01*
X208645056Y-193515414D02*
X208573628Y-193229700D01*
X208573628Y-193229700D02*
X208573628Y-192872557D01*
X208573628Y-192872557D02*
X208645056Y-192586842D01*
X208645056Y-192586842D02*
X208716485Y-192443985D01*
X208716485Y-192443985D02*
X208787914Y-192372557D01*
X208787914Y-192372557D02*
X208930771Y-192301128D01*
X210002199Y-192443985D02*
X210073627Y-192372557D01*
X210073627Y-192372557D02*
X210216485Y-192301128D01*
X210216485Y-192301128D02*
X210573627Y-192301128D01*
X210573627Y-192301128D02*
X210716485Y-192372557D01*
X210716485Y-192372557D02*
X210787913Y-192443985D01*
X210787913Y-192443985D02*
X210859342Y-192586842D01*
X210859342Y-192586842D02*
X210859342Y-192729700D01*
X210859342Y-192729700D02*
X210787913Y-192943985D01*
X210787913Y-192943985D02*
X209930770Y-193801128D01*
X209930770Y-193801128D02*
X210859342Y-193801128D01*
X211359341Y-192301128D02*
X212287913Y-192301128D01*
X212287913Y-192301128D02*
X211787913Y-192872557D01*
X211787913Y-192872557D02*
X212002198Y-192872557D01*
X212002198Y-192872557D02*
X212145056Y-192943985D01*
X212145056Y-192943985D02*
X212216484Y-193015414D01*
X212216484Y-193015414D02*
X212287913Y-193158271D01*
X212287913Y-193158271D02*
X212287913Y-193515414D01*
X212287913Y-193515414D02*
X212216484Y-193658271D01*
X212216484Y-193658271D02*
X212145056Y-193729700D01*
X212145056Y-193729700D02*
X212002198Y-193801128D01*
X212002198Y-193801128D02*
X211573627Y-193801128D01*
X211573627Y-193801128D02*
X211430770Y-193729700D01*
X211430770Y-193729700D02*
X211359341Y-193658271D01*
X212930769Y-193229700D02*
X214073627Y-193229700D01*
X215073627Y-192301128D02*
X215216484Y-192301128D01*
X215216484Y-192301128D02*
X215359341Y-192372557D01*
X215359341Y-192372557D02*
X215430770Y-192443985D01*
X215430770Y-192443985D02*
X215502198Y-192586842D01*
X215502198Y-192586842D02*
X215573627Y-192872557D01*
X215573627Y-192872557D02*
X215573627Y-193229700D01*
X215573627Y-193229700D02*
X215502198Y-193515414D01*
X215502198Y-193515414D02*
X215430770Y-193658271D01*
X215430770Y-193658271D02*
X215359341Y-193729700D01*
X215359341Y-193729700D02*
X215216484Y-193801128D01*
X215216484Y-193801128D02*
X215073627Y-193801128D01*
X215073627Y-193801128D02*
X214930770Y-193729700D01*
X214930770Y-193729700D02*
X214859341Y-193658271D01*
X214859341Y-193658271D02*
X214787912Y-193515414D01*
X214787912Y-193515414D02*
X214716484Y-193229700D01*
X214716484Y-193229700D02*
X214716484Y-192872557D01*
X214716484Y-192872557D02*
X214787912Y-192586842D01*
X214787912Y-192586842D02*
X214859341Y-192443985D01*
X214859341Y-192443985D02*
X214930770Y-192372557D01*
X214930770Y-192372557D02*
X215073627Y-192301128D01*
X216859341Y-192301128D02*
X216573626Y-192301128D01*
X216573626Y-192301128D02*
X216430769Y-192372557D01*
X216430769Y-192372557D02*
X216359341Y-192443985D01*
X216359341Y-192443985D02*
X216216483Y-192658271D01*
X216216483Y-192658271D02*
X216145055Y-192943985D01*
X216145055Y-192943985D02*
X216145055Y-193515414D01*
X216145055Y-193515414D02*
X216216483Y-193658271D01*
X216216483Y-193658271D02*
X216287912Y-193729700D01*
X216287912Y-193729700D02*
X216430769Y-193801128D01*
X216430769Y-193801128D02*
X216716483Y-193801128D01*
X216716483Y-193801128D02*
X216859341Y-193729700D01*
X216859341Y-193729700D02*
X216930769Y-193658271D01*
X216930769Y-193658271D02*
X217002198Y-193515414D01*
X217002198Y-193515414D02*
X217002198Y-193158271D01*
X217002198Y-193158271D02*
X216930769Y-193015414D01*
X216930769Y-193015414D02*
X216859341Y-192943985D01*
X216859341Y-192943985D02*
X216716483Y-192872557D01*
X216716483Y-192872557D02*
X216430769Y-192872557D01*
X216430769Y-192872557D02*
X216287912Y-192943985D01*
X216287912Y-192943985D02*
X216216483Y-193015414D01*
X216216483Y-193015414D02*
X216145055Y-193158271D01*
X217645054Y-193229700D02*
X218787912Y-193229700D01*
X219787912Y-192301128D02*
X219930769Y-192301128D01*
X219930769Y-192301128D02*
X220073626Y-192372557D01*
X220073626Y-192372557D02*
X220145055Y-192443985D01*
X220145055Y-192443985D02*
X220216483Y-192586842D01*
X220216483Y-192586842D02*
X220287912Y-192872557D01*
X220287912Y-192872557D02*
X220287912Y-193229700D01*
X220287912Y-193229700D02*
X220216483Y-193515414D01*
X220216483Y-193515414D02*
X220145055Y-193658271D01*
X220145055Y-193658271D02*
X220073626Y-193729700D01*
X220073626Y-193729700D02*
X219930769Y-193801128D01*
X219930769Y-193801128D02*
X219787912Y-193801128D01*
X219787912Y-193801128D02*
X219645055Y-193729700D01*
X219645055Y-193729700D02*
X219573626Y-193658271D01*
X219573626Y-193658271D02*
X219502197Y-193515414D01*
X219502197Y-193515414D02*
X219430769Y-193229700D01*
X219430769Y-193229700D02*
X219430769Y-192872557D01*
X219430769Y-192872557D02*
X219502197Y-192586842D01*
X219502197Y-192586842D02*
X219573626Y-192443985D01*
X219573626Y-192443985D02*
X219645055Y-192372557D01*
X219645055Y-192372557D02*
X219787912Y-192301128D01*
X220787911Y-192301128D02*
X221787911Y-192301128D01*
X221787911Y-192301128D02*
X221145054Y-193801128D01*
D10*
D11*
X177002200Y-194507200D02*
X285002200Y-194507200D01*
D10*
D11*
X178359342Y-196601128D02*
X178359342Y-195101128D01*
X179216485Y-196601128D02*
X178573628Y-195743985D01*
X179216485Y-195101128D02*
X178359342Y-195958271D01*
X179859342Y-196601128D02*
X179859342Y-195601128D01*
X179859342Y-195101128D02*
X179787914Y-195172557D01*
X179787914Y-195172557D02*
X179859342Y-195243985D01*
X179859342Y-195243985D02*
X179930771Y-195172557D01*
X179930771Y-195172557D02*
X179859342Y-195101128D01*
X179859342Y-195101128D02*
X179859342Y-195243985D01*
X181430771Y-196458271D02*
X181359343Y-196529700D01*
X181359343Y-196529700D02*
X181145057Y-196601128D01*
X181145057Y-196601128D02*
X181002200Y-196601128D01*
X181002200Y-196601128D02*
X180787914Y-196529700D01*
X180787914Y-196529700D02*
X180645057Y-196386842D01*
X180645057Y-196386842D02*
X180573628Y-196243985D01*
X180573628Y-196243985D02*
X180502200Y-195958271D01*
X180502200Y-195958271D02*
X180502200Y-195743985D01*
X180502200Y-195743985D02*
X180573628Y-195458271D01*
X180573628Y-195458271D02*
X180645057Y-195315414D01*
X180645057Y-195315414D02*
X180787914Y-195172557D01*
X180787914Y-195172557D02*
X181002200Y-195101128D01*
X181002200Y-195101128D02*
X181145057Y-195101128D01*
X181145057Y-195101128D02*
X181359343Y-195172557D01*
X181359343Y-195172557D02*
X181430771Y-195243985D01*
X182716486Y-196601128D02*
X182716486Y-195815414D01*
X182716486Y-195815414D02*
X182645057Y-195672557D01*
X182645057Y-195672557D02*
X182502200Y-195601128D01*
X182502200Y-195601128D02*
X182216486Y-195601128D01*
X182216486Y-195601128D02*
X182073628Y-195672557D01*
X182716486Y-196529700D02*
X182573628Y-196601128D01*
X182573628Y-196601128D02*
X182216486Y-196601128D01*
X182216486Y-196601128D02*
X182073628Y-196529700D01*
X182073628Y-196529700D02*
X182002200Y-196386842D01*
X182002200Y-196386842D02*
X182002200Y-196243985D01*
X182002200Y-196243985D02*
X182073628Y-196101128D01*
X182073628Y-196101128D02*
X182216486Y-196029700D01*
X182216486Y-196029700D02*
X182573628Y-196029700D01*
X182573628Y-196029700D02*
X182716486Y-195958271D01*
X184073629Y-196601128D02*
X184073629Y-195101128D01*
X184073629Y-196529700D02*
X183930771Y-196601128D01*
X183930771Y-196601128D02*
X183645057Y-196601128D01*
X183645057Y-196601128D02*
X183502200Y-196529700D01*
X183502200Y-196529700D02*
X183430771Y-196458271D01*
X183430771Y-196458271D02*
X183359343Y-196315414D01*
X183359343Y-196315414D02*
X183359343Y-195886842D01*
X183359343Y-195886842D02*
X183430771Y-195743985D01*
X183430771Y-195743985D02*
X183502200Y-195672557D01*
X183502200Y-195672557D02*
X183645057Y-195601128D01*
X183645057Y-195601128D02*
X183930771Y-195601128D01*
X183930771Y-195601128D02*
X184073629Y-195672557D01*
X185930771Y-195815414D02*
X186430771Y-195815414D01*
X186645057Y-196601128D02*
X185930771Y-196601128D01*
X185930771Y-196601128D02*
X185930771Y-195101128D01*
X185930771Y-195101128D02*
X186645057Y-195101128D01*
X187287914Y-196458271D02*
X187359343Y-196529700D01*
X187359343Y-196529700D02*
X187287914Y-196601128D01*
X187287914Y-196601128D02*
X187216486Y-196529700D01*
X187216486Y-196529700D02*
X187287914Y-196458271D01*
X187287914Y-196458271D02*
X187287914Y-196601128D01*
X188002200Y-196601128D02*
X188002200Y-195101128D01*
X188002200Y-195101128D02*
X188359343Y-195101128D01*
X188359343Y-195101128D02*
X188573629Y-195172557D01*
X188573629Y-195172557D02*
X188716486Y-195315414D01*
X188716486Y-195315414D02*
X188787915Y-195458271D01*
X188787915Y-195458271D02*
X188859343Y-195743985D01*
X188859343Y-195743985D02*
X188859343Y-195958271D01*
X188859343Y-195958271D02*
X188787915Y-196243985D01*
X188787915Y-196243985D02*
X188716486Y-196386842D01*
X188716486Y-196386842D02*
X188573629Y-196529700D01*
X188573629Y-196529700D02*
X188359343Y-196601128D01*
X188359343Y-196601128D02*
X188002200Y-196601128D01*
X189502200Y-196458271D02*
X189573629Y-196529700D01*
X189573629Y-196529700D02*
X189502200Y-196601128D01*
X189502200Y-196601128D02*
X189430772Y-196529700D01*
X189430772Y-196529700D02*
X189502200Y-196458271D01*
X189502200Y-196458271D02*
X189502200Y-196601128D01*
X190145058Y-196172557D02*
X190859344Y-196172557D01*
X190002201Y-196601128D02*
X190502201Y-195101128D01*
X190502201Y-195101128D02*
X191002201Y-196601128D01*
X191502200Y-196458271D02*
X191573629Y-196529700D01*
X191573629Y-196529700D02*
X191502200Y-196601128D01*
X191502200Y-196601128D02*
X191430772Y-196529700D01*
X191430772Y-196529700D02*
X191502200Y-196458271D01*
X191502200Y-196458271D02*
X191502200Y-196601128D01*
X194502200Y-196601128D02*
X194502200Y-195101128D01*
X194645058Y-196029700D02*
X195073629Y-196601128D01*
X195073629Y-195601128D02*
X194502200Y-196172557D01*
X195716486Y-196601128D02*
X195716486Y-195601128D01*
X195716486Y-195101128D02*
X195645058Y-195172557D01*
X195645058Y-195172557D02*
X195716486Y-195243985D01*
X195716486Y-195243985D02*
X195787915Y-195172557D01*
X195787915Y-195172557D02*
X195716486Y-195101128D01*
X195716486Y-195101128D02*
X195716486Y-195243985D01*
X197073630Y-196529700D02*
X196930772Y-196601128D01*
X196930772Y-196601128D02*
X196645058Y-196601128D01*
X196645058Y-196601128D02*
X196502201Y-196529700D01*
X196502201Y-196529700D02*
X196430772Y-196458271D01*
X196430772Y-196458271D02*
X196359344Y-196315414D01*
X196359344Y-196315414D02*
X196359344Y-195886842D01*
X196359344Y-195886842D02*
X196430772Y-195743985D01*
X196430772Y-195743985D02*
X196502201Y-195672557D01*
X196502201Y-195672557D02*
X196645058Y-195601128D01*
X196645058Y-195601128D02*
X196930772Y-195601128D01*
X196930772Y-195601128D02*
X197073630Y-195672557D01*
X198359344Y-196601128D02*
X198359344Y-195815414D01*
X198359344Y-195815414D02*
X198287915Y-195672557D01*
X198287915Y-195672557D02*
X198145058Y-195601128D01*
X198145058Y-195601128D02*
X197859344Y-195601128D01*
X197859344Y-195601128D02*
X197716486Y-195672557D01*
X198359344Y-196529700D02*
X198216486Y-196601128D01*
X198216486Y-196601128D02*
X197859344Y-196601128D01*
X197859344Y-196601128D02*
X197716486Y-196529700D01*
X197716486Y-196529700D02*
X197645058Y-196386842D01*
X197645058Y-196386842D02*
X197645058Y-196243985D01*
X197645058Y-196243985D02*
X197716486Y-196101128D01*
X197716486Y-196101128D02*
X197859344Y-196029700D01*
X197859344Y-196029700D02*
X198216486Y-196029700D01*
X198216486Y-196029700D02*
X198359344Y-195958271D01*
X199716487Y-196601128D02*
X199716487Y-195101128D01*
X199716487Y-196529700D02*
X199573629Y-196601128D01*
X199573629Y-196601128D02*
X199287915Y-196601128D01*
X199287915Y-196601128D02*
X199145058Y-196529700D01*
X199145058Y-196529700D02*
X199073629Y-196458271D01*
X199073629Y-196458271D02*
X199002201Y-196315414D01*
X199002201Y-196315414D02*
X199002201Y-195886842D01*
X199002201Y-195886842D02*
X199073629Y-195743985D01*
X199073629Y-195743985D02*
X199145058Y-195672557D01*
X199145058Y-195672557D02*
X199287915Y-195601128D01*
X199287915Y-195601128D02*
X199573629Y-195601128D01*
X199573629Y-195601128D02*
X199716487Y-195672557D01*
X201430772Y-195101128D02*
X202430772Y-195101128D01*
X202430772Y-195101128D02*
X201787915Y-196601128D01*
X203002200Y-196458271D02*
X203073629Y-196529700D01*
X203073629Y-196529700D02*
X203002200Y-196601128D01*
X203002200Y-196601128D02*
X202930772Y-196529700D01*
X202930772Y-196529700D02*
X203002200Y-196458271D01*
X203002200Y-196458271D02*
X203002200Y-196601128D01*
X204002201Y-195101128D02*
X204145058Y-195101128D01*
X204145058Y-195101128D02*
X204287915Y-195172557D01*
X204287915Y-195172557D02*
X204359344Y-195243985D01*
X204359344Y-195243985D02*
X204430772Y-195386842D01*
X204430772Y-195386842D02*
X204502201Y-195672557D01*
X204502201Y-195672557D02*
X204502201Y-196029700D01*
X204502201Y-196029700D02*
X204430772Y-196315414D01*
X204430772Y-196315414D02*
X204359344Y-196458271D01*
X204359344Y-196458271D02*
X204287915Y-196529700D01*
X204287915Y-196529700D02*
X204145058Y-196601128D01*
X204145058Y-196601128D02*
X204002201Y-196601128D01*
X204002201Y-196601128D02*
X203859344Y-196529700D01*
X203859344Y-196529700D02*
X203787915Y-196458271D01*
X203787915Y-196458271D02*
X203716486Y-196315414D01*
X203716486Y-196315414D02*
X203645058Y-196029700D01*
X203645058Y-196029700D02*
X203645058Y-195672557D01*
X203645058Y-195672557D02*
X203716486Y-195386842D01*
X203716486Y-195386842D02*
X203787915Y-195243985D01*
X203787915Y-195243985D02*
X203859344Y-195172557D01*
X203859344Y-195172557D02*
X204002201Y-195101128D01*
X205145057Y-196458271D02*
X205216486Y-196529700D01*
X205216486Y-196529700D02*
X205145057Y-196601128D01*
X205145057Y-196601128D02*
X205073629Y-196529700D01*
X205073629Y-196529700D02*
X205145057Y-196458271D01*
X205145057Y-196458271D02*
X205145057Y-196601128D01*
X206645058Y-196601128D02*
X205787915Y-196601128D01*
X206216486Y-196601128D02*
X206216486Y-195101128D01*
X206216486Y-195101128D02*
X206073629Y-195315414D01*
X206073629Y-195315414D02*
X205930772Y-195458271D01*
X205930772Y-195458271D02*
X205787915Y-195529700D01*
D10*
D11*
X177002200Y-191507200D02*
X285002200Y-191507200D01*
D10*
D12*
X264216485Y-193801128D02*
X263716485Y-193086842D01*
X263359342Y-193801128D02*
X263359342Y-192301128D01*
X263359342Y-192301128D02*
X263930771Y-192301128D01*
X263930771Y-192301128D02*
X264073628Y-192372557D01*
X264073628Y-192372557D02*
X264145057Y-192443985D01*
X264145057Y-192443985D02*
X264216485Y-192586842D01*
X264216485Y-192586842D02*
X264216485Y-192801128D01*
X264216485Y-192801128D02*
X264145057Y-192943985D01*
X264145057Y-192943985D02*
X264073628Y-193015414D01*
X264073628Y-193015414D02*
X263930771Y-193086842D01*
X263930771Y-193086842D02*
X263359342Y-193086842D01*
X265430771Y-193729700D02*
X265287914Y-193801128D01*
X265287914Y-193801128D02*
X265002200Y-193801128D01*
X265002200Y-193801128D02*
X264859342Y-193729700D01*
X264859342Y-193729700D02*
X264787914Y-193586842D01*
X264787914Y-193586842D02*
X264787914Y-193015414D01*
X264787914Y-193015414D02*
X264859342Y-192872557D01*
X264859342Y-192872557D02*
X265002200Y-192801128D01*
X265002200Y-192801128D02*
X265287914Y-192801128D01*
X265287914Y-192801128D02*
X265430771Y-192872557D01*
X265430771Y-192872557D02*
X265502200Y-193015414D01*
X265502200Y-193015414D02*
X265502200Y-193158271D01*
X265502200Y-193158271D02*
X264787914Y-193301128D01*
X266002199Y-192801128D02*
X266359342Y-193801128D01*
X266359342Y-193801128D02*
X266716485Y-192801128D01*
X267287913Y-193658271D02*
X267359342Y-193729700D01*
X267359342Y-193729700D02*
X267287913Y-193801128D01*
X267287913Y-193801128D02*
X267216485Y-193729700D01*
X267216485Y-193729700D02*
X267287913Y-193658271D01*
X267287913Y-193658271D02*
X267287913Y-193801128D01*
X267287913Y-192872557D02*
X267359342Y-192943985D01*
X267359342Y-192943985D02*
X267287913Y-193015414D01*
X267287913Y-193015414D02*
X267216485Y-192943985D01*
X267216485Y-192943985D02*
X267287913Y-192872557D01*
X267287913Y-192872557D02*
X267287913Y-193015414D01*
X268930771Y-192301128D02*
X269430771Y-193801128D01*
X269430771Y-193801128D02*
X269930771Y-192301128D01*
X271216485Y-193801128D02*
X270359342Y-193801128D01*
X270787913Y-193801128D02*
X270787913Y-192301128D01*
X270787913Y-192301128D02*
X270645056Y-192515414D01*
X270645056Y-192515414D02*
X270502199Y-192658271D01*
X270502199Y-192658271D02*
X270359342Y-192729700D01*
D10*
D11*
X178287914Y-193729700D02*
X178502200Y-193801128D01*
X178502200Y-193801128D02*
X178859342Y-193801128D01*
X178859342Y-193801128D02*
X179002200Y-193729700D01*
X179002200Y-193729700D02*
X179073628Y-193658271D01*
X179073628Y-193658271D02*
X179145057Y-193515414D01*
X179145057Y-193515414D02*
X179145057Y-193372557D01*
X179145057Y-193372557D02*
X179073628Y-193229700D01*
X179073628Y-193229700D02*
X179002200Y-193158271D01*
X179002200Y-193158271D02*
X178859342Y-193086842D01*
X178859342Y-193086842D02*
X178573628Y-193015414D01*
X178573628Y-193015414D02*
X178430771Y-192943985D01*
X178430771Y-192943985D02*
X178359342Y-192872557D01*
X178359342Y-192872557D02*
X178287914Y-192729700D01*
X178287914Y-192729700D02*
X178287914Y-192586842D01*
X178287914Y-192586842D02*
X178359342Y-192443985D01*
X178359342Y-192443985D02*
X178430771Y-192372557D01*
X178430771Y-192372557D02*
X178573628Y-192301128D01*
X178573628Y-192301128D02*
X178930771Y-192301128D01*
X178930771Y-192301128D02*
X179145057Y-192372557D01*
X179787913Y-193801128D02*
X179787913Y-192801128D01*
X179787913Y-192301128D02*
X179716485Y-192372557D01*
X179716485Y-192372557D02*
X179787913Y-192443985D01*
X179787913Y-192443985D02*
X179859342Y-192372557D01*
X179859342Y-192372557D02*
X179787913Y-192301128D01*
X179787913Y-192301128D02*
X179787913Y-192443985D01*
X180359342Y-192801128D02*
X181145057Y-192801128D01*
X181145057Y-192801128D02*
X180359342Y-193801128D01*
X180359342Y-193801128D02*
X181145057Y-193801128D01*
X182287914Y-193729700D02*
X182145057Y-193801128D01*
X182145057Y-193801128D02*
X181859343Y-193801128D01*
X181859343Y-193801128D02*
X181716485Y-193729700D01*
X181716485Y-193729700D02*
X181645057Y-193586842D01*
X181645057Y-193586842D02*
X181645057Y-193015414D01*
X181645057Y-193015414D02*
X181716485Y-192872557D01*
X181716485Y-192872557D02*
X181859343Y-192801128D01*
X181859343Y-192801128D02*
X182145057Y-192801128D01*
X182145057Y-192801128D02*
X182287914Y-192872557D01*
X182287914Y-192872557D02*
X182359343Y-193015414D01*
X182359343Y-193015414D02*
X182359343Y-193158271D01*
X182359343Y-193158271D02*
X181645057Y-193301128D01*
X183002199Y-193658271D02*
X183073628Y-193729700D01*
X183073628Y-193729700D02*
X183002199Y-193801128D01*
X183002199Y-193801128D02*
X182930771Y-193729700D01*
X182930771Y-193729700D02*
X183002199Y-193658271D01*
X183002199Y-193658271D02*
X183002199Y-193801128D01*
X183002199Y-192872557D02*
X183073628Y-192943985D01*
X183073628Y-192943985D02*
X183002199Y-193015414D01*
X183002199Y-193015414D02*
X182930771Y-192943985D01*
X182930771Y-192943985D02*
X183002199Y-192872557D01*
X183002199Y-192872557D02*
X183002199Y-193015414D01*
X184787914Y-193372557D02*
X185502200Y-193372557D01*
X184645057Y-193801128D02*
X185145057Y-192301128D01*
X185145057Y-192301128D02*
X185645057Y-193801128D01*
X186787914Y-192801128D02*
X186787914Y-193801128D01*
X186430771Y-192229700D02*
X186073628Y-193301128D01*
X186073628Y-193301128D02*
X187002199Y-193301128D01*
D10*
D11*
X263359342Y-196601128D02*
X263359342Y-195101128D01*
X264716486Y-196601128D02*
X264716486Y-195101128D01*
X264716486Y-196529700D02*
X264573628Y-196601128D01*
X264573628Y-196601128D02*
X264287914Y-196601128D01*
X264287914Y-196601128D02*
X264145057Y-196529700D01*
X264145057Y-196529700D02*
X264073628Y-196458271D01*
X264073628Y-196458271D02*
X264002200Y-196315414D01*
X264002200Y-196315414D02*
X264002200Y-195886842D01*
X264002200Y-195886842D02*
X264073628Y-195743985D01*
X264073628Y-195743985D02*
X264145057Y-195672557D01*
X264145057Y-195672557D02*
X264287914Y-195601128D01*
X264287914Y-195601128D02*
X264573628Y-195601128D01*
X264573628Y-195601128D02*
X264716486Y-195672557D01*
X265430771Y-196458271D02*
X265502200Y-196529700D01*
X265502200Y-196529700D02*
X265430771Y-196601128D01*
X265430771Y-196601128D02*
X265359343Y-196529700D01*
X265359343Y-196529700D02*
X265430771Y-196458271D01*
X265430771Y-196458271D02*
X265430771Y-196601128D01*
X265430771Y-195672557D02*
X265502200Y-195743985D01*
X265502200Y-195743985D02*
X265430771Y-195815414D01*
X265430771Y-195815414D02*
X265359343Y-195743985D01*
X265359343Y-195743985D02*
X265430771Y-195672557D01*
X265430771Y-195672557D02*
X265430771Y-195815414D01*
X268073629Y-196601128D02*
X267216486Y-196601128D01*
X267645057Y-196601128D02*
X267645057Y-195101128D01*
X267645057Y-195101128D02*
X267502200Y-195315414D01*
X267502200Y-195315414D02*
X267359343Y-195458271D01*
X267359343Y-195458271D02*
X267216486Y-195529700D01*
X269787914Y-195029700D02*
X268502200Y-196958271D01*
X271073629Y-196601128D02*
X270216486Y-196601128D01*
X270645057Y-196601128D02*
X270645057Y-195101128D01*
X270645057Y-195101128D02*
X270502200Y-195315414D01*
X270502200Y-195315414D02*
X270359343Y-195458271D01*
X270359343Y-195458271D02*
X270216486Y-195529700D01*
D10*
D11*
X177002200Y-187507200D02*
X285002200Y-187507200D01*
D10*
D13*
X178430771Y-188232438D02*
X179573628Y-188232438D01*
X178752200Y-190232438D02*
X179002200Y-188232438D01*
X179978390Y-190232438D02*
X180145057Y-188899104D01*
X180228390Y-188232438D02*
X180121247Y-188327676D01*
X180121247Y-188327676D02*
X180204581Y-188422914D01*
X180204581Y-188422914D02*
X180311724Y-188327676D01*
X180311724Y-188327676D02*
X180228390Y-188232438D01*
X180228390Y-188232438D02*
X180204581Y-188422914D01*
X180799819Y-188899104D02*
X181561723Y-188899104D01*
X181168866Y-188232438D02*
X180954581Y-189946723D01*
X180954581Y-189946723D02*
X181026009Y-190137200D01*
X181026009Y-190137200D02*
X181204581Y-190232438D01*
X181204581Y-190232438D02*
X181395057Y-190232438D01*
X182335533Y-190232438D02*
X182156961Y-190137200D01*
X182156961Y-190137200D02*
X182085533Y-189946723D01*
X182085533Y-189946723D02*
X182299818Y-188232438D01*
X183859342Y-190137200D02*
X183656961Y-190232438D01*
X183656961Y-190232438D02*
X183276008Y-190232438D01*
X183276008Y-190232438D02*
X183097437Y-190137200D01*
X183097437Y-190137200D02*
X183026008Y-189946723D01*
X183026008Y-189946723D02*
X183121247Y-189184819D01*
X183121247Y-189184819D02*
X183240294Y-188994342D01*
X183240294Y-188994342D02*
X183442675Y-188899104D01*
X183442675Y-188899104D02*
X183823627Y-188899104D01*
X183823627Y-188899104D02*
X184002199Y-188994342D01*
X184002199Y-188994342D02*
X184073627Y-189184819D01*
X184073627Y-189184819D02*
X184049818Y-189375295D01*
X184049818Y-189375295D02*
X183073627Y-189565771D01*
X184811723Y-190041961D02*
X184895056Y-190137200D01*
X184895056Y-190137200D02*
X184787913Y-190232438D01*
X184787913Y-190232438D02*
X184704580Y-190137200D01*
X184704580Y-190137200D02*
X184811723Y-190041961D01*
X184811723Y-190041961D02*
X184787913Y-190232438D01*
X184942675Y-188994342D02*
X185026008Y-189089580D01*
X185026008Y-189089580D02*
X184918866Y-189184819D01*
X184918866Y-189184819D02*
X184835532Y-189089580D01*
X184835532Y-189089580D02*
X184942675Y-188994342D01*
X184942675Y-188994342D02*
X184918866Y-189184819D01*
X187252199Y-190232438D02*
X187502199Y-188232438D01*
X187502199Y-188232438D02*
X187978390Y-188232438D01*
X187978390Y-188232438D02*
X188252199Y-188327676D01*
X188252199Y-188327676D02*
X188418866Y-188518152D01*
X188418866Y-188518152D02*
X188490294Y-188708628D01*
X188490294Y-188708628D02*
X188537914Y-189089580D01*
X188537914Y-189089580D02*
X188502199Y-189375295D01*
X188502199Y-189375295D02*
X188359342Y-189756247D01*
X188359342Y-189756247D02*
X188240294Y-189946723D01*
X188240294Y-189946723D02*
X188026009Y-190137200D01*
X188026009Y-190137200D02*
X187728390Y-190232438D01*
X187728390Y-190232438D02*
X187252199Y-190232438D01*
X190014104Y-190137200D02*
X189811723Y-190232438D01*
X189811723Y-190232438D02*
X189430770Y-190232438D01*
X189430770Y-190232438D02*
X189252199Y-190137200D01*
X189252199Y-190137200D02*
X189180770Y-189946723D01*
X189180770Y-189946723D02*
X189276009Y-189184819D01*
X189276009Y-189184819D02*
X189395056Y-188994342D01*
X189395056Y-188994342D02*
X189597437Y-188899104D01*
X189597437Y-188899104D02*
X189978389Y-188899104D01*
X189978389Y-188899104D02*
X190156961Y-188994342D01*
X190156961Y-188994342D02*
X190228389Y-189184819D01*
X190228389Y-189184819D02*
X190204580Y-189375295D01*
X190204580Y-189375295D02*
X189228389Y-189565771D01*
X190918866Y-188899104D02*
X191228390Y-190232438D01*
X191228390Y-190232438D02*
X191871247Y-188899104D01*
X191954580Y-190422914D02*
X193478390Y-190422914D01*
X193942675Y-190232438D02*
X194192675Y-188232438D01*
X194192675Y-188232438D02*
X194680770Y-189661009D01*
X194680770Y-189661009D02*
X195526009Y-188232438D01*
X195526009Y-188232438D02*
X195276009Y-190232438D01*
X197383152Y-190041961D02*
X197276009Y-190137200D01*
X197276009Y-190137200D02*
X196978390Y-190232438D01*
X196978390Y-190232438D02*
X196787914Y-190232438D01*
X196787914Y-190232438D02*
X196514104Y-190137200D01*
X196514104Y-190137200D02*
X196347438Y-189946723D01*
X196347438Y-189946723D02*
X196276009Y-189756247D01*
X196276009Y-189756247D02*
X196228390Y-189375295D01*
X196228390Y-189375295D02*
X196264104Y-189089580D01*
X196264104Y-189089580D02*
X196406961Y-188708628D01*
X196406961Y-188708628D02*
X196526009Y-188518152D01*
X196526009Y-188518152D02*
X196740295Y-188327676D01*
X196740295Y-188327676D02*
X197037914Y-188232438D01*
X197037914Y-188232438D02*
X197228390Y-188232438D01*
X197228390Y-188232438D02*
X197502200Y-188327676D01*
X197502200Y-188327676D02*
X197585533Y-188422914D01*
X198454580Y-188232438D02*
X198252199Y-189851485D01*
X198252199Y-189851485D02*
X198323628Y-190041961D01*
X198323628Y-190041961D02*
X198406961Y-190137200D01*
X198406961Y-190137200D02*
X198585533Y-190232438D01*
X198585533Y-190232438D02*
X198966485Y-190232438D01*
X198966485Y-190232438D02*
X199168866Y-190137200D01*
X199168866Y-190137200D02*
X199276009Y-190041961D01*
X199276009Y-190041961D02*
X199395056Y-189851485D01*
X199395056Y-189851485D02*
X199597437Y-188232438D01*
X199787913Y-190422914D02*
X201311723Y-190422914D01*
X202573627Y-189184819D02*
X202847437Y-189280057D01*
X202847437Y-189280057D02*
X202930770Y-189375295D01*
X202930770Y-189375295D02*
X203002199Y-189565771D01*
X203002199Y-189565771D02*
X202966484Y-189851485D01*
X202966484Y-189851485D02*
X202847437Y-190041961D01*
X202847437Y-190041961D02*
X202740294Y-190137200D01*
X202740294Y-190137200D02*
X202537913Y-190232438D01*
X202537913Y-190232438D02*
X201776008Y-190232438D01*
X201776008Y-190232438D02*
X202026008Y-188232438D01*
X202026008Y-188232438D02*
X202692675Y-188232438D01*
X202692675Y-188232438D02*
X202871246Y-188327676D01*
X202871246Y-188327676D02*
X202954580Y-188422914D01*
X202954580Y-188422914D02*
X203026008Y-188613390D01*
X203026008Y-188613390D02*
X203002199Y-188803866D01*
X203002199Y-188803866D02*
X202883151Y-188994342D01*
X202883151Y-188994342D02*
X202776008Y-189089580D01*
X202776008Y-189089580D02*
X202573627Y-189184819D01*
X202573627Y-189184819D02*
X201906961Y-189184819D01*
X204049818Y-190232438D02*
X203871246Y-190137200D01*
X203871246Y-190137200D02*
X203787913Y-190041961D01*
X203787913Y-190041961D02*
X203716484Y-189851485D01*
X203716484Y-189851485D02*
X203787913Y-189280057D01*
X203787913Y-189280057D02*
X203906960Y-189089580D01*
X203906960Y-189089580D02*
X204014103Y-188994342D01*
X204014103Y-188994342D02*
X204216484Y-188899104D01*
X204216484Y-188899104D02*
X204502198Y-188899104D01*
X204502198Y-188899104D02*
X204680770Y-188994342D01*
X204680770Y-188994342D02*
X204764103Y-189089580D01*
X204764103Y-189089580D02*
X204835532Y-189280057D01*
X204835532Y-189280057D02*
X204764103Y-189851485D01*
X204764103Y-189851485D02*
X204645056Y-190041961D01*
X204645056Y-190041961D02*
X204537913Y-190137200D01*
X204537913Y-190137200D02*
X204335532Y-190232438D01*
X204335532Y-190232438D02*
X204049818Y-190232438D01*
X206418865Y-190232438D02*
X206549817Y-189184819D01*
X206549817Y-189184819D02*
X206478389Y-188994342D01*
X206478389Y-188994342D02*
X206299817Y-188899104D01*
X206299817Y-188899104D02*
X205918865Y-188899104D01*
X205918865Y-188899104D02*
X205716484Y-188994342D01*
X206430770Y-190137200D02*
X206228389Y-190232438D01*
X206228389Y-190232438D02*
X205752198Y-190232438D01*
X205752198Y-190232438D02*
X205573627Y-190137200D01*
X205573627Y-190137200D02*
X205502198Y-189946723D01*
X205502198Y-189946723D02*
X205526008Y-189756247D01*
X205526008Y-189756247D02*
X205645056Y-189565771D01*
X205645056Y-189565771D02*
X205847437Y-189470533D01*
X205847437Y-189470533D02*
X206323627Y-189470533D01*
X206323627Y-189470533D02*
X206526008Y-189375295D01*
X207359341Y-190232438D02*
X207526008Y-188899104D01*
X207478389Y-189280057D02*
X207597436Y-189089580D01*
X207597436Y-189089580D02*
X207704579Y-188994342D01*
X207704579Y-188994342D02*
X207906960Y-188899104D01*
X207906960Y-188899104D02*
X208097436Y-188899104D01*
X209442674Y-190232438D02*
X209692674Y-188232438D01*
X209454579Y-190137200D02*
X209252198Y-190232438D01*
X209252198Y-190232438D02*
X208871246Y-190232438D01*
X208871246Y-190232438D02*
X208692674Y-190137200D01*
X208692674Y-190137200D02*
X208609341Y-190041961D01*
X208609341Y-190041961D02*
X208537912Y-189851485D01*
X208537912Y-189851485D02*
X208609341Y-189280057D01*
X208609341Y-189280057D02*
X208728388Y-189089580D01*
X208728388Y-189089580D02*
X208835531Y-188994342D01*
X208835531Y-188994342D02*
X209037912Y-188899104D01*
X209037912Y-188899104D02*
X209418865Y-188899104D01*
X209418865Y-188899104D02*
X209597436Y-188994342D01*
D10*
D11*
X178859342Y-185615414D02*
X178359342Y-185615414D01*
X178359342Y-186401128D02*
X178359342Y-184901128D01*
X178359342Y-184901128D02*
X179073628Y-184901128D01*
X179645056Y-186401128D02*
X179645056Y-185401128D01*
X179645056Y-184901128D02*
X179573628Y-184972557D01*
X179573628Y-184972557D02*
X179645056Y-185043985D01*
X179645056Y-185043985D02*
X179716485Y-184972557D01*
X179716485Y-184972557D02*
X179645056Y-184901128D01*
X179645056Y-184901128D02*
X179645056Y-185043985D01*
X180573628Y-186401128D02*
X180430771Y-186329700D01*
X180430771Y-186329700D02*
X180359342Y-186186842D01*
X180359342Y-186186842D02*
X180359342Y-184901128D01*
X181716485Y-186329700D02*
X181573628Y-186401128D01*
X181573628Y-186401128D02*
X181287914Y-186401128D01*
X181287914Y-186401128D02*
X181145056Y-186329700D01*
X181145056Y-186329700D02*
X181073628Y-186186842D01*
X181073628Y-186186842D02*
X181073628Y-185615414D01*
X181073628Y-185615414D02*
X181145056Y-185472557D01*
X181145056Y-185472557D02*
X181287914Y-185401128D01*
X181287914Y-185401128D02*
X181573628Y-185401128D01*
X181573628Y-185401128D02*
X181716485Y-185472557D01*
X181716485Y-185472557D02*
X181787914Y-185615414D01*
X181787914Y-185615414D02*
X181787914Y-185758271D01*
X181787914Y-185758271D02*
X181073628Y-185901128D01*
X182430770Y-186258271D02*
X182502199Y-186329700D01*
X182502199Y-186329700D02*
X182430770Y-186401128D01*
X182430770Y-186401128D02*
X182359342Y-186329700D01*
X182359342Y-186329700D02*
X182430770Y-186258271D01*
X182430770Y-186258271D02*
X182430770Y-186401128D01*
X182430770Y-185472557D02*
X182502199Y-185543985D01*
X182502199Y-185543985D02*
X182430770Y-185615414D01*
X182430770Y-185615414D02*
X182359342Y-185543985D01*
X182359342Y-185543985D02*
X182430770Y-185472557D01*
X182430770Y-185472557D02*
X182430770Y-185615414D01*
X184287913Y-186401128D02*
X184287913Y-185401128D01*
X184287913Y-185543985D02*
X184359342Y-185472557D01*
X184359342Y-185472557D02*
X184502199Y-185401128D01*
X184502199Y-185401128D02*
X184716485Y-185401128D01*
X184716485Y-185401128D02*
X184859342Y-185472557D01*
X184859342Y-185472557D02*
X184930771Y-185615414D01*
X184930771Y-185615414D02*
X184930771Y-186401128D01*
X184930771Y-185615414D02*
X185002199Y-185472557D01*
X185002199Y-185472557D02*
X185145056Y-185401128D01*
X185145056Y-185401128D02*
X185359342Y-185401128D01*
X185359342Y-185401128D02*
X185502199Y-185472557D01*
X185502199Y-185472557D02*
X185573628Y-185615414D01*
X185573628Y-185615414D02*
X185573628Y-186401128D01*
X186287913Y-186401128D02*
X186287913Y-185401128D01*
X186287913Y-184901128D02*
X186216485Y-184972557D01*
X186216485Y-184972557D02*
X186287913Y-185043985D01*
X186287913Y-185043985D02*
X186359342Y-184972557D01*
X186359342Y-184972557D02*
X186287913Y-184901128D01*
X186287913Y-184901128D02*
X186287913Y-185043985D01*
X187645057Y-186329700D02*
X187502199Y-186401128D01*
X187502199Y-186401128D02*
X187216485Y-186401128D01*
X187216485Y-186401128D02*
X187073628Y-186329700D01*
X187073628Y-186329700D02*
X187002199Y-186258271D01*
X187002199Y-186258271D02*
X186930771Y-186115414D01*
X186930771Y-186115414D02*
X186930771Y-185686842D01*
X186930771Y-185686842D02*
X187002199Y-185543985D01*
X187002199Y-185543985D02*
X187073628Y-185472557D01*
X187073628Y-185472557D02*
X187216485Y-185401128D01*
X187216485Y-185401128D02*
X187502199Y-185401128D01*
X187502199Y-185401128D02*
X187645057Y-185472557D01*
X188287913Y-186401128D02*
X188287913Y-185401128D01*
X188287913Y-185686842D02*
X188359342Y-185543985D01*
X188359342Y-185543985D02*
X188430771Y-185472557D01*
X188430771Y-185472557D02*
X188573628Y-185401128D01*
X188573628Y-185401128D02*
X188716485Y-185401128D01*
X189430770Y-186401128D02*
X189287913Y-186329700D01*
X189287913Y-186329700D02*
X189216484Y-186258271D01*
X189216484Y-186258271D02*
X189145056Y-186115414D01*
X189145056Y-186115414D02*
X189145056Y-185686842D01*
X189145056Y-185686842D02*
X189216484Y-185543985D01*
X189216484Y-185543985D02*
X189287913Y-185472557D01*
X189287913Y-185472557D02*
X189430770Y-185401128D01*
X189430770Y-185401128D02*
X189645056Y-185401128D01*
X189645056Y-185401128D02*
X189787913Y-185472557D01*
X189787913Y-185472557D02*
X189859342Y-185543985D01*
X189859342Y-185543985D02*
X189930770Y-185686842D01*
X189930770Y-185686842D02*
X189930770Y-186115414D01*
X189930770Y-186115414D02*
X189859342Y-186258271D01*
X189859342Y-186258271D02*
X189787913Y-186329700D01*
X189787913Y-186329700D02*
X189645056Y-186401128D01*
X189645056Y-186401128D02*
X189430770Y-186401128D01*
X190573627Y-186401128D02*
X190573627Y-184901128D01*
X190573627Y-185472557D02*
X190716485Y-185401128D01*
X190716485Y-185401128D02*
X191002199Y-185401128D01*
X191002199Y-185401128D02*
X191145056Y-185472557D01*
X191145056Y-185472557D02*
X191216485Y-185543985D01*
X191216485Y-185543985D02*
X191287913Y-185686842D01*
X191287913Y-185686842D02*
X191287913Y-186115414D01*
X191287913Y-186115414D02*
X191216485Y-186258271D01*
X191216485Y-186258271D02*
X191145056Y-186329700D01*
X191145056Y-186329700D02*
X191002199Y-186401128D01*
X191002199Y-186401128D02*
X190716485Y-186401128D01*
X190716485Y-186401128D02*
X190573627Y-186329700D01*
X192145056Y-186401128D02*
X192002199Y-186329700D01*
X192002199Y-186329700D02*
X191930770Y-186258271D01*
X191930770Y-186258271D02*
X191859342Y-186115414D01*
X191859342Y-186115414D02*
X191859342Y-185686842D01*
X191859342Y-185686842D02*
X191930770Y-185543985D01*
X191930770Y-185543985D02*
X192002199Y-185472557D01*
X192002199Y-185472557D02*
X192145056Y-185401128D01*
X192145056Y-185401128D02*
X192359342Y-185401128D01*
X192359342Y-185401128D02*
X192502199Y-185472557D01*
X192502199Y-185472557D02*
X192573628Y-185543985D01*
X192573628Y-185543985D02*
X192645056Y-185686842D01*
X192645056Y-185686842D02*
X192645056Y-186115414D01*
X192645056Y-186115414D02*
X192573628Y-186258271D01*
X192573628Y-186258271D02*
X192502199Y-186329700D01*
X192502199Y-186329700D02*
X192359342Y-186401128D01*
X192359342Y-186401128D02*
X192145056Y-186401128D01*
X193930771Y-186401128D02*
X193930771Y-185615414D01*
X193930771Y-185615414D02*
X193859342Y-185472557D01*
X193859342Y-185472557D02*
X193716485Y-185401128D01*
X193716485Y-185401128D02*
X193430771Y-185401128D01*
X193430771Y-185401128D02*
X193287913Y-185472557D01*
X193930771Y-186329700D02*
X193787913Y-186401128D01*
X193787913Y-186401128D02*
X193430771Y-186401128D01*
X193430771Y-186401128D02*
X193287913Y-186329700D01*
X193287913Y-186329700D02*
X193216485Y-186186842D01*
X193216485Y-186186842D02*
X193216485Y-186043985D01*
X193216485Y-186043985D02*
X193287913Y-185901128D01*
X193287913Y-185901128D02*
X193430771Y-185829700D01*
X193430771Y-185829700D02*
X193787913Y-185829700D01*
X193787913Y-185829700D02*
X193930771Y-185758271D01*
X194645056Y-186401128D02*
X194645056Y-185401128D01*
X194645056Y-185686842D02*
X194716485Y-185543985D01*
X194716485Y-185543985D02*
X194787914Y-185472557D01*
X194787914Y-185472557D02*
X194930771Y-185401128D01*
X194930771Y-185401128D02*
X195073628Y-185401128D01*
X196216485Y-186401128D02*
X196216485Y-184901128D01*
X196216485Y-186329700D02*
X196073627Y-186401128D01*
X196073627Y-186401128D02*
X195787913Y-186401128D01*
X195787913Y-186401128D02*
X195645056Y-186329700D01*
X195645056Y-186329700D02*
X195573627Y-186258271D01*
X195573627Y-186258271D02*
X195502199Y-186115414D01*
X195502199Y-186115414D02*
X195502199Y-185686842D01*
X195502199Y-185686842D02*
X195573627Y-185543985D01*
X195573627Y-185543985D02*
X195645056Y-185472557D01*
X195645056Y-185472557D02*
X195787913Y-185401128D01*
X195787913Y-185401128D02*
X196073627Y-185401128D01*
X196073627Y-185401128D02*
X196216485Y-185472557D01*
X196930770Y-186258271D02*
X197002199Y-186329700D01*
X197002199Y-186329700D02*
X196930770Y-186401128D01*
X196930770Y-186401128D02*
X196859342Y-186329700D01*
X196859342Y-186329700D02*
X196930770Y-186258271D01*
X196930770Y-186258271D02*
X196930770Y-186401128D01*
X197645056Y-186401128D02*
X197645056Y-184901128D01*
X197787914Y-185829700D02*
X198216485Y-186401128D01*
X198216485Y-185401128D02*
X197645056Y-185972557D01*
X198859342Y-186401128D02*
X198859342Y-185401128D01*
X198859342Y-184901128D02*
X198787914Y-184972557D01*
X198787914Y-184972557D02*
X198859342Y-185043985D01*
X198859342Y-185043985D02*
X198930771Y-184972557D01*
X198930771Y-184972557D02*
X198859342Y-184901128D01*
X198859342Y-184901128D02*
X198859342Y-185043985D01*
X200216486Y-186329700D02*
X200073628Y-186401128D01*
X200073628Y-186401128D02*
X199787914Y-186401128D01*
X199787914Y-186401128D02*
X199645057Y-186329700D01*
X199645057Y-186329700D02*
X199573628Y-186258271D01*
X199573628Y-186258271D02*
X199502200Y-186115414D01*
X199502200Y-186115414D02*
X199502200Y-185686842D01*
X199502200Y-185686842D02*
X199573628Y-185543985D01*
X199573628Y-185543985D02*
X199645057Y-185472557D01*
X199645057Y-185472557D02*
X199787914Y-185401128D01*
X199787914Y-185401128D02*
X200073628Y-185401128D01*
X200073628Y-185401128D02*
X200216486Y-185472557D01*
X201502200Y-186401128D02*
X201502200Y-185615414D01*
X201502200Y-185615414D02*
X201430771Y-185472557D01*
X201430771Y-185472557D02*
X201287914Y-185401128D01*
X201287914Y-185401128D02*
X201002200Y-185401128D01*
X201002200Y-185401128D02*
X200859342Y-185472557D01*
X201502200Y-186329700D02*
X201359342Y-186401128D01*
X201359342Y-186401128D02*
X201002200Y-186401128D01*
X201002200Y-186401128D02*
X200859342Y-186329700D01*
X200859342Y-186329700D02*
X200787914Y-186186842D01*
X200787914Y-186186842D02*
X200787914Y-186043985D01*
X200787914Y-186043985D02*
X200859342Y-185901128D01*
X200859342Y-185901128D02*
X201002200Y-185829700D01*
X201002200Y-185829700D02*
X201359342Y-185829700D01*
X201359342Y-185829700D02*
X201502200Y-185758271D01*
X202859343Y-186401128D02*
X202859343Y-184901128D01*
X202859343Y-186329700D02*
X202716485Y-186401128D01*
X202716485Y-186401128D02*
X202430771Y-186401128D01*
X202430771Y-186401128D02*
X202287914Y-186329700D01*
X202287914Y-186329700D02*
X202216485Y-186258271D01*
X202216485Y-186258271D02*
X202145057Y-186115414D01*
X202145057Y-186115414D02*
X202145057Y-185686842D01*
X202145057Y-185686842D02*
X202216485Y-185543985D01*
X202216485Y-185543985D02*
X202287914Y-185472557D01*
X202287914Y-185472557D02*
X202430771Y-185401128D01*
X202430771Y-185401128D02*
X202716485Y-185401128D01*
X202716485Y-185401128D02*
X202859343Y-185472557D01*
X203216486Y-186543985D02*
X204359343Y-186543985D01*
X204716485Y-185401128D02*
X204716485Y-186901128D01*
X204716485Y-185472557D02*
X204859343Y-185401128D01*
X204859343Y-185401128D02*
X205145057Y-185401128D01*
X205145057Y-185401128D02*
X205287914Y-185472557D01*
X205287914Y-185472557D02*
X205359343Y-185543985D01*
X205359343Y-185543985D02*
X205430771Y-185686842D01*
X205430771Y-185686842D02*
X205430771Y-186115414D01*
X205430771Y-186115414D02*
X205359343Y-186258271D01*
X205359343Y-186258271D02*
X205287914Y-186329700D01*
X205287914Y-186329700D02*
X205145057Y-186401128D01*
X205145057Y-186401128D02*
X204859343Y-186401128D01*
X204859343Y-186401128D02*
X204716485Y-186329700D01*
X206716486Y-186329700D02*
X206573628Y-186401128D01*
X206573628Y-186401128D02*
X206287914Y-186401128D01*
X206287914Y-186401128D02*
X206145057Y-186329700D01*
X206145057Y-186329700D02*
X206073628Y-186258271D01*
X206073628Y-186258271D02*
X206002200Y-186115414D01*
X206002200Y-186115414D02*
X206002200Y-185686842D01*
X206002200Y-185686842D02*
X206073628Y-185543985D01*
X206073628Y-185543985D02*
X206145057Y-185472557D01*
X206145057Y-185472557D02*
X206287914Y-185401128D01*
X206287914Y-185401128D02*
X206573628Y-185401128D01*
X206573628Y-185401128D02*
X206716486Y-185472557D01*
X207359342Y-186401128D02*
X207359342Y-184901128D01*
X207359342Y-185472557D02*
X207502200Y-185401128D01*
X207502200Y-185401128D02*
X207787914Y-185401128D01*
X207787914Y-185401128D02*
X207930771Y-185472557D01*
X207930771Y-185472557D02*
X208002200Y-185543985D01*
X208002200Y-185543985D02*
X208073628Y-185686842D01*
X208073628Y-185686842D02*
X208073628Y-186115414D01*
X208073628Y-186115414D02*
X208002200Y-186258271D01*
X208002200Y-186258271D02*
X207930771Y-186329700D01*
X207930771Y-186329700D02*
X207787914Y-186401128D01*
X207787914Y-186401128D02*
X207502200Y-186401128D01*
X207502200Y-186401128D02*
X207359342Y-186329700D01*
D10*
D11*
X177002200Y-181507200D02*
X285002200Y-181507200D01*
D10*
D11*
X178287914Y-183629700D02*
X178502200Y-183701128D01*
X178502200Y-183701128D02*
X178859342Y-183701128D01*
X178859342Y-183701128D02*
X179002200Y-183629700D01*
X179002200Y-183629700D02*
X179073628Y-183558271D01*
X179073628Y-183558271D02*
X179145057Y-183415414D01*
X179145057Y-183415414D02*
X179145057Y-183272557D01*
X179145057Y-183272557D02*
X179073628Y-183129700D01*
X179073628Y-183129700D02*
X179002200Y-183058271D01*
X179002200Y-183058271D02*
X178859342Y-182986842D01*
X178859342Y-182986842D02*
X178573628Y-182915414D01*
X178573628Y-182915414D02*
X178430771Y-182843985D01*
X178430771Y-182843985D02*
X178359342Y-182772557D01*
X178359342Y-182772557D02*
X178287914Y-182629700D01*
X178287914Y-182629700D02*
X178287914Y-182486842D01*
X178287914Y-182486842D02*
X178359342Y-182343985D01*
X178359342Y-182343985D02*
X178430771Y-182272557D01*
X178430771Y-182272557D02*
X178573628Y-182201128D01*
X178573628Y-182201128D02*
X178930771Y-182201128D01*
X178930771Y-182201128D02*
X179145057Y-182272557D01*
X179787913Y-183701128D02*
X179787913Y-182201128D01*
X180430771Y-183701128D02*
X180430771Y-182915414D01*
X180430771Y-182915414D02*
X180359342Y-182772557D01*
X180359342Y-182772557D02*
X180216485Y-182701128D01*
X180216485Y-182701128D02*
X180002199Y-182701128D01*
X180002199Y-182701128D02*
X179859342Y-182772557D01*
X179859342Y-182772557D02*
X179787913Y-182843985D01*
X181716485Y-183629700D02*
X181573628Y-183701128D01*
X181573628Y-183701128D02*
X181287914Y-183701128D01*
X181287914Y-183701128D02*
X181145056Y-183629700D01*
X181145056Y-183629700D02*
X181073628Y-183486842D01*
X181073628Y-183486842D02*
X181073628Y-182915414D01*
X181073628Y-182915414D02*
X181145056Y-182772557D01*
X181145056Y-182772557D02*
X181287914Y-182701128D01*
X181287914Y-182701128D02*
X181573628Y-182701128D01*
X181573628Y-182701128D02*
X181716485Y-182772557D01*
X181716485Y-182772557D02*
X181787914Y-182915414D01*
X181787914Y-182915414D02*
X181787914Y-183058271D01*
X181787914Y-183058271D02*
X181073628Y-183201128D01*
X183002199Y-183629700D02*
X182859342Y-183701128D01*
X182859342Y-183701128D02*
X182573628Y-183701128D01*
X182573628Y-183701128D02*
X182430770Y-183629700D01*
X182430770Y-183629700D02*
X182359342Y-183486842D01*
X182359342Y-183486842D02*
X182359342Y-182915414D01*
X182359342Y-182915414D02*
X182430770Y-182772557D01*
X182430770Y-182772557D02*
X182573628Y-182701128D01*
X182573628Y-182701128D02*
X182859342Y-182701128D01*
X182859342Y-182701128D02*
X183002199Y-182772557D01*
X183002199Y-182772557D02*
X183073628Y-182915414D01*
X183073628Y-182915414D02*
X183073628Y-183058271D01*
X183073628Y-183058271D02*
X182359342Y-183201128D01*
X183502199Y-182701128D02*
X184073627Y-182701128D01*
X183716484Y-182201128D02*
X183716484Y-183486842D01*
X183716484Y-183486842D02*
X183787913Y-183629700D01*
X183787913Y-183629700D02*
X183930770Y-183701128D01*
X183930770Y-183701128D02*
X184073627Y-183701128D01*
X184573627Y-183558271D02*
X184645056Y-183629700D01*
X184645056Y-183629700D02*
X184573627Y-183701128D01*
X184573627Y-183701128D02*
X184502199Y-183629700D01*
X184502199Y-183629700D02*
X184573627Y-183558271D01*
X184573627Y-183558271D02*
X184573627Y-183701128D01*
X184573627Y-182772557D02*
X184645056Y-182843985D01*
X184645056Y-182843985D02*
X184573627Y-182915414D01*
X184573627Y-182915414D02*
X184502199Y-182843985D01*
X184502199Y-182843985D02*
X184573627Y-182772557D01*
X184573627Y-182772557D02*
X184573627Y-182915414D01*
D10*
D12*
X178287914Y-180272557D02*
X179002200Y-180272557D01*
X178145057Y-180701128D02*
X178645057Y-179201128D01*
X178645057Y-179201128D02*
X179145057Y-180701128D01*
X179859342Y-180701128D02*
X179716485Y-180629700D01*
X179716485Y-180629700D02*
X179645056Y-180486842D01*
X179645056Y-180486842D02*
X179645056Y-179201128D01*
X180430770Y-180701128D02*
X180430770Y-179201128D01*
X180430770Y-179772557D02*
X180573628Y-179701128D01*
X180573628Y-179701128D02*
X180859342Y-179701128D01*
X180859342Y-179701128D02*
X181002199Y-179772557D01*
X181002199Y-179772557D02*
X181073628Y-179843985D01*
X181073628Y-179843985D02*
X181145056Y-179986842D01*
X181145056Y-179986842D02*
X181145056Y-180415414D01*
X181145056Y-180415414D02*
X181073628Y-180558271D01*
X181073628Y-180558271D02*
X181002199Y-180629700D01*
X181002199Y-180629700D02*
X180859342Y-180701128D01*
X180859342Y-180701128D02*
X180573628Y-180701128D01*
X180573628Y-180701128D02*
X180430770Y-180629700D01*
X182359342Y-180629700D02*
X182216485Y-180701128D01*
X182216485Y-180701128D02*
X181930771Y-180701128D01*
X181930771Y-180701128D02*
X181787913Y-180629700D01*
X181787913Y-180629700D02*
X181716485Y-180486842D01*
X181716485Y-180486842D02*
X181716485Y-179915414D01*
X181716485Y-179915414D02*
X181787913Y-179772557D01*
X181787913Y-179772557D02*
X181930771Y-179701128D01*
X181930771Y-179701128D02*
X182216485Y-179701128D01*
X182216485Y-179701128D02*
X182359342Y-179772557D01*
X182359342Y-179772557D02*
X182430771Y-179915414D01*
X182430771Y-179915414D02*
X182430771Y-180058271D01*
X182430771Y-180058271D02*
X181716485Y-180201128D01*
X183073627Y-180701128D02*
X183073627Y-179701128D01*
X183073627Y-179986842D02*
X183145056Y-179843985D01*
X183145056Y-179843985D02*
X183216485Y-179772557D01*
X183216485Y-179772557D02*
X183359342Y-179701128D01*
X183359342Y-179701128D02*
X183502199Y-179701128D01*
X183787913Y-179701128D02*
X184359341Y-179701128D01*
X184002198Y-179201128D02*
X184002198Y-180486842D01*
X184002198Y-180486842D02*
X184073627Y-180629700D01*
X184073627Y-180629700D02*
X184216484Y-180701128D01*
X184216484Y-180701128D02*
X184359341Y-180701128D01*
D10*
D11*
D10*
D11*
D10*
D11*
D10*
D11*
D10*
D11*
X197002200Y-191507200D02*
X197002200Y-194507200D01*
D10*
D11*
X261002200Y-191507200D02*
X261002200Y-198007200D01*
D14*
%TO.C,L2*%
X102078981Y-67430000D03*
X102078981Y-69730000D03*
%TD*%
D15*
%TO.C,U2*%
X115420000Y-106470000D03*
X115420000Y-106970000D03*
X115420000Y-107470000D03*
X115420000Y-107970000D03*
X115420000Y-108470000D03*
X115420000Y-108970000D03*
X115420000Y-109470000D03*
X115420000Y-109970000D03*
X115420000Y-110470000D03*
X115420000Y-110970000D03*
X115420000Y-111470000D03*
X115420000Y-111970000D03*
D16*
X117370000Y-113920000D03*
X117870000Y-113920000D03*
X118370000Y-113920000D03*
X118870000Y-113920000D03*
X119370000Y-113920000D03*
X119870000Y-113920000D03*
X120370000Y-113920000D03*
X120870000Y-113920000D03*
X121370000Y-113920000D03*
X121870000Y-113920000D03*
X122370000Y-113920000D03*
X122870000Y-113920000D03*
D15*
X124820000Y-111970000D03*
X124820000Y-111470000D03*
X124820000Y-110970000D03*
X124820000Y-110470000D03*
X124820000Y-109970000D03*
X124820000Y-109470000D03*
X124820000Y-108970000D03*
X124820000Y-108470000D03*
X124820000Y-107970000D03*
X124820000Y-107470000D03*
X124820000Y-106970000D03*
X124820000Y-106470000D03*
D16*
X122870000Y-104520000D03*
X122370000Y-104520000D03*
X121870000Y-104520000D03*
X121370000Y-104520000D03*
X120870000Y-104520000D03*
X120370000Y-104520000D03*
X119870000Y-104520000D03*
X119370000Y-104520000D03*
X118870000Y-104520000D03*
X118370000Y-104520000D03*
X117870000Y-104520000D03*
X117370000Y-104520000D03*
%TD*%
D17*
%TO.C,R1*%
X145520000Y-67580000D03*
X145520000Y-69580000D03*
%TD*%
D18*
%TO.C,C13*%
X100032500Y-86360000D03*
X102107500Y-86360000D03*
%TD*%
D19*
%TO.C,R9*%
X127765000Y-118110000D03*
X129765000Y-118110000D03*
%TD*%
D18*
%TO.C,C10*%
X122133940Y-119626921D03*
X124208940Y-119626921D03*
%TD*%
D20*
%TO.C,D6*%
X101070000Y-73680000D03*
X101070000Y-76180000D03*
%TD*%
D21*
%TO.C,R6*%
X113270649Y-98145779D03*
X111270649Y-98145779D03*
%TD*%
D22*
%TO.C,C1*%
X153140000Y-78972500D03*
X153140000Y-81047500D03*
%TD*%
D17*
%TO.C,R10*%
X140752948Y-89226445D03*
X140752948Y-91226445D03*
%TD*%
D19*
%TO.C,R4*%
X154680000Y-113262500D03*
X156680000Y-113262500D03*
%TD*%
D18*
%TO.C,C15*%
X105112500Y-68580000D03*
X107187500Y-68580000D03*
%TD*%
D23*
%TO.C,D7*%
X134870000Y-118110000D03*
X132820000Y-118110000D03*
%TD*%
D22*
%TO.C,C6*%
X107420000Y-113262500D03*
X107420000Y-115337500D03*
%TD*%
D24*
%TO.C,U1*%
X100120000Y-81147500D03*
X101070000Y-81147500D03*
X102020000Y-81147500D03*
X102020000Y-78872500D03*
X101070000Y-78872500D03*
X100120000Y-78872500D03*
%TD*%
D21*
%TO.C,R3*%
X99800000Y-67161222D03*
X97800000Y-67161222D03*
%TD*%
D18*
%TO.C,C7*%
X120443511Y-98388292D03*
X122518511Y-98388292D03*
%TD*%
D21*
%TO.C,R18*%
X172361308Y-81101546D03*
X170361308Y-81101546D03*
%TD*%
%TO.C,R15*%
X172361308Y-88721546D03*
X170361308Y-88721546D03*
%TD*%
D17*
%TO.C,R2*%
X127740000Y-67905000D03*
X127740000Y-69905000D03*
%TD*%
D18*
%TO.C,C12*%
X105112500Y-76200000D03*
X107187500Y-76200000D03*
%TD*%
%TO.C,C2*%
X105596352Y-109741145D03*
X107671352Y-109741145D03*
%TD*%
D25*
%TO.C,C11*%
X119310335Y-119714538D03*
X117235335Y-119714538D03*
%TD*%
D26*
%TO.C,L1*%
X104630388Y-116715643D03*
X104630388Y-114415643D03*
%TD*%
D21*
%TO.C,R20*%
X172361308Y-76021546D03*
X170361308Y-76021546D03*
%TD*%
D27*
%TO.C,D1*%
X153140000Y-76180000D03*
X153140000Y-73680000D03*
%TD*%
D25*
%TO.C,C17*%
X119887500Y-77470000D03*
X117812500Y-77470000D03*
%TD*%
D21*
%TO.C,R22*%
X172361308Y-70941546D03*
X170361308Y-70941546D03*
%TD*%
D25*
%TO.C,C18*%
X119887500Y-80010000D03*
X117812500Y-80010000D03*
%TD*%
D19*
%TO.C,R7*%
X105150000Y-82550000D03*
X107150000Y-82550000D03*
%TD*%
D21*
%TO.C,R16*%
X172361308Y-86181546D03*
X170361308Y-86181546D03*
%TD*%
D28*
%TO.C,D5*%
X140440000Y-86115000D03*
X140440000Y-84065000D03*
%TD*%
D29*
%TO.C,D8*%
X146770000Y-78740000D03*
X144270000Y-78740000D03*
%TD*%
D30*
%TO.C,Y1*%
X109960000Y-106325000D03*
X109960000Y-109575000D03*
%TD*%
D25*
%TO.C,C20*%
X141477500Y-81280000D03*
X139402500Y-81280000D03*
%TD*%
D21*
%TO.C,R23*%
X172361308Y-68401546D03*
X170361308Y-68401546D03*
%TD*%
D31*
%TO.C,R5*%
X154410000Y-118072500D03*
X154410000Y-116072500D03*
%TD*%
D22*
%TO.C,C5*%
X111230000Y-113262500D03*
X111230000Y-115337500D03*
%TD*%
D25*
%TO.C,C16*%
X141477500Y-78740000D03*
X139402500Y-78740000D03*
%TD*%
D21*
%TO.C,R14*%
X172361308Y-91261546D03*
X170361308Y-91261546D03*
%TD*%
%TO.C,R17*%
X172361308Y-83641546D03*
X170361308Y-83641546D03*
%TD*%
D32*
%TO.C,D3*%
X130280000Y-67880000D03*
X130280000Y-69930000D03*
%TD*%
D28*
%TO.C,D8*%
X144250000Y-86115000D03*
X144250000Y-84065000D03*
%TD*%
D33*
%TO.C,C19*%
X156950000Y-118110000D03*
X156950000Y-116035000D03*
%TD*%
D32*
%TO.C,D2*%
X148060000Y-67555000D03*
X148060000Y-69605000D03*
%TD*%
D19*
%TO.C,R8*%
X105150000Y-80010000D03*
X107150000Y-80010000D03*
%TD*%
%TO.C,R4*%
X138170000Y-127000000D03*
X140170000Y-127000000D03*
%TD*%
D25*
%TO.C,C8*%
X112500000Y-69850000D03*
X110425000Y-69850000D03*
%TD*%
D18*
%TO.C,C14*%
X105112500Y-73660000D03*
X107187500Y-73660000D03*
%TD*%
D19*
%TO.C,R12*%
X100070000Y-83820000D03*
X102070000Y-83820000D03*
%TD*%
D34*
%TO.C,D4*%
X97775000Y-69701222D03*
X99825000Y-69701222D03*
%TD*%
D25*
%TO.C,C3*%
X107622361Y-106133507D03*
X105547361Y-106133507D03*
%TD*%
%TO.C,C9*%
X112500000Y-67310000D03*
X110425000Y-67310000D03*
%TD*%
D34*
%TO.C,D5*%
X143225000Y-127000000D03*
X145275000Y-127000000D03*
%TD*%
D25*
%TO.C,C4*%
X109265517Y-98156399D03*
X107190517Y-98156399D03*
%TD*%
D17*
%TO.C,R11*%
X144250000Y-89170000D03*
X144250000Y-91170000D03*
%TD*%
D21*
%TO.C,R19*%
X172361308Y-78561546D03*
X170361308Y-78561546D03*
%TD*%
%TO.C,R21*%
X172361308Y-73481546D03*
X170361308Y-73481546D03*
%TD*%
M02*
