M48
; DRILL file {KiCad 7.0.1} date Thu Jun  8 10:56:09 2023
; FORMAT={-:-/ absolute / inch / decimal}
; #@! TF.CreationDate,2023-06-08T10:56:09+02:00
; #@! TF.GenerationSoftware,Kicad,Pcbnew,7.0.1
; #@! TF.FileFunction,Plated,1,2,PTH
FMAT,2
INCH
; #@! TA.AperFunction,Plated,PTH,ViaDrill
T1C0.0157
; #@! TA.AperFunction,Plated,PTH,ComponentDrill
T2C0.0157
; #@! TA.AperFunction,Plated,PTH,ComponentDrill
T3C0.0236
; #@! TA.AperFunction,Plated,PTH,ComponentDrill
T4C0.0256
; #@! TA.AperFunction,Plated,PTH,ComponentDrill
T5C0.0360
; #@! TA.AperFunction,Plated,PTH,ComponentDrill
T6C0.0394
; #@! TA.AperFunction,Plated,PTH,ComponentDrill
T7C0.0433
; #@! TA.AperFunction,Plated,PTH,ComponentDrill
T8C0.0591
%
G90
G05
T1
X3.7967Y-3.4026
X3.8551Y-3.05
X3.897Y-3.0465
X3.9124Y-2.8263
X3.9288Y-3.5022
X3.9685Y-3.4698
X4.05Y-4.8
X4.0768Y-3.2019
X4.094Y-3.0619
X4.1081Y-4.6822
X4.1297Y-3.323
X4.143Y-4.4462
X4.2304Y-4.7543
X4.2737Y-2.7567
X4.2803Y-2.9432
X4.3064Y-4.6003
X4.4516Y-4.5801
X4.4588Y-4.3489
X4.4632Y-4.3077
X4.4999Y-3.7714
X4.5111Y-3.9
X4.5209Y-4.6162
X4.5441Y-4.5611
X4.5661Y-3.9927
X4.5992Y-4.5706
X4.6097Y-3.9468
X4.6153Y-4.6477
X4.6291Y-4.35
X4.661Y-4.6186
X4.71Y-4.6048
X4.7302Y-3.7914
X4.7335Y-3.7226
X4.789Y-4.6106
X4.7909Y-4.3921
X4.8298Y-3.1475
X4.8313Y-2.9506
X4.844Y-4.6112
X4.89Y-3.2797
X4.9041Y-4.6086
X4.937Y-3.3842
X4.9573Y-4.607
X4.9622Y-3.3163
X4.9901Y-4.0339
X4.9926Y-4.141
X5.0281Y-4.2405
X5.0349Y-3.4085
X5.1839Y-3.9304
X5.2203Y-4.848
X5.2786Y-4.0249
X5.2917Y-3.3034
X5.3278Y-4.0955
X5.3357Y-3.3693
X5.3643Y-3.7343
X5.3844Y-3.101
X5.4106Y-3.7296
X5.4463Y-4.5212
X5.5184Y-3.6739
X5.6187Y-3.0029
X5.7744Y-3.4953
X5.8766Y-3.9512
X5.879Y-3.6788
X5.887Y-4.1922
X5.946Y-4.3417
X5.9935Y-3.798
X6.1333Y-2.9507
X6.1683Y-3.8259
X6.5934Y-4.461
X6.7823Y-4.8957
X6.8329Y-4.853
X6.8789Y-4.8914
X6.914Y-4.9167
T2
X3.7167Y-2.9125
X3.7167Y-2.946
X3.7167Y-2.9794
X3.7167Y-3.0129
X3.7167Y-3.0464
X3.7167Y-3.0798
X3.7167Y-3.1133
X3.7167Y-3.1468
X3.7698Y-2.9125
X3.7698Y-2.946
X3.7698Y-2.9794
X3.7698Y-3.0129
X3.7698Y-3.0464
X3.7698Y-3.0798
X3.7698Y-3.1133
X3.7698Y-3.1468
T4
X4.2291Y-4.0
X4.2291Y-4.05
X4.2791Y-4.0
X4.2791Y-4.05
X4.3291Y-4.0
X4.3291Y-4.05
X4.3791Y-4.0
X4.3791Y-4.05
X4.4291Y-4.0
X4.4291Y-4.05
T5
X6.2423Y-2.693
X6.2423Y-2.793
X6.2423Y-2.893
X6.2423Y-2.993
X6.2423Y-3.093
X6.2423Y-3.193
X6.2423Y-3.293
X6.2423Y-3.393
X6.2423Y-3.493
X6.2423Y-3.593
X6.5423Y-2.693
X6.5423Y-2.793
X6.5423Y-2.893
X6.5423Y-2.993
X6.5423Y-3.093
X6.5423Y-3.193
X6.5423Y-3.293
X6.5423Y-3.393
X6.5423Y-3.493
X6.5423Y-3.593
T6
X3.7291Y-3.7
X3.7291Y-3.8
X3.7291Y-3.9
X3.7291Y-4.0
X3.7291Y-4.1
X3.7291Y-4.2
X3.7291Y-4.3
X3.7291Y-4.4
X3.7291Y-4.5
X3.7291Y-4.6
X3.7291Y-4.7
X3.7291Y-4.8
X3.8291Y-3.7
X3.8291Y-3.8
X3.8291Y-3.9
X3.8291Y-4.0
X3.8291Y-4.1
X3.8291Y-4.2
X3.8291Y-4.3
X3.8291Y-4.4
X3.8291Y-4.5
X3.8291Y-4.6
X3.8291Y-4.7
X3.8291Y-4.8
X4.2791Y-3.5
X4.2791Y-3.6
X4.2791Y-4.95
X4.2791Y-5.05
X4.3791Y-2.8996
X4.3791Y-2.9996
X4.3791Y-3.0996
X4.3791Y-3.1996
X4.3791Y-3.5
X4.3791Y-3.6
X4.3791Y-4.95
X4.3791Y-5.05
X4.4791Y-3.5
X4.4791Y-3.6
X4.4791Y-4.95
X4.4791Y-5.05
X4.5791Y-3.5
X4.5791Y-3.6
X4.5791Y-4.95
X4.5791Y-5.05
X4.6791Y-3.5
X4.6791Y-3.6
X4.6791Y-4.95
X4.6791Y-5.05
X4.7791Y-3.5
X4.7791Y-3.6
X4.7791Y-4.95
X4.7791Y-5.05
X4.8791Y-3.5
X4.8791Y-3.6
X4.8791Y-4.95
X4.8791Y-5.05
X4.9791Y-3.5
X4.9791Y-3.6
X4.9791Y-4.95
X4.9791Y-5.05
X5.0791Y-3.5
X5.0791Y-3.6
X5.0791Y-4.95
X5.0791Y-5.05
X5.1791Y-3.5
X5.1791Y-3.6
X5.1791Y-4.95
X5.1791Y-5.05
X5.6291Y-3.75
X5.6291Y-3.85
X5.6291Y-3.95
X5.6291Y-4.05
X5.6291Y-4.15
X5.6291Y-4.25
X5.6291Y-4.35
X5.6291Y-4.45
X5.6291Y-4.55
X5.6291Y-4.65
X5.7291Y-3.75
X5.7291Y-3.85
X5.7291Y-3.95
X5.7291Y-4.05
X5.7291Y-4.15
X5.7291Y-4.25
X5.7291Y-4.35
X5.7291Y-4.45
X5.7291Y-4.55
X5.7291Y-4.65
X6.0291Y-2.75
X6.0291Y-3.4
X6.0291Y-3.8996
X6.0291Y-3.9996
X6.0291Y-4.0996
X6.0291Y-4.1996
X6.0291Y-5.05
X6.1291Y-5.05
X6.2291Y-5.05
X6.3291Y-3.9531
X6.3291Y-4.0516
X6.3291Y-4.15
X6.4307Y-4.8382
X6.4422Y-5.0449
X6.5291Y-4.6413
X6.5422Y-5.0449
X6.6276Y-4.8382
X6.6422Y-5.0449
X6.7422Y-5.0449
X6.7739Y-4.6779
X6.8422Y-5.0449
X6.9Y-3.9531
X6.9Y-4.15
X6.9422Y-5.0449
X6.9965Y-2.6972
X6.9965Y-2.7972
X6.9965Y-2.8972
X6.9965Y-2.9972
X6.9965Y-3.0972
X6.9965Y-3.1972
X6.9965Y-3.2972
X6.9965Y-3.3972
X6.9965Y-3.4972
X6.9965Y-3.5972
X7.0422Y-5.0449
X7.1422Y-5.0449
X7.2121Y-3.8209
X7.2121Y-4.35
X7.2422Y-5.0449
X7.2882Y-2.6927
X7.2882Y-2.7927
X7.2882Y-2.8927
X7.2882Y-2.9927
X7.2882Y-3.0927
X7.2882Y-3.1927
X7.2882Y-3.2927
X7.2882Y-3.3927
X7.2882Y-3.4927
X7.2882Y-3.5927
X7.2963Y-4.6818
X7.3422Y-5.0449
X7.4422Y-5.0449
X7.4877Y-3.7477
X7.4877Y-3.8477
X7.4877Y-3.9477
X7.4877Y-4.0477
X7.4877Y-4.1477
X7.4877Y-4.2477
X7.4877Y-4.3477
X7.4877Y-4.4477
X7.4877Y-4.5477
X7.4877Y-4.6477
X7.5422Y-5.0449
X7.5868Y-2.6937
X7.5868Y-2.7937
X7.5868Y-2.8937
X7.5868Y-2.9937
X7.5868Y-3.0937
X7.5868Y-3.1937
X7.5868Y-3.2937
X7.5868Y-3.3937
X7.5868Y-3.4937
X7.5868Y-3.5937
X7.5877Y-3.7477
X7.5877Y-3.8477
X7.5877Y-3.9477
X7.5877Y-4.0477
X7.5877Y-4.1477
X7.5877Y-4.2477
X7.5877Y-4.3477
X7.5877Y-4.4477
X7.5877Y-4.5477
X7.5877Y-4.6477
X7.7253Y-4.8811
X7.8927Y-2.6907
X7.8927Y-2.7907
X7.8927Y-2.8907
X7.8927Y-2.9907
X7.8927Y-3.0907
X7.8927Y-3.1907
X7.8927Y-3.2907
X7.8927Y-3.3907
X7.8927Y-3.4907
X7.8927Y-3.5907
X8.1111Y-3.7437
X8.1111Y-3.8437
X8.1111Y-3.9437
X8.1111Y-4.0437
X8.1111Y-4.1437
X8.1111Y-4.2437
X8.1111Y-4.3437
X8.1111Y-4.4437
X8.1111Y-4.5437
X8.1111Y-4.6437
X8.1753Y-4.8811
X8.2111Y-3.7437
X8.2111Y-3.8437
X8.2111Y-3.9437
X8.2111Y-4.0437
X8.2111Y-4.1437
X8.2111Y-4.2437
X8.2111Y-4.3437
X8.2111Y-4.4437
X8.2111Y-4.5437
X8.2111Y-4.6437
T7
X4.6291Y-2.75
X4.7291Y-2.75
X4.8291Y-2.75
X4.9985Y-3.03
X4.9985Y-3.2072
X5.2544Y-3.03
X5.2544Y-3.2072
X5.3291Y-2.75
X5.4291Y-2.75
X5.5291Y-2.75
X6.947Y-4.5524
X6.947Y-4.8083
X7.0841Y-4.0032
X7.0841Y-4.1804
X7.1242Y-4.5524
X7.1242Y-4.8083
X7.34Y-4.0032
X7.34Y-4.1804
T3
G00X3.6139Y-2.8594
M15
G01X3.5824Y-2.8594
M16
G05
G00X3.6139Y-3.1999
M15
G01X3.5824Y-3.1999
M16
G05
G00X3.7608Y-2.8594
M15
G01X3.7017Y-2.8594
M16
G05
G00X3.7608Y-3.1999
M15
G01X3.7017Y-3.1999
M16
G05
T8
G00X6.5988Y-3.8311
M15
G01X6.65Y-3.8311
M16
G05
G00X6.5988Y-4.272
M15
G01X6.65Y-4.272
M16
G05
T0
M30
